<?xml version="1.0"?>
<!-- Created by MetaPost 2.02 on 2023.05.10:0136 -->
<svg version="1.1" xmlns="http://www.w3.org/2000/svg" xmlns:xlink="http://www.w3.org/1999/xlink" width="25.371094" height="25.441422" viewBox="0 0 25.371094 25.441422">
<!-- Original BoundingBox: 3.035156 3.679688 25.371094 25.441422 -->
  <path d="M19.250000 17.523453C22.527298 17.523453,22.671906 19.953140,22.671906 21.761734L5.632812 21.761734C5.632812 19.921890,5.777344 17.523453,9.054688 17.523453Z" style="fill: rgb(0.000000%,0.000000%,0.000000%);stroke: none;"></path>
  <path d="M11.261703 0.000015C10.011703 -0.003876,8.996094 0.945328,8.996094 2.113327C8.996094 2.984421,9.566406 3.765625,10.429703 4.082016L10.148407 9.777328L7.160156 5.199219C7.421875 4.847626,7.558594 4.429718,7.558594 4.000015C7.558594 2.832016,6.546875 1.882828,5.296875 1.882828C4.046875 1.882828,3.035156 2.832016,3.035156 4.000015C3.035156 5.031219,3.828125 5.910126,4.914062 6.085922L8.492188 16.394547L19.851608 16.394547L23.421906 6.148422C24.539108 6.000015,25.367203 5.109421,25.371094 4.054718C25.371094 2.886719,24.355499 1.941422,23.109406 1.937515C21.859406 1.941422,20.847702 2.886719,20.847702 4.054718C20.847702 4.449219,20.964798 4.832016,21.187500 5.168030L18.132797 9.777328L17.894501 4.074219C18.746094 3.750015,19.300797 2.972626,19.300797 2.113327C19.300797 0.945328,18.289108 0.000015,17.039108 0.000015C15.789093 0.000015,14.777298 0.945328,14.777298 2.113327C14.777298 2.664124,15.007797 3.195328,15.417999 3.589813L14.140594 9.777328L12.921906 3.546921C13.308594 3.156219,13.519501 2.644516,13.523407 2.113327C13.523407 0.945328,12.507797 0.000015,11.261703 0.000015Z" style="fill: rgb(0.000000%,0.000000%,0.000000%);stroke: none;"></path>
</svg>
