<svg xmlns="http://www.w3.org/2000/svg" width="1122.52" height="793.701" viewBox="0 0 841.89 595.276"><path d="M0 0v595.276h841.89V0z" fill="#fff" fill-rule="evenodd"/><clipPath id="a"><path transform="scale(.75)" d="M0 48h1122.52v697.92H0V48z" fill-rule="evenodd"/></clipPath><g clip-path="url(#a)"><path d="M238.976 205.466a.343.343 0 1 1 .687 0 .343.343 0 0 1-.687 0zm-.062-.028a.375.375 0 1 1 .75 0 .375.375 0 0 1-.75 0zm.749.05-.283.315-.024.005.308-.346zm-.78-.072a.382.382 0 1 1 .764 0 .382.382 0 0 1-.764 0zm.708-.202-.49.55-.028-.017.498-.558zm-.856.086a.4.4 0 1 1 .799 0 .4.4 0 0 1-.8 0zm.811-.142-.506.567-.141-.102.53-.593zm-1.08-.085a.414.414 0 1 1 .828 0 .414.414 0 0 1-.828 0zm.947-.059-.531.596-.263-.216.55-.617zm-1.685-.584a.43.43 0 1 1 .861 0 .43.43 0 0 1-.86 0zm1.433.339-.551.618-.733-.632.574-.642zm-2.342-1.137a.447.447 0 1 1 .895 0 .447.447 0 0 1-.895 0zm1.63.481-.572.641-.904-.784.596-.667zm-3.782-2.392a.482.482 0 1 1 .964-.001.482.482 0 0 1-.964 0zm2.903 1.582-.6.665-2.14-1.886.647-.715zm-5.195-3.674a.51.51 0 1 1 1.02 0 .51.51 0 0 1-1.02 0zm3.105 1.74-.655.709-2.282-2.072.691-.748zm-4.19-2.763a.519.519 0 1 1 1.037 0 .519.519 0 0 1-1.037 0zm1.948.656-.702.738-1.082-1.016.714-.751zm-2.931-1.615a.523.523 0 1 1 1.045 0 .523.523 0 0 1-1.045 0zm1.866.59-.726.74-.982-.956.732-.747zm-5.078-4.029a.535.535 0 1 1 1.07 0 .535.535 0 0 1-1.07 0zm4.119 3.083-.766.713-3.209-3.43.784-.729zm-7.053-6.72a.544.544 0 1 1 1.088 0 .544.544 0 0 1-1.088 0zm3.888 3.302-.835.672-2.933-3.632.848-.682zm-6.54-7.126a.55.55 0 1 1 1.099 0 .55.55 0 0 1-1.099 0zm3.643 3.514-.894.62-2.651-3.821.903-.625zm-6.006-7.51a.551.551 0 1 1 1.103 0 .551.551 0 0 1-1.103 0zm3.385 3.717-.945.558-2.363-3.995.95-.56zm-5.455-7.873a.553.553 0 1 1 1.106 0 .553.553 0 0 1-1.106 0zm3.116 3.91-.988.491-2.07-4.155.99-.493zm-4.887-8.211a.553.553 0 1 1 1.106-.001.553.553 0 0 1-1.106.001zm2.835 4.09-1.022.421-1.77-4.301 1.022-.42zm-4.3-8.524a.553.553 0 1 1 1.105 0 .553.553 0 0 1-1.106 0zm2.543 4.26-1.049.347-1.467-4.433 1.05-.347zm-3.7-8.812a.554.554 0 1 1 1.107 0 .554.554 0 0 1-1.107 0zm2.245 4.416-1.072.273-1.157-4.553 1.074-.272zm-2.99-8.296a.555.555 0 1 1 1.11.001.555.555 0 0 1-1.11-.001zm1.842 3.776-1.088.209-.743-3.88 1.09-.21zm-2.403-7.719a.556.556 0 1 1 1.112 0 .556.556 0 0 1-1.112 0zm1.665 3.865-1.098.157-.561-3.944 1.1-.156zm-2.038-7.856a.558.558 0 1 1 1.115 0 .558.558 0 0 1-1.115 0zm1.482 3.94-1.107.102-.373-3.99 1.11-.103zm-1.66-7.96a.56.56 0 1 1 1.118 0 .56.56 0 0 1-1.118 0zm1.293 3.996-1.114.049-.179-4.02 1.117-.05zm-1.272-8.03a.56.56 0 1 1 1.12-.002.56.56 0 0 1-1.12.001zm1.096 4.037-1.117-.006.02-4.035 1.122.007zm-.87-8.07a.562.562 0 1 1 1.124 0 .562.562 0 0 1-1.125 0zm.894 4.064-1.12-.063.226-4.032 1.124.064zm-.458-8.076a.564.564 0 1 1 1.129 0 .564.564 0 0 1-1.129 0zm.685 4.074-1.118-.123.437-4.012 1.121.122zm-.032-8.052a.566.566 0 1 1 1.132.001.566.566 0 0 1-1.132 0zm.468 4.07-1.113-.184.653-3.977 1.117.184zm.407-7.994a.567.567 0 1 1 1.134 0 .567.567 0 0 1-1.134 0zm.244 4.048-1.105-.246.874-3.925 1.108.246zm.858-7.905a.569.569 0 1 1 1.138 0 .569.569 0 0 1-1.138 0zm.01 4.014-1.09-.313 1.102-3.857 1.093.313zm1.325-7.785a.57.57 0 1 1 1.14 0 .57.57 0 0 1-1.14 0zm-.23 3.962-1.072-.38 1.334-3.772 1.075.38zm1.804-7.632a.571.571 0 1 1 1.142.001.571.571 0 0 1-1.142 0zm-.48 3.895-1.048-.449 1.573-3.67 1.05.45zm2.297-7.446a.571.571 0 1 1 1.143 0 .571.571 0 0 1-1.143 0zm-.739 3.812-1.016-.52 1.818-3.552 1.017.52zm2.807-7.229a.572.572 0 1 1 1.143 0 .572.572 0 0 1-1.143 0zm-1.007 3.713-.978-.591 2.067-3.417.978.592zm3.329-6.978a.571.571 0 1 1 1.142 0 .571.571 0 0 1-1.142 0zm-1.286 3.597-.931-.662 2.322-3.266.931.661zm3.869-6.695a.57.57 0 1 1 1.14 0 .57.57 0 0 1-1.14 0zm-1.574 3.464-.877-.732 2.583-3.097.876.73zm3.972-5.784a.568.568 0 1 1 1.137 0 .568.568 0 0 1-1.137 0zm-1.431 2.73-.793-.82 2.397-2.318.792.817zm4.133-4.722a.568.568 0 1 1 1.136 0 .568.568 0 0 1-1.136 0zm-1.796 2.45-.675-.915 2.702-1.993.675.915zm4.74-4.061a.567.567 0 1 1 1.133-.001.567.567 0 0 1-1.133 0zm-2.103 2.109-.545-.996 2.942-1.611.546.996zm5.22-3.282a.568.568 0 1 1 1.135.001.568.568 0 0 1-1.136-.001zm-2.35 1.704-.4-1.062 3.117-1.173.4 1.063zm5.578-2.383a.568.568 0 1 1 1.135 0 .568.568 0 0 1-1.135 0zm-2.544 1.235-.234-1.111 3.228-.679.234 1.11zm4.179-1.372a.568.568 0 1 1 1.135 0 .568.568 0 0 1-1.135 0zm-1.02.702-.096-1.13 1.636-.138.095 1.132zm2.658-.695a.567.567 0 1 1 1.135 0 .567.567 0 0 1-1.135 0zm-1.074.56.006-1.135 1.638.007-.005 1.136zm2.708-.4a.568.568 0 1 1 1.136-.002.568.568 0 0 1-1.136.001zm-1.121.406.11-1.13 1.633.158-.11 1.13zm2.741-.09a.568.568 0 1 1 1.136 0 .568.568 0 0 1-1.136 0zm-1.161.24.217-1.115 1.621.317-.218 1.115zm2.761.242a.568.568 0 1 1 1.136-.001.568.568 0 0 1-1.136.001zm-1.195.061.327-1.087 1.6.482-.328 1.088zm2.766.593a.568.568 0 1 1 1.136 0 .568.568 0 0 1-1.136 0zm-1.221-.13.436-1.048 1.572.654-.438 1.048zm3.323 1.334a.57.57 0 1 1 1.14-.001.57.57 0 0 1-1.14 0zm-1.817-.711.564-.986 2.105 1.202-.566.989zm3.683 2.161a.572.572 0 1 1 1.144 0 .572.572 0 0 1-1.144 0zm-1.646-1.001.699-.9 1.869 1.449-.7.903zm3.305 2.657a.574.574 0 1 1 1.147 0 .574.574 0 0 1-1.147 0zm-1.491-1.251.807-.81 1.662 1.654-.81.812zm2.97 3.068a.575.575 0 1 1 1.15.001.575.575 0 0 1-1.15-.001zm-1.35-1.456.889-.725 1.482 1.818-.892.726zm2.677 3.394a.576.576 0 1 1 1.153 0 .576.576 0 0 1-1.153 0zm-1.226-1.613.949-.65 1.329 1.937-.951.652zm2.429 3.629a.578.578 0 1 1 1.155 0 .578.578 0 0 1-1.155 0zm-1.121-1.72.99-.592 1.204 2.015-.992.593zm3.262 5.817a.579.579 0 1 1 1.157 0 .579.579 0 0 1-1.157 0zm-2.076-3.83 1.024-.535 2.143 4.096-1.026.537zm3.485 6.83a.579.579 0 1 1 1.157 0 .579.579 0 0 1-1.157 0zm-1.354-2.754 1.047-.492 1.41 3-1.049.492zm2.626 5.798a.58.58 0 1 1 1.16 0 .58.58 0 0 1-1.16 0zm-1.227-2.82 1.068-.448 1.273 3.045-1.07.447zm3.423 9.023a.58.58 0 1 1 1.16-.001.58.58 0 0 1-1.16 0zm-2.163-6.01 1.093-.386 2.197 6.201-1.094.388zm3.996 12.33a.581.581 0 1 1 1.163 0 .581.581 0 0 1-1.163 0zm-1.81-6.159 1.115-.323 1.834 6.32-1.115.324zm3.403 12.557a.581.581 0 1 1 1.162 0 .581.581 0 0 1-1.162 0zm-1.575-6.258 1.127-.28 1.593 6.398-1.128.281zm4.523 19.13a.583.583 0 1 1 1.166 0 .583.583 0 0 1-1.166 0zm-2.933-12.742 1.133-.26 2.952 12.871-1.137.261zm4.534 19.135a.584.584 0 1 1 1.168 0 .584.584 0 0 1-1.168 0zm-1.583-6.252 1.132-.283 1.602 6.393-1.133.284zm3.431 12.564a.586.586 0 1 1 1.171 0 .586.586 0 0 1-1.171 0zm-1.824-6.148 1.121-.328 1.85 6.31-1.124.33zm3.938 12.228a.586.586 0 1 1 1.171 0 .586.586 0 0 1-1.17 0zm-2.082-5.888 1.106-.385 2.115 6.081-1.106.385zm4.534 11.817a.586.586 0 1 1 1.171 0 .586.586 0 0 1-1.171 0zm-2.408-5.705 1.083-.447 2.452 5.928-1.082.447zm5.288 11.43a.585.585 0 1 1 1.17 0 .585.585 0 0 1-1.17 0zm-2.817-5.463 1.046-.526 2.88 5.726-1.047.526zm4.445 8.234a.585.585 0 1 1 1.171 0 .585.585 0 0 1-1.17 0zm-1.547-2.474 1.01-.594 1.627 2.77-1.01.594zm3.316 5.175a.585.585 0 1 1 1.17 0 .585.585 0 0 1-1.17 0zm-1.673-2.381.979-.641 1.769 2.701-.98.642zm5.152 7.216a.585.585 0 1 1 1.17 0 .585.585 0 0 1-1.17 0zm-3.369-4.493.95-.684 3.479 4.835-.95.683zm7.158 9.267a.584.584 0 1 1 1.169 0 .584.584 0 0 1-1.169 0zm-3.662-4.41.916-.728 3.788 4.775-.915.726zm7.776 8.972a.583.583 0 1 1 1.165 0 .583.583 0 0 1-1.165 0zm-3.963-4.172.868-.781 4.111 4.564-.866.78zm8.416 8.375a.582.582 0 1 1 1.164 0 .582.582 0 0 1-1.164 0zm-4.27-3.778.8-.848 4.451 4.204-.798.845zm6.629 5.698a.58.58 0 1 1 1.16-.001.58.58 0 0 1-1.16 0zm-2.144-1.468.734-.902 2.357 1.92-.733.9zm4.593 3.242a.58.58 0 1 1 1.16 0 .58.58 0 0 1-1.16 0zm-2.209-1.303.682-.942 2.448 1.774-.68.94zm4.751 2.91a.58.58 0 1 1 1.16 0 .58.58 0 0 1-1.16 0zm-2.272-1.118.62-.98 2.542 1.609-.62.98zm4.909 2.543a.58.58 0 1 1 1.158 0 .58.58 0 0 1-1.159 0zm-2.333-.915.551-1.02 2.636 1.425-.55 1.02zm5.065 2.137a.578.578 0 1 1 1.157 0 .578.578 0 0 1-1.157 0zm-2.39-.694.473-1.056 2.732 1.222-.472 1.056zm5.221 1.695a.578.578 0 1 1 1.156 0 .578.578 0 0 1-1.156 0zm-2.445-.456.385-1.09 2.831 1.001-.386 1.09zm5.377 1.218a.577.577 0 1 1 1.154-.001.577.577 0 0 1-1.154 0zm-2.5-.203.292-1.118 2.93.762-.29 1.117zm5.533.705a.576.576 0 1 1 1.153 0 .576.576 0 0 1-1.153 0zm-2.55.067.188-1.14 3.033.504-.188 1.139zm4.672.12a.575.575 0 1 1 1.15 0 .575.575 0 0 1-1.15 0zm-1.595.388.1-1.15 2.122.189-.101 1.145zm3.676-.348a.573.573 0 1 1 1.146 0 .573.573 0 0 1-1.146 0zm-1.516.534.022-1.15 2.079.043-.023 1.146zm3.557-.651a.571.571 0 1 1 1.142 0 .571.571 0 0 1-1.142 0zm-1.435.689-.065-1.145 2.039-.115.065 1.142zm3.436-.975a.571.571 0 1 1 1.142 0 .571.571 0 0 1-1.142 0zm-1.349.851-.161-1.131 2-.285.162 1.13zm3.316-1.317a.57.57 0 1 1 1.139 0 .57.57 0 0 1-1.14 0zm-1.264 1.021-.263-1.11 1.965-.466.263 1.109zm3.196-1.68a.569.569 0 1 1 1.137 0 .569.569 0 0 1-1.137 0zm-1.18 1.198-.366-1.079 1.931-.657.368 1.077zm3.081-2.06a.568.568 0 1 1 1.136 0 .568.568 0 0 1-1.136 0zm-1.097 1.38-.47-1.036 1.9-.862.47 1.035zm2.967-2.457a.568.568 0 1 1 1.137-.001.568.568 0 0 1-1.137 0zm-1.018 1.57-.568-.986 1.872-1.077.566.984zm4.32-4.043a.566.566 0 1 1 1.134 0 .566.566 0 0 1-1.133 0zm-2.393 2.927-.68-.91 3.301-2.471.68.907zm5.319-5.81a.565.565 0 1 1 1.13 0 .565.565 0 0 1-1.13 0zm-1.96 3.286-.797-.807 2.925-2.881.793.804zm4.547-6.506a.564.564 0 1 1 1.127 0 .564.564 0 0 1-1.127 0zm-1.582 3.574-.88-.708 2.587-3.219.877.706zm3.873-7.06a.561.561 0 1 1 1.123.001.561.561 0 0 1-1.123 0zm-1.257 3.795-.94-.618 2.29-3.484.938.616zm3.292-7.471a.56.56 0 1 1 1.12 0 .56.56 0 0 1-1.12 0zm-.982 3.948-.983-.543 2.035-3.676.98.541zm2.8-7.746a.56.56 0 1 1 1.119.001.56.56 0 0 1-1.119 0zm-.753 4.039-1.01-.483 1.818-3.797 1.008.483zm2.396-7.883a.559.559 0 1 1 1.117 0 .559.559 0 0 1-1.117 0zm-.57 4.064-1.028-.44 1.643-3.843 1.027.439zm2.077-7.883a.559.559 0 1 1 1.118 0 .559.559 0 0 1-1.118 0zm-.43 4.024-1.038-.41 1.507-3.819 1.04.41zm1.702-7.546a.559.559 0 1 1 1.118 0 .559.559 0 0 1-1.118 0zm-.187 3.712-1.052-.38 1.272-3.522 1.052.38zm1.342-7.298a.559.559 0 1 1 1.118 0 .559.559 0 0 1-1.118 0zm-.064 3.757-1.064-.342 1.155-3.586 1.064.342zm2.132-11.064a.56.56 0 1 1 1.118.001.56.56 0 0 1-1.118 0zm-.971 7.46-1.076-.305 2.068-7.307 1.075.305zm2.9-14.851a.558.558 0 1 1 1.116-.002.558.558 0 0 1-1.116.002zm-.83 7.532-1.081-.282 1.929-7.392 1.08.282zm2.84-14.9a.558.558 0 1 1 1.115 0 .558.558 0 0 1-1.116 0zm-.913 7.514-1.077-.294 2.009-7.367 1.077.294zm3.22-14.742a.558.558 0 1 1 1.117 0 .558.558 0 0 1-1.116 0zm-1.218 7.399-1.064-.34 2.309-7.23 1.064.34zm2.555-10.927a.558.558 0 1 1 1.115 0 .558.558 0 0 1-1.115 0zm-.256 3.725-1.044-.395 1.336-3.528 1.043.396zm1.748-7.176a.558.558 0 1 1 1.116 0 .558.558 0 0 1-1.116 0zm-.422 3.673-1.025-.444 1.493-3.451 1.024.443zm2.099-7.034a.558.558 0 1 1 1.117.001.558.558 0 0 1-1.117 0zm-.62 3.61-.998-.499 1.677-3.36.998.498zm2.51-6.866a.558.558 0 1 1 1.116 0 .558.558 0 0 1-1.116 0zm-.849 3.536-.965-.56 1.889-3.256.966.56zm2.978-6.673a.559.559 0 1 1 1.117 0 .559.559 0 0 1-1.118 0zm-1.109 3.45-.924-.626 2.13-3.138.923.627zm3.505-6.455a.559.559 0 1 1 1.117 0 .559.559 0 0 1-1.117 0zm-1.401 3.353-.873-.697 2.396-3.005.873.697zm4.558-6.732a.559.559 0 1 1 1.118 0 .559.559 0 0 1-1.118 0zm-2.19 3.76-.816-.763 3.157-3.378.816.763zm5.622-6.93a.559.559 0 1 1 1.118 0 .559.559 0 0 1-1.118 0zm-2.494 3.58-.758-.82 3.432-3.17.758.822zm6.166-6.52a.559.559 0 1 1 1.118-.002.559.559 0 0 1-1.118.001zm-2.763 3.377-.7-.872 3.672-2.942.7.873zm6.64-6.073a.56.56 0 1 1 1.119 0 .56.56 0 0 1-1.119 0zm-3 3.154-.637-.918 3.877-2.696.639.919zm7.048-5.585a.56.56 0 1 1 1.12 0 .56.56 0 0 1-1.12 0zm-3.2 2.91-.576-.96 4.048-2.43.576.96zm7.386-5.057a.558.558 0 1 1 1.116-.001.558.558 0 0 1-1.116 0zm-3.371 2.644-.51-.995 4.184-2.147.511.996zm7.657-4.488a.558.558 0 1 1 1.116-.002.558.558 0 0 1-1.116.002zm-3.507 2.358-.441-1.028 4.285-1.844.443 1.026zm7.86-3.882a.558.558 0 1 1 1.116 0 .558.558 0 0 1-1.115 0zm-3.61 2.05-.369-1.054 4.353-1.523.369 1.054zm7.503-3.077a.558.558 0 1 1 1.115 0 .558.558 0 0 1-1.115 0zm-3.192 1.567-.285-1.08 3.892-1.026.285 1.079zm7.16-2.25a.558.558 0 1 1 1.115 0 .558.558 0 0 1-1.115 0zm-3.315 1.233-.19-1.1 3.968-.683.189 1.1zm7.32-1.555a.558.558 0 1 1 1.117 0 .558.558 0 0 1-1.117 0zm-3.403.878-.09-1.112 4.006-.321.09 1.112zm7.407-.817a.558.558 0 1 1 1.117 0 .558.558 0 0 1-1.117 0zm-3.455.497.018-1.115 4.004.06-.017 1.115zm7.42-.036a.558.558 0 1 1 1.116 0 .558.558 0 0 1-1.116 0zm-3.471.093.128-1.109 3.966.462-.13 1.108zm7.358.788a.558.558 0 1 1 1.116 0 .558.558 0 0 1-1.116 0zm-3.452-.338.247-1.088 3.887.882-.247 1.088zm7.224 1.659a.559.559 0 1 1 1.117 0 .559.559 0 0 1-1.117 0zm-3.398-.794.369-1.054 3.772 1.32-.37 1.054zm7.015 2.573a.558.558 0 1 1 1.115 0 .558.558 0 0 1-1.115 0zm-3.306-1.279.493-1.001 3.617 1.78-.493 1zm7.284 3.804a.56.56 0 1 1 1.119 0 .56.56 0 0 1-1.119 0zm-3.72-2.054.599-.942 3.98 2.524-.6.944zm7.508 4.954a.56.56 0 1 1 1.122 0 .56.56 0 0 1-1.122 0zm-3.569-2.456.68-.888 3.79 2.899-.68.89zm7.141 5.687a.561.561 0 1 1 1.122 0 .561.561 0 0 1-1.122 0zm-3.387-2.816.752-.831 3.572 3.23-.752.832zm6.713 6.335a.561.561 0 1 1 1.122-.001.561.561 0 0 1-1.123 0zm-3.173-3.134.815-.771 3.327 3.519-.816.771zm6.225 6.896a.562.562 0 1 1 1.124 0 .562.562 0 0 1-1.124 0zm-2.927-3.41.872-.706 3.053 3.762-.873.708zm5.679 7.374a.561.561 0 1 1 1.123 0 .561.561 0 0 1-1.123 0zm-2.651-3.644.923-.64 2.75 3.964-.922.64zm5.072 7.765a.562.562 0 1 1 1.124 0 .562.562 0 0 1-1.123 0zm-2.344-3.836.969-.57 2.422 4.121-.969.57zm4.41 8.07a.561.561 0 1 1 1.123 0 .561.561 0 0 1-1.122 0zm-2.008-3.988 1.01-.493 2.065 4.236-1.01.492zm3.914 8.745a.56.56 0 1 1 1.119 0 .56.56 0 0 1-1.12 0zm-1.865-4.548 1.042-.417 1.902 4.757-1.04.417zm3.462 9.434a.559.559 0 1 1 1.117 0 .559.559 0 0 1-1.118 0zm-1.57-4.712 1.064-.347 1.594 4.885-1.061.347zm2.853 9.7a.557.557 0 1 1 1.114-.001.557.557 0 0 1-1.113.001zm-1.266-4.85 1.081-.278 1.282 4.99-1.08.277zm2.233 9.915a.557.557 0 1 1 1.114.001.557.557 0 0 1-1.114 0zm-.957-4.96 1.095-.21.965 5.066-1.093.209zm1.603 10.079a.555.555 0 1 1 1.11-.001.555.555 0 0 1-1.11 0zm-.641-5.049 1.104-.138.643 5.117-1.101.138zm.96 10.193a.555.555 0 1 1 1.11 0 .555.555 0 0 1-1.11 0zm-.318-5.11 1.109-.069.318 5.144-1.108.07zm.308 10.255a.554.554 0 1 1 1.109 0 .554.554 0 0 1-1.109 0zm.01-5.147 1.11.002-.012 5.146-1.108-.003zm-.356 10.267a.554.554 0 1 1 1.107 0 .554.554 0 0 1-1.107 0zm.347-5.158 1.106.075-.346 5.12-1.105-.074zm-.835 8.894a.546.546 0 1 1 1.092 0 .546.546 0 0 1-1.092 0zm.493-3.807 1.098.145-.503 3.735-1.084-.144zm-1.214 7.52a.54.54 0 1 1 1.08 0 .54.54 0 0 1-1.08 0zm.73-3.817 1.074.21-.733 3.712-1.061-.208zm-1.678 7.493a.536.536 0 1 1 1.071 0 .536.536 0 0 1-1.072 0zm.965-3.81 1.047.271-.959 3.674-1.036-.269zm-2.135 7.432a.532.532 0 1 1 1.063 0 .532.532 0 0 1-1.063 0zm1.196-3.786 1.019.33-1.178 3.62-1.012-.328zm-2.582 7.337a.529.529 0 1 1 1.057 0 .529.529 0 0 1-1.057 0zm1.422-3.745.991.388-1.391 3.55-.986-.385zm-3.018 7.211a.526.526 0 1 1 1.053-.001.526.526 0 0 1-1.053.001zm1.644-3.688.961.444-1.599 3.465-.958-.441zm-3.445 7.053a.525.525 0 1 1 1.051 0 .525.525 0 0 1-1.05 0zm1.863-3.614.93.498-1.803 3.364-.927-.496zm-3.861 6.86a.525.525 0 1 1 1.05 0 .525.525 0 0 1-1.05 0zm2.076-3.522.896.551-2 3.248-.894-.552zm-4.269 6.637a.525.525 0 1 1 1.05 0 .525.525 0 0 1-1.05 0zm2.288-3.417.859.605-2.192 3.114-.86-.604zm-4.667 6.382a.525.525 0 1 1 1.05 0 .525.525 0 0 1-1.05 0zm2.495-3.294.819.658-2.38 2.964-.819-.657zm-5.056 6.095a.526.526 0 1 1 1.051 0 .526.526 0 0 1-1.051 0zm2.699-3.156.774.71-2.56 2.8-.776-.71zm-5.436 5.775a.526.526 0 1 1 1.052 0 .526.526 0 0 1-1.052 0zm2.899-2.999.727.759-2.736 2.62-.728-.76zm-5.807 5.422a.527.527 0 1 1 1.054.001.527.527 0 0 1-1.054 0zm3.097-2.827.674.808-2.906 2.424-.675-.81zm-6.168 5.039a.527.527 0 1 1 1.054-.001.527.527 0 0 1-1.054 0zm3.29-2.639.616.855-3.07 2.212-.617-.856zm-6.521 4.621a.528.528 0 1 1 1.055.001.528.528 0 0 1-1.055 0zm3.482-2.432.552.899-3.23 1.983-.552-.899zm-6.866 4.172a.527.527 0 1 1 1.054 0 .527.527 0 0 1-1.054 0zm3.67-2.209.483.939-3.385 1.74-.482-.94zm-6.692 3.463a.529.529 0 1 1 1.057 0 .529.529 0 0 1-1.057 0zm3.347-1.742.405.975-3.02 1.255-.406-.977zm-6.407 2.706a.53.53 0 1 1 1.059 0 .53.53 0 0 1-1.059 0zm3.43-1.469.318 1.009-3.059.965-.318-1.01zm-6.52 2.142a.53.53 0 1 1 1.059 0 .53.53 0 0 1-1.059 0zm3.507-1.19.225 1.035-3.09.673-.225-1.036zm-6.622 1.567a.53.53 0 1 1 1.06 0 .53.53 0 0 1-1.06 0zm3.58-.903.128 1.052-3.115.377-.127-1.052zm-6.711.983a.53.53 0 1 1 1.059 0 .53.53 0 0 1-1.059 0zm3.647-.61.027 1.06-3.131.08-.027-1.06zm-6.789.388a.53.53 0 1 1 1.06 0 .53.53 0 0 1-1.06 0zm3.709-.306-.074 1.056-3.142-.22.074-1.058zm-6.853-.218a.531.531 0 1 1 1.062 0 .531.531 0 0 1-1.062 0zm3.762.002-.174 1.045-3.145-.523.175-1.047zm-6.904-.833a.533.533 0 1 1 1.065 0 .533.533 0 0 1-1.065 0zm3.808.318-.271 1.026-3.14-.828.272-1.031zm-6.98-1.409a.533.533 0 1 1 1.067 0 .533.533 0 0 1-1.066 0zm3.878.587-.346 1.008-3.171-1.09.347-1.01zm-7.024-1.809a.535.535 0 1 1 1.07 0 .535.535 0 0 1-1.07 0zm3.873.725-.386.995-3.145-1.221.388-.998zm-10.156-3.28a.54.54 0 1 1 1.079 0 .54.54 0 0 1-1.079 0zm7.02 2.06-.403.991-6.281-2.551.407-1zm-10.19-3.251a.542.542 0 1 1 1.084.001.542.542 0 0 1-1.084-.001zm3.899.686-.38 1.01-3.168-1.189.382-1.013zm-7.11-1.724a.543.543 0 1 1 1.086 0 .543.543 0 0 1-1.085 0zm3.92.523-.334 1.031-3.21-1.037.335-1.034zm-7.187-1.338a.544.544 0 1 1 1.089 0 .544.544 0 0 1-1.089 0zm3.943.288-.264 1.054-3.267-.814.265-1.056zm-7.284-.809a.545.545 0 1 1 1.09 0 .545.545 0 0 1-1.09 0zm3.97-.017-.168 1.076-3.341-.52.168-1.077zm-7.882-.323a.545.545 0 1 1 1.09-.001.545.545 0 0 1-1.09 0zm4.504-.203-.094 1.086-3.912-.34.094-1.087zm-8.444.04a.546.546 0 1 1 1.092 0 .546.546 0 0 1-1.092 0zm4.507-.382-.045 1.09-3.938-.163.044-1.09zm-8.426.485a.546.546 0 1 1 1.092 0 .546.546 0 0 1-1.092 0zm4.45-.648.03 1.091-3.92.103-.028-1.092zm-8.3 1.1a.546.546 0 1 1 1.093 0 .546.546 0 0 1-1.093 0zm4.332-.995.128 1.085-3.85.453-.127-1.085zm-6.614 1.526a.544.544 0 1 1 1.089 0 .544.544 0 0 1-1.089 0zm2.705-1.063.246 1.064-2.285.528-.246-1.058zm-4.86 1.831a.54.54 0 1 1 1.082 0 .54.54 0 0 1-1.082 0zm2.516-1.28.364 1.023-2.158.767-.363-1.02zm-4.542 2.269a.538.538 0 1 1 1.077 0 .538.538 0 0 1-1.077 0zm2.33-1.474.474.972-2.03.986-.472-.967zm-4.225 2.665a.536.536 0 1 1 1.073 0 .536.536 0 0 1-1.072 0zm2.147-1.647.572.912-1.898 1.189-.57-.908zm-3.907 3.021a.534.534 0 1 1 1.069 0 .534.534 0 0 1-1.069 0zm1.967-1.797.659.846-1.764 1.373-.656-.843zm-3.59 3.339a.532.532 0 1 1 1.063 0 .532.532 0 0 1-1.063 0zm1.79-1.929.734.775-1.627 1.54-.732-.772zm-3.275 3.618a.53.53 0 1 1 1.06 0 .53.53 0 0 1-1.06 0zm1.616-2.04.8.702-1.489 1.688-.796-.7zm-2.96 3.86a.528.528 0 1 1 1.056 0 .528.528 0 0 1-1.056 0zm1.447-2.135.853.631-1.346 1.819-.851-.629zm-2.647 4.067a.527.527 0 1 1 1.055.001.527.527 0 0 1-1.055 0zm1.28-2.21.897.557-1.202 1.932-.895-.557zm-2.334 4.237a.526.526 0 1 1 1.052.001.526.526 0 0 1-1.052-.001zm1.113-2.27.936.487-1.057 2.026-.932-.485zm-2.017 4.374a.524.524 0 1 1 1.049 0 .524.524 0 0 1-1.049 0zm.947-2.311.965.416-.907 2.102-.962-.414zm-1.7 4.473a.523.523 0 1 1 1.045 0 .523.523 0 0 1-1.046 0zm.782-2.335.99.346-.757 2.161-.987-.344zm-1.383 4.538a.521.521 0 1 1 1.042 0 .521.521 0 0 1-1.042 0zm.619-2.34 1.008.275-.603 2.202-1.005-.274zm-1.063 4.565a.52.52 0 1 1 1.041.001.52.52 0 0 1-1.04-.001zm.455-2.327 1.022.204-.447 2.226-1.02-.204zm-.74 4.558a.518.518 0 1 1 1.037 0 .518.518 0 0 1-1.037 0zm.29-2.297 1.031.133-.289 2.23-1.028-.132zm-.414 4.514a.516.516 0 1 1 1.032 0 .516.516 0 0 1-1.032 0zm.125-2.246 1.035.059-.127 2.216-1.033-.058zm-.137 4.384a.515.515 0 1 1 1.03 0 .515.515 0 0 1-1.03 0zm.012-2.14 1.033.005-.014 2.138-1.03-.006zm.08 4.279a.513.513 0 1 1 1.027 0 .513.513 0 0 1-1.027 0zm-.09-2.117 1.029-.042.087 2.138-1.026.042zm.341 4.248a.51.51 0 1 1 1.022 0 .51.51 0 0 1-1.022 0zm-.248-2.071 1.02-.12.247 2.133-1.016.118zm.718 4.19a.51.51 0 1 1 1.018 0 .51.51 0 0 1-1.018 0zm-.458-2.008.998-.22.467 2.12-.995.219zm2.117 6.91a.51.51 0 1 1 1.018 0 .51.51 0 0 1-1.018 0zm-1.632-4.738.965-.327 1.658 4.902-.964.326zm3.73 9.465a.51.51 0 1 1 1.018 0 .51.51 0 0 1-1.018 0zm-2.055-4.52.931-.413 2.098 4.727-.93.413zm4.518 9.091a.508.508 0 1 1 1.016 0 .508.508 0 0 1-1.016 0zm-2.402-4.33.896-.482 2.462 4.572-.895.481zm5.153 8.765a.507.507 0 1 1 1.015 0 .507.507 0 0 1-1.015 0zm-2.675-4.167.864-.535 2.75 4.435-.862.535zm5.64 8.486a.505.505 0 1 1 1.01 0 .505.505 0 0 1-1.01 0zm-2.875-4.031.836-.574 2.96 4.319-.833.572zm5.977 8.25a.503.503 0 1 1 1.006.002.503.503 0 0 1-1.006-.002zm-3.004-3.92.815-.599 3.097 4.221-.81.596zm9.32 12.142a.495.495 0 1 1 .99 0 .495.495 0 0 1-.99 0zm-6.212-7.915.798-.613 6.303 8.228-.786.603zm16.06 20.486a.494.494 0 1 1 .989 0 .494.494 0 0 1-.988 0zm-9.743-12.264.78-.612 9.846 12.572-.777.609zm14.639 18.588a.495.495 0 1 1 .991 0 .495.495 0 0 1-.991 0zm-4.792-6.022.781-.604 4.898 6.323-.784.606zm9.549 12.446a.493.493 0 1 1 .985 0 .493.493 0 0 1-.986 0zm-4.66-6.13.796-.588 4.752 6.425-.792.586zm8.038 11.31a.483.483 0 1 1 .967 0 .483.483 0 0 1-.967 0zm-3.298-4.91.825-.538 3.362 5.185-.81.526zm6.243 10.453a.468.468 0 1 1 .936 0 .468.468 0 0 1-.936 0zm-2.888-5.317.854-.452 2.917 5.551-.828.438zm4.16 8.19a.46.46 0 1 1 .922-.001.46.46 0 0 1-.921 0zm-1.232-2.683.858-.378 1.259 2.875-.846.373zm2.351 5.604a.457.457 0 1 1 .914 0 .457.457 0 0 1-.913 0zm-1.089-2.756.864-.33 1.109 2.923-.854.326zm2.041 5.71a.454.454 0 1 1 .908 0 .454.454 0 0 1-.908 0zm-.93-2.815.87-.279.947 2.956-.865.277zm1.7 5.79a.455.455 0 1 1 .91 0 .455.455 0 0 1-.91 0zm-.755-2.861.879-.228.77 2.974-.88.228zm1.324 6.011a.457.457 0 1 1 .914 0 .457.457 0 0 1-.914 0zm-.563-3.07.896-.162.573 3.15-.899.163zm.856 6.218a.457.457 0 1 1 .914-.002.457.457 0 0 1-.914.002zm-.29-3.106.908-.085.293 3.148-.91.085zm.316 6.238a.456.456 0 1 1 .911 0 .456.456 0 0 1-.911 0zm-.026-3.128.914-.008.023 3.133-.911.007zm-.206 6.234a.453.453 0 1 1 .906 0 .453.453 0 0 1-.906 0zm.233-3.14.909.069-.237 3.105-.904-.067zm-.713 6.207a.45.45 0 1 1 .901 0 .45.45 0 0 1-.901 0zm.485-3.137.896.14-.486 3.067-.89-.14zm-1.203 6.153a.447.447 0 1 1 .893-.001.447.447 0 0 1-.893 0zm.73-3.12.876.209-.725 3.015-.869-.208zm-1.676 6.072a.442.442 0 1 1 .884 0 .442.442 0 0 1-.884 0zm.967-3.089.85.274-.953 2.951-.843-.271zm-2.133 5.966a.44.44 0 1 1 .88 0 .44.44 0 0 1-.88 0zm1.198-3.043.82.333-1.172 2.876-.814-.33zm-2.572 5.834a.436.436 0 1 1 .87 0 .436.436 0 0 1-.87 0zm1.42-2.985.787.39-1.381 2.788-.781-.386zm-2.995 5.675a.433.433 0 1 1 .866.001.433.433 0 0 1-.866 0zm1.635-2.91.751.44-1.579 2.69-.748-.438zm-3.399 5.49a.432.432 0 1 1 .864 0 .432.432 0 0 1-.864 0zm1.84-2.824.715.49-1.767 2.577-.712-.486zm-3.784 5.28a.431.431 0 1 1 .863 0 .431.431 0 0 1-.863 0zm2.037-2.724.677.535-1.945 2.457-.676-.536zm-4.152 5.044a.432.432 0 1 1 .864 0 .432.432 0 0 1-.864 0zm2.228-2.61.637.58-2.113 2.322-.639-.582zm-4.503 4.783a.435.435 0 1 1 .87 0 .435.435 0 0 1-.87 0zm2.41-2.485.596.625-2.27 2.174-.602-.628zm-4.837 4.498a.44.44 0 1 1 .88.001.44.44 0 0 1-.88 0zm2.584-2.347.556.668-2.419 2.018-.562-.677zm-5.153 4.19a.447.447 0 1 1 .895-.001.447.447 0 0 1-.895 0zm2.753-2.2.513.714-2.557 1.848-.522-.726zm-5.45 3.895a.45.45 0 1 1 .9 0 .45.45 0 0 1-.9 0zm2.906-2.075.477.757-2.693 1.698-.48-.762zm-5.683 3.613a.452.452 0 1 1 .904 0 .452.452 0 0 1-.904 0zm3.009-1.933.436.788-2.773 1.54-.438-.79zm-5.86 3.302a.453.453 0 1 1 .906 0 .453.453 0 0 1-.906 0zm3.108-1.776.392.815-2.85 1.37-.393-.818zm-6.031 2.961a.454.454 0 1 1 .907 0 .454.454 0 0 1-.907 0zm3.207-1.605.34.84-2.923 1.186-.341-.842zm-6.2 2.593a.454.454 0 1 1 .908 0 .454.454 0 0 1-.909 0zm3.305-1.42.284.863-2.993.988-.285-.863zm-6.366 2.196a.455.455 0 1 1 .911 0 .455.455 0 0 1-.91 0zm3.403-1.217.224.881-3.059.778-.224-.884zm-6.527 1.77a.457.457 0 1 1 .915 0 .457.457 0 0 1-.915 0zm3.5-1.002.16.897-3.123.555-.16-.901zm-6.685 1.316a.46.46 0 1 1 .92 0 .46.46 0 0 1-.92 0zm3.598-.77.09.911-3.182.317-.091-.916zm-6.721.884a.462.462 0 1 1 .924 0 .462.462 0 0 1-.924 0zm3.567-.574.033.92-3.121.116-.034-.924zm-6.659.534a.467.467 0 1 1 .935 0 .467.467 0 0 1-.935 0zm3.561-.422-.013.925-3.087-.037.013-.934zm-6.619.21a.474.474 0 1 1 .948 0 .474.474 0 0 1-.948 0zm3.558-.254-.064.931-3.052-.205.066-.945zm-6.578-.147a.482.482 0 1 1 .963 0 .482.482 0 0 1-.963 0zm3.557-.07-.124.94-3.014-.393.127-.954zm-6.538-.535a.49.49 0 1 1 .978 0 .49.49 0 0 1-.978 0zm3.56.133-.193.944-2.974-.597.195-.958zm-6.498-.957a.496.496 0 1 1 .992 0 .496.496 0 0 1-.992 0zm3.561.354-.265.942-2.933-.818.269-.955zm-6.454-1.415a.502.502 0 1 1 1.004.001.502.502 0 0 1-1.004 0zm3.56.596-.341.932-2.89-1.057.346-.94zm-6.405-1.909a.504.504 0 1 1 1.009 0 .504.504 0 0 1-1.01 0zm3.557.858-.42.91-2.844-1.31.424-.916zm-6.755-2.613a.506.506 0 1 1 1.012 0 .506.506 0 0 1-1.012 0zm3.945 1.313-.485.885-3.197-1.753.487-.888zm-6.97-3.292a.506.506 0 1 1 1.011 0 .506.506 0 0 1-1.012 0zm3.809 1.555-.555.848-3.026-1.98.555-.847zm-6.636-3.866a.506.506 0 1 1 1.012.001.506.506 0 0 1-1.012 0zm3.653 1.919-.642.784-2.825-2.31.64-.784zm-6.25-4.666a.506.506 0 1 1 1.012 0 .506.506 0 0 1-1.012 0zm3.471 2.4-.735.695-2.598-2.747.736-.695zm-6.372-6.175a.506.506 0 1 1 1.012 0 .506.506 0 0 1-1.012 0zm3.808 3.467-.803.616-2.9-3.775.802-.616zm-6.414-7.528a.504.504 0 1 1 1.009 0 .504.504 0 0 1-1.01 0zm3.537 3.787-.85.547-2.607-4.061.849-.546zm-4.682-5.927a.505.505 0 1 1 1.01 0 .505.505 0 0 1-1.01 0zm2.094 1.901-.89.477-1.144-2.14.89-.476zm-3.106-4.115a.504.504 0 1 1 1.008 0 .504.504 0 0 1-1.008 0zm1.975 2.004-.917.42-1.012-2.214.916-.419zm-2.836-4.292a.504.504 0 1 1 1.008 0 .504.504 0 0 1-1.008 0zm1.837 2.111-.944.355-.861-2.289.943-.355zm-2.527-4.476a.503.503 0 1 1 1.007 0 .503.503 0 0 1-1.007 0zm1.678 2.224-.968.282-.69-2.365.967-.282zm-2.618-6.694a.504.504 0 1 1 1.008 0 .504.504 0 0 1-1.008 0zm1.937 4.367-.987.207-.939-4.47.986-.208zm-2.538-8.868a.504.504 0 1 1 1.009 0 .504.504 0 0 1-1.009 0zm1.605 4.435-1 .132-.6-4.5.999-.133zm-1.865-8.948a.504.504 0 1 1 1.008 0 .504.504 0 0 1-1.008 0zm1.267 4.484-1.006.058-.26-4.514 1.006-.057zm-1.184-8.993a.504.504 0 1 1 1.009 0 .504.504 0 0 1-1.009 0zm.925 4.518-1.008-.019.083-4.509 1.008.019zm-.495-9.005a.504.504 0 1 1 1.008 0 .504.504 0 0 1-1.008 0zm.577 4.535-1.004-.096.43-4.487 1.003.096zm.2-8.983a.504.504 0 1 1 1.01 0 .504.504 0 0 1-1.01 0zm.224 4.535-.994-.173.778-4.449.994.174zm.905-8.926a.504.504 0 1 1 1.01 0 .504.504 0 0 1-1.01 0zm-.135 4.517-.977-.251 1.128-4.391.978.251zm1.618-8.834a.504.504 0 1 1 1.009 0 .504.504 0 0 1-1.009 0zm-.5 4.481-.955-.327 1.483-4.317.954.327zm3.2-10.885a.505.505 0 1 1 1.01 0 .505.505 0 0 1-1.01 0zm-1.73 6.6-.93-.392 2.7-6.403.93.392zm4.568-12.96a.504.504 0 1 1 1.01 0 .504.504 0 0 1-1.01 0zm-1.873 6.567-.922-.412 2.839-6.36.922.411zm3.235-9.77a.504.504 0 1 1 1.01 0 .504.504 0 0 1-1.01 0zm-.392 3.4-.93-.394 1.363-3.203.929.395zm1.657-6.639a.505.505 0 1 1 1.01 0 .505.505 0 0 1-1.01 0zm-.29 3.423-.94-.368 1.264-3.239.942.368zm1.414-6.714a.505.505 0 1 1 1.01 0 .505.505 0 0 1-1.01 0zm-.141 3.454-.956-.327 1.124-3.29.956.326zm1.08-6.813a.506.506 0 1 1 1.011 0 .506.506 0 0 1-1.011 0zm.053 3.495-.973-.272.939-3.36.973.273zm1.146-9.392a.506.506 0 1 1 1.012 0 .506.506 0 0 1-1.012 0zm-.199 5.997-.99-.202 1.2-5.896.99.202zm.953-11.98a.506.506 0 1 1 1.011 0 .506.506 0 0 1-1.011 0zm.253 6.046-1.002-.126.753-5.983 1.002.126zm.074-12.072a.505.505 0 1 1 1.01 0 .505.505 0 0 1-1.01 0zm.683 6.053-1.01-.055.328-6.026 1.01.055zm-.762-12.077a.506.506 0 1 1 1.012 0 .506.506 0 0 1-1.012 0zm1.09 6.018-1.011.012-.079-6.023 1.011-.013zm-1.282-8.534a.506.506 0 1 1 1.012 0 .506.506 0 0 1-1.012 0zm1.202 2.478-1.008.077-.192-2.517 1.01-.076zm-1.549-5.026a.507.507 0 1 1 1.013.001.507.507 0 0 1-1.013 0zm1.355 2.48-1.003.136-.348-2.548 1.005-.136zm-1.859-5.029a.506.506 0 1 1 1.012 0 .506.506 0 0 1-1.012 0zm1.507 2.451-.993.196-.504-2.549.992-.196zm-2.17-4.973a.504.504 0 1 1 1.009-.001.504.504 0 0 1-1.009 0zm1.658 2.393-.979.258-.662-2.523.975-.257zm-2.483-4.86a.503.503 0 1 1 1.005 0 .503.503 0 0 1-1.005 0zm1.807 2.305-.957.321-.824-2.467.953-.319zm-2.794-4.687a.499.499 0 1 1 .997 0 .499.499 0 0 1-.997 0zm1.953 2.188-.928.386-.988-2.383.921-.383zm-3.106-4.457a.493.493 0 1 1 .987 0 .493.493 0 0 1-.987 0zm2.095 2.042-.888.453-1.154-2.271.88-.449zm-3.415-4.168a.487.487 0 1 1 .975 0 .487.487 0 0 1-.975 0zm2.232 1.864-.837.522-1.322-2.13.827-.515zm-4.095-4.06a.486.486 0 1 1 .971 0 .486.486 0 0 1-.97 0zm2.721 1.88-.742.631-1.863-2.197.74-.628zm-4.935-3.65a.485.485 0 1 1 .97 0 .485.485 0 0 1-.97 0zm3.003 1.39-.606.76-2.215-1.771.606-.758zm-5.489-2.742a.485.485 0 1 1 .97 0 .485.485 0 0 1-.97 0zm3.203.926-.463.852-2.486-1.352.462-.851zm-5.884-1.867a.486.486 0 1 1 .972 0 .486.486 0 0 1-.971 0zm3.327.484-.322.915-2.68-.941.322-.916zm-6.123-1.022a.486.486 0 1 1 .972-.001.486.486 0 0 1-.972 0zm3.374.061-.184.953-2.796-.537.184-.955zm-6.21-.204a.487.487 0 1 1 .976 0 .487.487 0 0 1-.975 0zm3.347-.343-.05.972-2.833-.142.049-.974zm-6.14.587a.489.489 0 1 1 .977.001.489.489 0 0 1-.978-.001zm3.24-.73.084.971-2.793.246-.086-.974zm-5.916 1.355a.49.49 0 1 1 .978 0 .49.49 0 0 1-.978 0zm3.053-1.1.222.951-2.675.625-.222-.952zm-5.733 2.178a.49.49 0 1 1 .978 0 .49.49 0 0 1-.978 0zm2.987-1.532.364.908-2.68 1.078-.365-.907zm-5.479 2.977a.49.49 0 1 1 .978 0 .49.49 0 0 1-.978 0zm2.735-1.868.49.846-2.49 1.446-.491-.846zm-5.054 3.615a.49.49 0 1 1 .978 0 .49.49 0 0 1-.978 0zm2.513-2.137.589.781-2.318 1.747-.589-.781zm-4.674 4.118a.49.49 0 1 1 .978 0 .49.49 0 0 1-.978 0zm2.32-2.341.66.72-2.16 1.982-.66-.721zm-4.338 4.49a.49.49 0 1 1 .978 0 .49.49 0 0 1-.978 0zm2.151-2.484.713.67-2.019 2.148-.712-.67zm-4.043 4.733a.49.49 0 1 1 .979 0 .49.49 0 0 1-.978 0zm2.007-2.564.748.629-1.891 2.25-.749-.63zm-5.47 7.1a.488.488 0 1 1 .976 0 .488.488 0 0 1-.977 0zm3.564-4.832.777.593-3.466 4.534-.776-.592zm-7.84 10.899a.486.486 0 1 1 .972 0 .486.486 0 0 1-.972 0zm4.364-6.349.798.562-4.279 6.066-.794-.559zM282.95 278a.485.485 0 1 1 .97-.001.485.485 0 0 1-.97.001zm4.152-6.493.812.532-4.072 6.227-.813-.532zm-8.138 12.778a.488.488 0 1 1 .977 0 .488.488 0 0 1-.977 0zm4.06-6.545.821.52-3.98 6.286-.825-.522zm-8.072 12.788a.49.49 0 1 1 .982 0 .49.49 0 0 1-.981 0zm4.09-6.507.82.527-4.006 6.245-.826-.53zm-11.222 17.371a.497.497 0 1 1 .995 0 .497.497 0 0 1-.995 0zm7.213-11.133.821.538-7.12 10.868-.832-.546zm-14.543 21.914a.495.495 0 1 1 .99 0 .495.495 0 0 1-.99 0zm7.416-11.06.823.559-7.334 10.78-.82-.558zm-11.23 16.343a.493.493 0 1 1 .986-.001.493.493 0 0 1-.986.001zm3.907-5.573.803.58-3.816 5.282-.8-.577zm-7.857 10.743a.491.491 0 1 1 .982 0 .491.491 0 0 1-.982 0zm4.052-5.47.784.6-3.954 5.168-.781-.596zm-8.168 10.497a.49.49 0 1 1 .98 0 .49.49 0 0 1-.98 0zm4.227-5.338.76.622-4.119 5.026-.758-.62zm-8.54 10.19a.49.49 0 1 1 .98-.001.49.49 0 0 1-.98.001zm4.436-5.177.732.65-4.312 4.852-.731-.65zm-7.492 8.257a.489.489 0 1 1 .978 0 .489.489 0 0 1-.977 0zm3.198-3.425.695.69-3.058 3.079-.693-.688zm-6.513 6.352a.488.488 0 1 1 .975-.001.488.488 0 0 1-.975 0zm3.48-3.293.647.732-3.316 2.927-.646-.732zm-7.027 6.014a.49.49 0 1 1 .978 0 .49.49 0 0 1-.978 0zm3.737-3.109.595.775-3.545 2.722-.596-.775zm-7.484 5.574a.49.49 0 1 1 .979 0 .49.49 0 0 1-.979 0zm3.968-2.873.537.817-3.746 2.466-.538-.82zm-7.887 5.029a.492.492 0 1 1 .984.001.492.492 0 0 1-.984-.002zm4.173-2.585.472.858-3.916 2.157-.475-.861zm-8.234 4.38a.493.493 0 1 1 .986 0 .493.493 0 0 1-.986 0zm4.354-2.245.397.9-4.058 1.796-.399-.903zm-8.528 3.627a.496.496 0 1 1 .992 0 .496.496 0 0 1-.992 0zm4.512-1.85.31.936-4.17 1.384-.311-.942zm-8.768 2.766a.499.499 0 1 1 .998 0 .499.499 0 0 1-.998 0zm4.649-1.402.208.97-4.253.92-.21-.975zm-6.89 1.681a.5.5 0 1 1 .998 0 .5.5 0 0 1-.999 0zm2.678-.774.123.99-2.24.28-.125-.991zm-4.974.91a.5.5 0 1 1 1-.001.5.5 0 0 1-1 .001zm2.765-.634.059.996-2.294.137-.06-.998zm-5.058.603a.5.5 0 1 1 1-.001.5.5 0 0 1-1 .001zm2.8-.469-.013 1-2.294-.03.014-1.002zm-5.039.245a.502.502 0 1 1 1.003.002.502.502 0 0 1-1.003-.001zm2.789-.274-.1.996-2.237-.223.1-.996zm-5.058-.323a.5.5 0 1 1 1.002 0 .5.5 0 0 1-1.002 0zm2.898.113-.255.97-2.27-.597.257-.97zm-5.009-1.15a.502.502 0 1 1 1.003 0 .502.502 0 0 1-1.003 0zm2.834.588-.442.9-2.111-1.038.442-.9zm-4.776-1.985a.502.502 0 1 1 1.005 0 .502.502 0 0 1-1.005 0zm2.737.99-.586.815-1.942-1.398.587-.815zm-4.5-2.666a.503.503 0 1 1 1.006-.001.503.503 0 0 1-1.005 0zm2.611 1.312-.692.728-1.762-1.676.694-.729zm-4.182-3.187a.504.504 0 1 1 1.008 0 .504.504 0 0 1-1.008 0zm2.46 1.552-.77.646-1.573-1.874.773-.647zm-3.83-3.543a.504.504 0 1 1 1.008 0 .504.504 0 0 1-1.008 0zm2.289 1.706-.83.57-1.37-1.99.83-.572zm-3.447-3.735a.505.505 0 1 1 1.01.001.505.505 0 0 1-1.01 0zm2.1 1.779-.876.5-1.158-2.028.878-.5zm-3.035-3.762a.506.506 0 1 1 1.011 0 .506.506 0 0 1-1.011 0zm1.897 1.768-.914.43-.935-1.982.915-.431zm-2.95-4.81a.507.507 0 1 1 1.014 0 .507.507 0 0 1-1.013 0zm2.036 2.877-.955.33-1.053-3.041.957-.331zm-2.645-5.949a.506.506 0 1 1 1.012.001.506.506 0 0 1-1.012 0zm1.612 2.973-.993.197-.61-3.07.994-.198zm-1.797-6.045a.506.506 0 1 1 1.013 0 .506.506 0 0 1-1.013 0zm1.196 3.043-1.01.06-.185-3.073 1.01-.061zm-.972-6.093a.507.507 0 1 1 1.013 0 .507.507 0 0 1-1.013 0zm.787 3.087-1.01-.075.224-3.05 1.01.075zm-.172-6.086a.507.507 0 1 1 1.015 0 .507.507 0 0 1-1.015 0zm.388 3.101-.993-.204.616-2.999.993.204zm.602-6.024a.508.508 0 1 1 1.015 0 .508.508 0 0 1-1.015 0zm-.002 3.086-.961-.326.99-2.923.962.326zm1.35-5.906a.51.51 0 1 1 1.018 0 .51.51 0 0 1-1.018 0zm-.382 3.04-.916-.44 1.347-2.82.919.44zm2.07-5.731a.511.511 0 1 1 1.022 0 .511.511 0 0 1-1.022 0zm-.748 2.962-.863-.542 1.689-2.692.866.544zm2.955-5.742a.511.511 0 1 1 1.023 0 .511.511 0 0 1-1.023 0zm-1.296 3.098-.8-.636 2.207-2.78.801.636zm3.776-5.662a.512.512 0 1 1 1.024.001.512.512 0 0 1-1.024-.001zm-1.6 2.92-.737-.711 2.48-2.565.737.712zm4.301-5.293a.512.512 0 1 1 1.024-.001.512.512 0 0 1-1.024 0zm-1.852 2.757-.675-.768 2.701-2.374.676.769zm4.722-4.967a.512.512 0 1 1 1.024 0 .512.512 0 0 1-1.024 0zm-2.046 2.615-.624-.811 2.87-2.21.625.812zm8.085-6.644a.513.513 0 1 1 1.025-.001.513.513 0 0 1-1.025 0zm-5.243 4.455-.568-.852 6.039-4.03.569.852zm11.331-8.14a.515.515 0 1 1 1.03 0 .515.515 0 0 1-1.03 0zm-5.31 4.123-.53-.878 6.088-3.685.534.88zm11.822-7.71a.517.517 0 1 1 1.033 0 .517.517 0 0 1-1.033 0zm-5.748 4.038-.498-.902 6.514-3.589.498.905zm12.445-7.275a.518.518 0 1 1 1.035 0 .518.518 0 0 1-1.035 0zm-5.956 3.702-.45-.93 6.699-3.238.45.931zm12.73-6.777a.519.519 0 1 1 1.037-.001.519.519 0 0 1-1.037 0zm-6.042 3.546-.428-.942 6.773-3.077.43.944zm12.779-6.649a.521.521 0 1 1 1.042 0 .521.521 0 0 1-1.042 0zm-6.002 3.574-.434-.943 6.74-3.104.434.947zm11.994-6.702a.522.522 0 1 1 1.044 0 .522.522 0 0 1-1.044 0zm-5.23 3.59-.482-.924 5.993-3.128.483.925zm8.099-5.355a.522.522 0 1 1 1.044 0 .522.522 0 0 1-1.044 0zm-2.073 2.21-.547-.89 2.868-1.765.548.89zm4.8-4.13a.523.523 0 1 1 1.045 0 .523.523 0 0 1-1.046 0zm-1.904 2.347-.602-.854 2.727-1.92.602.855zm3.98-4.192a.523.523 0 1 1 1.046 0 .523.523 0 0 1-1.047 0zm-1.207 2.236-.694-.78 2.076-1.848.696.783zm2.974-4.361a.524.524 0 1 1 1.048 0 .524.524 0 0 1-1.048 0zm-.841 2.46-.806-.67 1.768-2.125.805.67zm2.302-4.814a.524.524 0 1 1 1.049 0 .524.524 0 0 1-1.049 0zm-.492 2.63-.89-.553 1.46-2.354.892.554zm1.65-5.164a.524.524 0 1 1 1.049 0 .524.524 0 0 1-1.049 0zm-.157 2.751-.953-.436 1.157-2.533.954.436zm1.012-5.415a.524.524 0 1 1 1.049 0 .524.524 0 0 1-1.049 0zm.168 2.825-.998-.321.856-2.664.998.32zm.388-5.568a.525.525 0 1 1 1.049-.001.525.525 0 0 1-1.05 0zm.483 2.847-1.029-.207.556-2.744 1.03.208zm-.225-5.621a.525.525 0 1 1 1.05-.001.525.525 0 0 1-1.05 0zm.79 2.822-1.046-.097.258-2.774 1.047.097zm-.829-5.577a.528.528 0 1 1 1.056 0 .528.528 0 0 1-1.055 0zm1.09 2.748-1.051.014-.038-2.755 1.054-.014zm-1.502-5.547a.527.527 0 1 1 1.054 0 .527.527 0 0 1-1.054 0zm1.462 2.721-1.044.154-.413-2.799 1.043-.153zm-2.294-5.351a.527.527 0 1 1 1.055 0 .527.527 0 0 1-1.055 0zm1.862 2.47-1.006.319-.831-2.63 1.006-.318zm-3.079-4.899a.528.528 0 1 1 1.057 0 .528.528 0 0 1-1.057 0zm2.216 2.193-.942.473-1.218-2.43.944-.472zm-3.786-4.39a.528.528 0 1 1 1.056 0 .528.528 0 0 1-1.056 0zm2.528 1.89-.859.614-1.57-2.196.859-.614zm-4.42-3.822a.53.53 0 1 1 1.06 0 .53.53 0 0 1-1.06 0zm2.798 1.563-.755.739-1.892-1.932.757-.74zm-4.977-3.2a.53.53 0 1 1 1.06.001.53.53 0 0 1-1.06-.001zm3.027 1.214-.636.846-2.178-1.636.636-.848zm-5.461-2.524a.53.53 0 1 1 1.06 0 .53.53 0 0 1-1.06 0zm3.216.844-.503.933-2.434-1.308.503-.936zm-5.874-1.794a.531.531 0 1 1 1.062 0 .531.531 0 0 1-1.062 0zm3.367.451-.357 1-2.658-.95.359-1.002zm-6.201-1.07a.532.532 0 1 1 1.064 0 .532.532 0 0 1-1.065 0zm3.479.1-.228 1.038-2.833-.618.227-1.04zm-6.372-.434a.533.533 0 1 1 1.065 0 .533.533 0 0 1-1.065 0zm3.486-.194-.123 1.057-2.891-.333.122-1.059zm-6.415.114a.533.533 0 1 1 1.067 0 .533.533 0 0 1-1.067 0zm3.476-.452-.029 1.065-2.928-.08.03-1.066zm-6.417.594a.534.534 0 1 1 1.067 0 .534.534 0 0 1-1.067 0zm3.449-.675.052 1.066-2.941.143-.052-1.067zm-6.38 1.009a.534.534 0 1 1 1.068 0 .534.534 0 0 1-1.068 0zm3.405-.864.12 1.06-2.93.335-.12-1.062zm-6.301 1.358a.535.535 0 1 1 1.07 0 .535.535 0 0 1-1.07 0zm3.341-1.02.18 1.053-2.897.494-.18-1.054zM227.617 242a.535.535 0 1 1 1.069 0 .535.535 0 0 1-1.07 0zm6.01-1.864.25 1.04-5.601 1.343-.25-1.04zm-10.123 3.114a.534.534 0 1 1 1.068 0 .534.534 0 0 1-1.068 0zm4.492-1.762.31 1.022-4.112 1.25-.31-1.022zm-8.538 3.173a.534.534 0 1 1 1.069-.001.534.534 0 0 1-1.069 0zm4.405-1.916.352 1.009-4.047 1.41-.351-1.008zm-12.342 5.104a.534.534 0 1 1 1.067 0 .534.534 0 0 1-1.067 0zm8.273-3.684.398.99-7.938 3.19-.398-.992zm-16.076 7.174a.534.534 0 1 1 1.067 0 .534.534 0 0 1-1.067 0zm8.119-3.978.436.975-7.803 3.49-.436-.974zm-15.874 7.545a.534.534 0 1 1 1.069.001.534.534 0 0 1-1.069 0zm8.066-4.052.447.97-7.755 3.567-.447-.97zm-13.616 6.451a.535.535 0 1 1 1.07 0 .535.535 0 0 1-1.07 0zm5.873-2.89.424.982-5.55 2.399-.424-.982zm-11.531 5.048a.535.535 0 1 1 1.07 0 .535.535 0 0 1-1.07 0zm6.002-2.657.381.999-5.658 2.158-.38-1zm-11.756 4.513a.535.535 0 1 1 1.07 0 .535.535 0 0 1-1.07 0zm6.124-2.365.329 1.018-5.754 1.856-.328-1.019zm-11.963 3.856a.536.536 0 1 1 1.072.001.536.536 0 0 1-1.072 0zm6.242-2.01.264 1.037-5.838 1.492-.265-1.038zm-9.072 2.532a.535.535 0 1 1 1.07 0 .535.535 0 0 1-1.07 0zm3.268-1.048.195 1.053-2.831.522-.194-1.053zm-6.089 1.363a.536.536 0 1 1 1.072.001.536.536 0 0 1-1.072 0zm3.296-.846.12 1.063-2.821.315-.119-1.063zm-6.099.94a.535.535 0 1 1 1.07 0 .535.535 0 0 1-1.07 0zm3.32-.629.037 1.07-2.804.094-.036-1.07zm-6.1.489a.536.536 0 1 1 1.072 0 .536.536 0 0 1-1.071 0zm3.342-.394-.054 1.069-2.779-.14.054-1.07zm-6.09.005a.535.535 0 1 1 1.071 0 .535.535 0 0 1-1.07 0zm3.36-.141-.15 1.06-2.75-.389.15-1.06zm-6.07-.509a.535.535 0 1 1 1.07 0 .535.535 0 0 1-1.07 0zm3.37.13-.249 1.041-2.71-.65.25-1.04zm-6.036-1.054a.535.535 0 1 1 1.07 0 .535.535 0 0 1-1.07 0zm3.376.419-.35 1.011-2.666-.925.35-1.011zm-5.99-1.632a.535.535 0 1 1 1.07 0 .535.535 0 0 1-1.07 0zm3.375.727-.451.97-2.615-1.213.45-.97zm-6.036-2.326a.535.535 0 1 1 1.069 0 .535.535 0 0 1-1.07 0zm3.47 1.14-.55.917-2.662-1.599.552-.916zm-5.858-2.983a.534.534 0 1 1 1.069 0 .534.534 0 0 1-1.069 0zm3.249 1.419-.654.847-2.387-1.843.653-.846zm-5.358-3.492a.534.534 0 1 1 1.068 0 .534.534 0 0 1-1.069 0zm3.017 1.692-.748.762-2.11-2.074.748-.761zm-4.845-3.985a.533.533 0 1 1 1.065 0 .533.533 0 0 1-1.065 0zm2.779 1.96-.835.665-1.828-2.292.833-.665zm-4.321-4.458a.532.532 0 1 1 1.064-.001.532.532 0 0 1-1.064.001zm2.528 2.218-.907.56-1.542-2.498.905-.56zm-3.781-4.911a.532.532 0 1 1 1.063 0 .532.532 0 0 1-1.064 0zm2.267 2.468-.965.45-1.253-2.693.964-.45zm-3.227-5.342a.531.531 0 1 1 1.062-.001.531.531 0 0 1-1.062 0zm1.995 2.706-1.008.336-.96-2.874 1.007-.337zm-2.658-5.75a.531.531 0 1 1 1.062 0 .531.531 0 0 1-1.063 0zm1.713 2.93-1.038.227-.664-3.044 1.038-.226zm-2.025-5.493a.531.531 0 1 1 1.062 0 .531.531 0 0 1-1.062 0zm1.37 2.499-1.055.128-.311-2.562 1.054-.128zm-1.442-5.032a.53.53 0 1 1 1.061.001.53.53 0 0 1-1.061-.001zm1.134 2.518-1.062.031-.072-2.533 1.06-.031zm-.943-4.999a.53.53 0 1 1 1.061 0 .53.53 0 0 1-1.061 0zm.868 2.522-1.058-.082.191-2.48 1.058.08zm-.387-4.927a.53.53 0 1 1 1.058 0 .53.53 0 0 1-1.058 0zm.57 2.508-1.04-.207.48-2.405 1.038.207zm.224-4.814a.53.53 0 1 1 1.058 0 .53.53 0 0 1-1.058 0zm.236 2.478-1.002-.345.794-2.305 1 .344zm.897-4.661a.53.53 0 1 1 1.058 0 .53.53 0 0 1-1.058 0zm-.135 2.427-.939-.487 1.134-2.184.938.488zm1.633-4.463a.528.528 0 1 1 1.056 0 .528.528 0 0 1-1.055 0zm-.543 2.35-.852-.627 1.498-2.036.85.626zm2.431-4.216a.528.528 0 1 1 1.056 0 .528.528 0 0 1-1.056 0zm-.988 2.242-.743-.752 1.888-1.866.742.75zm3.706-4.316a.527.527 0 1 1 1.055 0 .527.527 0 0 1-1.055 0zm-1.87 2.493-.64-.84 2.717-2.072.64.839zm4.796-4.3a.528.528 0 1 1 1.055-.001.528.528 0 0 1-1.055 0zm-2.121 2.256-.555-.898 2.926-1.808.555.898zm5.219-3.8a.527.527 0 1 1 1.053 0 .527.527 0 0 1-1.053 0zm-2.335 2.015-.47-.944 3.096-1.543.47.945zm5.566-3.292a.527.527 0 1 1 1.055 0 .527.527 0 0 1-1.055 0zm-2.51 1.768-.388-.98 3.232-1.279.387.98zm5.842-2.782a.526.526 0 1 1 1.052 0 .526.526 0 0 1-1.052 0zm-2.65 1.518-.308-1.009 3.33-1.013.307 1.008zm6.042-2.268a.527.527 0 1 1 1.053.001.527.527 0 0 1-1.053-.001zm-2.752 1.264-.228-1.029 3.393-.749.227 1.028zm6.17-1.75a.526.526 0 1 1 1.053 0 .526.526 0 0 1-1.053 0zm-2.817 1.007-.149-1.042 3.419-.486.148 1.042zm6.226-1.23a.526.526 0 1 1 1.052 0 .526.526 0 0 1-1.052 0zm-2.847.748-.07-1.05 3.408-.223.069 1.05zm9.338-.776a.527.527 0 1 1 1.053 0 .527.527 0 0 1-1.053 0zm-5.963.554-.005-1.053 6.492-.027.005 1.053zm12.4-.256a.528.528 0 1 1 1.055 0 .528.528 0 0 1-1.056 0zm-5.935.229.048-1.053 6.438.297-.048 1.054zm12.348.433a.529.529 0 1 1 1.057 0 .529.529 0 0 1-1.057 0zm-5.94-.137.108-1.05 6.415.661-.109 1.052zm12.362 1.203a.53.53 0 1 1 1.058.001.53.53 0 0 1-1.058-.001zm-5.98-.544.173-1.044 6.423 1.066-.174 1.045zm11.392 1.662a.53.53 0 1 1 1.061 0 .53.53 0 0 1-1.061 0zm-4.99-.6.214-1.036 5.414 1.116-.215 1.04zm10.388 1.651a.532.532 0 1 1 1.064.001.532.532 0 0 1-1.064-.001zm-4.97-.53.204-1.042 5.4 1.05-.204 1.044zm10.41 1.31a.531.531 0 1 1 1.062 0 .531.531 0 0 1-1.063 0zm-4.984-.254.151-1.052 5.44.78-.152 1.053zm7.734.48a.532.532 0 1 1 1.064-.001.532.532 0 0 1-1.064 0zm-2.263.305.087-1.06 2.752.225-.087 1.06zm5.043-.224a.533.533 0 1 1 1.066 0 .533.533 0 0 1-1.066 0zm-2.264.45.032-1.063 2.78.08-.03 1.065zm4.185-.534a.533.533 0 1 1 1.066-.002.533.533 0 0 1-1.066.002zm-1.365.616-.046-1.065 1.92-.085.047 1.067zm3.324-.86a.534.534 0 1 1 1.068 0 .534.534 0 0 1-1.068 0zm-1.36.773-.132-1.06 1.96-.243.131 1.06zm3.333-1.164a.535.535 0 1 1 1.069 0 .535.535 0 0 1-1.07 0zm-1.336.915-.207-1.048 1.973-.391.208 1.05zm3.298-1.439a.535.535 0 1 1 1.07 0 .535.535 0 0 1-1.07 0zm-1.29 1.041-.276-1.034 1.963-.524.276 1.034zm5.085-2.441a.536.536 0 1 1 1.071 0 .536.536 0 0 1-1.071 0zm-3.075 1.902-.37-1.004 3.795-1.4.37 1.004zm6.528-3.687a.536.536 0 1 1 1.072.001.536.536 0 0 1-1.072 0zm-2.673 2.26-.49-.95 3.454-1.785.491.952zm4.993-3.84a.536.536 0 1 1 1.073 0 .536.536 0 0 1-1.073 0zm-1.482 2.024-.603-.886 2.32-1.582.604.887zm2.539-2.98a.537.537 0 1 1 1.074 0 .537.537 0 0 1-1.074 0zm-.16 1.354-.72-.796 1.056-.956.721.796zm.993-2.408a.536.536 0 1 1 1.072 0 .536.536 0 0 1-1.072 0zm.126 1.387-.844-.666.833-1.054.842.666zm.163-2.174a.535.535 0 1 1 1.071-.002.535.535 0 0 1-1.071.002zm.75.971-1.006-.369.288-.787 1.007.369zm-.682-1.814a.54.54 0 1 1 1.079 0 .54.54 0 0 1-1.079 0zm1.001.89-1.068-.09.069-.844 1.075.092zm-.954-1.747a.543.543 0 1 1 1.085 0 .543.543 0 0 1-1.085 0zm1.03.89-1.076-.063.046-.856 1.083.063zm-.807-1.72a.541.541 0 1 1 1.083 0 .541.541 0 0 1-1.083 0zm.843.97-1.048-.28.223-.83 1.048.281zm-.403-1.971a.543.543 0 1 1 1.086 0 .543.543 0 0 1-1.085 0zm.598 1.22-.992-.437.44-1.002.993.438zm-.268-2.272a.542.542 0 1 1 1.084-.001.542.542 0 0 1-1.084.001zm.731 1.214-1.036-.324.329-1.052 1.036.324zm-.65-2.292a.544.544 0 1 1 1.087.002.544.544 0 0 1-1.087-.002zm1.002 1.12-1.082-.083.081-1.078 1.084.083zm-1.303-2.198a.545.545 0 1 1 1.09 0 .545.545 0 0 1-1.09 0zm1.368.934-1.047.29-.301-1.077 1.05-.292zm-1.498-1.466a.544.544 0 1 1 1.087 0 .544.544 0 0 1-1.087 0zm1.204.4-1.059.26-.129-.532 1.054-.26zm-1.223-1.007a.548.548 0 1 1 1.095 0 .548.548 0 0 1-1.095 0zm1.106.598-1.086.027-.02-.607 1.096-.027zm-1.126-1.182a.54.54 0 1 1 1.079 0 .54.54 0 0 1-1.079 0zm1.115.55-1.095.052-.019-.585 1.076-.051zm-1.24-1.02a.495.495 0 1 1 .99 0 .495.495 0 0 1-.99 0zm1.153.242-1.01.367-.127-.48.927-.337zm-1.23-.392a.434.434 0 1 1 .868 0 .434.434 0 0 1-.868 0zm.822-.276-.7.635-.082-.177.614-.556zM421.102 168.02a.4.4 0 1 1 .8 0 .4.4 0 0 1-.8 0zm.022-.076a.468.468 0 1 1 .936 0 .468.468 0 0 1-.936 0zm.411.475-.42-.5.024-.094.491.586zm-.22-.64a.484.484 0 1 1 .968-.001.484.484 0 0 1-.968 0zm.547.548-.585-.729.196-.178.605.755zm-.317-.714a.483.483 0 1 1 .967 0 .483.483 0 0 1-.967 0zm.538.558-.566-.786.229-.165.566.785zm-.397-.633a.502.502 0 1 1 1.003 0 .502.502 0 0 1-1.003 0zm.506.531-.413-.87.15-.09.428.9zm-.164-.424a.516.516 0 1 1 1.032 0 .516.516 0 0 1-1.032 0zm-.003.367.287-.96.36.093-.295.988zm.289-.08a.526.526 0 1 1 1.052 0 .526.526 0 0 1-1.052 0zm-.138.073.719-.738.302.28-.733.753zm.541.855a.537.537 0 1 1 1.074.001.537.537 0 0 1-1.074 0zm-.36-.719.96-.428.424.924-.98.437zm.539 1.8a.545.545 0 1 1 1.09 0 .545.545 0 0 1-1.09 0zm-.171-.993 1.057-.183.195 1.078-1.074.186zm.175 1.47a.552.552 0 1 1 1.104 0 .552.552 0 0 1-1.104 0zm-.004-.473 1.09-.026.017.476-1.103.027zm-.048.844a.563.563 0 1 1 1.126 0 .563.563 0 0 1-1.125 0zm.058-.448 1.096.121-.03.372-1.118-.124zm-.208.734a.573.573 0 1 1 1.146 0 .573.573 0 0 1-1.146 0zm.216-.549 1.01.49-.129.292-1.03-.5zm-.458.693a.58.58 0 1 1 1.162 0 .58.58 0 0 1-1.162 0zm.53-.64.599.976-.23.15-.607-.99zm-1.171.602a.59.59 0 1 1 1.178 0 .59.59 0 0 1-1.178 0zm1.264-.541-.069 1.16-.633-.03.07-1.177zm-1.917.245a.593.593 0 1 1 1.186 0 .593.593 0 0 1-1.186 0zm1.49-.239-.49 1.073-.651-.295.492-1.077zm-1.912-.108a.593.593 0 1 1 1.185 0 .593.593 0 0 1-1.185 0zm1.39-.111-.75.916-.423-.346.752-.917zm-1.77-.67a.594.594 0 1 1 1.187 0 .594.594 0 0 1-1.188 0zm1.506.522-1.067.518-.38-.78 1.067-.52zm-1.677-1.498a.593.593 0 1 1 1.186 0 .593.593 0 0 1-1.186 0zm1.348.874-1.17.204-.17-.976 1.17-.204zm-1.154-1.708a.593.593 0 1 1 1.186 0 .593.593 0 0 1-1.186 0zm.978.969-1.157-.27.195-.833 1.156.27zm-.695-1.226a.593.593 0 1 1 1.186 0 .593.593 0 0 1-1.186 0zm.711.696-.8-.877.282-.257.8.876zm-.279-.792a.593.593 0 1 1 1.186 0 .593.593 0 0 1-1.186 0zm.289.675-.255-1.159.431-.095.256 1.159zm-.004-.609a.596.596 0 1 1 1.192.001.596.596 0 0 1-1.192 0zm.172.512.265-1.157.288.064-.267 1.161zm.084-.332a.597.597 0 1 1 1.195 0 .597.597 0 0 1-1.195 0zm-.003.307.681-.976.26.179-.685.978zm.389.286a.598.598 0 1 1 1.196 0 .598.598 0 0 1-1.196 0zm-.289-.267 1-.654.388.591-1.002.656zm.439.987a.601.601 0 1 1 1.203 0 .601.601 0 0 1-1.203 0zm-.137-.598 1.171-.248.156.719-1.177.25zm-.028 1.227a.608.608 0 1 1 1.216 0 .608.608 0 0 1-1.216 0zm.185-.782 1.166.295-.154.63-1.177-.297zm-.622 1.038a.615.615 0 1 1 1.23.001.615.615 0 0 1-1.23 0zm.74-.782.623 1.042-.425.263-.63-1.054zm-1.299.708a.617.617 0 1 1 1.235 0 .617.617 0 0 1-1.235 0zm1.258-.534-.162 1.218-.558-.072.164-1.223zm-1.748.218a.617.617 0 1 1 1.234 0 .617.617 0 0 1-1.234 0zm1.442-.202-.67 1.037-.49-.317.67-1.036zm-1.671-.268a.617.617 0 1 1 1.233-.001.617.617 0 0 1-1.233 0zm1.4.199-1.108.54-.23-.47 1.11-.54zm-1.382-.475a.616.616 0 1 1 1.233 0 .616.616 0 0 1-1.233 0zm1.215.314-1.232-.08.018-.275 1.231.08zm-1.106-.466a.61.61 0 1 1 1.22 0 .61.61 0 0 1-1.22 0zm1.034.473-1.024-.685.108-.147 1.011.677zm-.478-.551a.52.52 0 1 1 1.04 0 .52.52 0 0 1-1.04 0zm.266.649-.199-1.18.465.011.17 1.007zm.137-.649a.381.381 0 1 1 .763-.001.381.381 0 0 1-.763.001zm.389.442v-.885l.192.118v.649zm-.258-.442a.33.33 0 1 1 .66 0 .33.33 0 0 1-.66 0zm.492.295v-.59l.048.04v.51zM433.15 150.303a.456.456 0 1 1 .912 0 .456.456 0 0 1-.912 0zm-.082-.043a.51.51 0 1 1 1.02 0 .51.51 0 0 1-1.02 0zm-.24-.306a.551.551 0 1 1 1.102 0 .551.551 0 0 1-1.102 0zm1.207.078-.85.552-.231-.28.92-.596zm-1.333-.279a.563.563 0 1 1 1.125 0 .563.563 0 0 1-1.125 0zm1.167-.053-.955.55-.124-.195.973-.56zm-1.35-.268a.57.57 0 1 1 1.14 0 .57.57 0 0 1-1.14 0zm1.244.062-.987.537-.181-.317.999-.544zm-1.752-.923a.578.578 0 1 1 1.155 0 .578.578 0 0 1-1.156 0zm1.572.58-.983.571-.509-.855.999-.582zm-2.237-1.494a.585.585 0 1 1 1.17 0 .585.585 0 0 1-1.17 0zm1.713.58-.938.675-.663-.91.95-.683zm-2.486-1.265a.6.6 0 1 1 1.2.001.6.6 0 0 1-1.2 0zm1.756.256-.784.868-.767-.673.803-.89zm-2.42-.467a.61.61 0 1 1 1.22 0 .61.61 0 0 1-1.22 0zm1.457-.357-.369 1.142-.656-.202.374-1.16zm-2.03.505a.615.615 0 1 1 1.23-.002.615.615 0 0 1-1.23.001zm1.037-.74.306 1.181-.567.153-.309-1.192zm-1.527 1.159a.619.619 0 1 1 1.238 0 .619.619 0 0 1-1.238 0zm.705-.888.805.932-.484.422-.809-.936zm-1.112 1.495a.62.62 0 1 1 1.24 0 .62.62 0 0 1-1.24 0zm.511-.952 1.03.688-.404.608-1.032-.689zm-1.09 2.39a.618.618 0 1 1 1.238-.001.618.618 0 0 1-1.237 0zm.624-1.67 1.15.465-.58 1.437-1.148-.464zm-.801 2.33a.617.617 0 1 1 1.235-.002.617.617 0 0 1-1.235.001zm.199-.822 1.195.325-.18.659-1.193-.324zm-.308 1.328a.617.617 0 1 1 1.235 0 .617.617 0 0 1-1.235 0zm.122-.636 1.209.259-.109.507-1.207-.258zm-.416 2.725a.614.614 0 1 1 1.228 0 .614.614 0 0 1-1.228 0zm.301-2.175 1.223.175-.302 2.087-1.216-.173zm-.374 4.474a.613.613 0 1 1 1.227 0 .613.613 0 0 1-1.227 0zm.073-2.319 1.228.04-.074 2.298-1.226-.039zm.035 3.456a.613.613 0 1 1 1.226-.001.613.613 0 0 1-1.226 0zm-.104-1.08 1.22-.115.107 1.137-1.22.115zm.339 2.16a.613.613 0 1 1 1.225-.002.613.613 0 0 1-1.225.002zm-.221-.95 1.198-.26.235 1.08-1.199.26zm.606 1.936a.613.613 0 1 1 1.226 0 .613.613 0 0 1-1.226 0zm-.344-.763 1.142-.447.386.987-1.142.446zm.905 1.62a.613.613 0 1 1 1.226 0 .613.613 0 0 1-1.226 0zm-.46-.521 1.025-.671.56.856-1.025.671zm1.013 1.007a.61.61 0 1 1 1.221 0 .61.61 0 0 1-1.221 0zm-.344-.026.81-.919.55.489-.809.915zm.837.156a.61.61 0 1 1 1.22 0 .61.61 0 0 1-1.22 0zm-.037.46.313-1.18.491.132-.311 1.178zm.47-.614a.607.607 0 1 1 1.215 0 .607.607 0 0 1-1.214 0zm.383.727-.41-1.147.432-.153.41 1.144zm-.012-1.096a.606.606 0 1 1 1.213.001.606.606 0 0 1-1.213 0zm.667.798-.858-.86.37-.368.857.86zm-.36-1.308a.605.605 0 1 1 1.21-.001.605.605 0 0 1-1.21 0zm.82.822-1.04-.624.306-.51 1.04.622zm-.58-1.404a.605.605 0 1 1 1.21 0 .605.605 0 0 1-1.21 0zm.926.812-1.12-.462.24-.581 1.119.46zm-.753-1.395a.604.604 0 1 1 1.208 0 .604.604 0 0 1-1.208 0zm1.013.754-1.16-.343.172-.583 1.159.343zm-.91-1.265a.603.603 0 1 1 1.207 0 .603.603 0 0 1-1.206 0zm1.094.63-1.185-.238.104-.512 1.183.238zm-.952-2.558a.595.595 0 1 1 1.19 0 .595.595 0 0 1-1.19 0zm1.065 1.966-1.205-.082.141-1.926 1.187.08zm-.978-2.94a.592.592 0 1 1 1.185-.001.592.592 0 0 1-1.185.001zm1.1 1.025-1.185-.103.087-.975 1.18.103zm-.892-1.955a.593.593 0 1 1 1.185.001.593.593 0 0 1-1.185 0zm.963 1.06-1.157-.26.209-.93 1.155.26zm-.786-1.332a.592.592 0 1 1 1.184 0 .592.592 0 0 1-1.184 0zm.912.595-.993-.646.176-.272.994.645zm-.664-.65a.593.593 0 1 1 1.185 0 .593.593 0 0 1-1.185 0zm.472.633-.258-1.156.249-.056.257 1.157zm-.178-.522a.594.594 0 1 1 1.188 0 .594.594 0 0 1-1.188 0zm.088.443.416-1.11.296.11-.417 1.112zm.226-.217a.596.596 0 1 1 1.192.001.596.596 0 0 1-1.192-.001zm-.068.255.692-.965.317.225-.694.968zm.659.346a.598.598 0 1 1 1.196 0 .598.598 0 0 1-1.196 0zm-.42-.184.847-.837.595.599-.851.841zm.792.646a.6.6 0 1 1 1.2 0 .6.6 0 0 1-1.2 0zm-.24-.087.93-.752.375.46-.933.755zm3.262 4.494a.569.569 0 1 1 1.137 0 .569.569 0 0 1-1.137 0zm-2.917-4.067.993-.674 2.964 4.425-.94.638zm3.716 5.296a.493.493 0 1 1 .985 0 .493.493 0 0 1-.986 0zm-.705-.915.978-.575.656 1.263-.848.498zM471 287.925a.193.193 0 1 1 .387 0 .193.193 0 1 1-.386 0zm-.16.02a.364.364 0 1 1 .728 0 .364.364 0 0 1-.729 0zm-.011.006a.378.378 0 1 1 .755 0 .378.378 0 0 1-.755 0zm-.048.13a.493.493 0 1 1 .985 0 .493.493 0 0 1-.985 0zm.082-.287.415-.214.09.017-.543.28zm.02.599a.552.552 0 1 1 1.104 0 .552.552 0 0 1-1.104 0zm-.079-.163.864-.446.208.276-.967.5zm.228.475a.568.568 0 1 1 1.136 0 .568.568 0 0 1-1.136 0zm-.096-.076.976-.515.178.304-1.003.53zm.233.058a.58.58 0 1 1 1.16 0 .58.58 0 0 1-1.16 0zm.45.585-.133-1.123.146-.03.137 1.148zm-.157-.697a.586.586 0 1 1 1.173 0 .586.586 0 0 1-1.173 0zm.478.66-.404-1.088.296-.117.41 1.1zm-.132-.731a.59.59 0 1 1 1.18 0 .59.59 0 0 1-1.18 0zm.352.647-.235-1.149.35-.076.236 1.158zm-.055-.546a.595.595 0 1 1 1.191.001.595.595 0 0 1-1.19 0zm.097.455.377-1.118.303.097-.379 1.128zm.323.083a.598.598 0 1 1 1.197 0 .598.598 0 0 1-1.197 0zm-.293-.172.934-.736.426.535-.94.74zm.597.832a.601.601 0 1 1 1.203 0 .601.601 0 0 1-1.203 0zm-.249-.41 1.086-.504.309.659-1.091.506zm.584 1.959a.603.603 0 1 1 1.206 0 .603.603 0 0 1-1.206 0zm-.321-1.422 1.174-.256.34 1.549-1.179.256zm.414 3.046a.604.604 0 1 1 1.207 0 .604.604 0 0 1-1.207 0zm-.092-1.59 1.204-.069.094 1.624-1.206.069zm.088 3.011a.605.605 0 1 1 1.21 0 .605.605 0 0 1-1.21 0zm.004-1.423 1.207.002v1.421l-1.211-.001zm-.065 1.71a.611.611 0 1 1 1.222 0 .611.611 0 0 1-1.222 0zm.075-.414 1.188.232-.05.286-1.2-.234zm-.23.557a.616.616 0 1 1 1.232 0 .616.616 0 0 1-1.232 0zm.353-.594.848.879-.145.147-.857-.886zm-.83.564a.625.625 0 1 1 1.25.002.625.625 0 0 1-1.25-.002zm1.144-.585-.078 1.23-.47-.02.079-1.248zm-1.665.312a.63.63 0 1 1 1.26 0 .63.63 0 0 1-1.26 0zm1.443-.276-.585 1.104-.519-.269.59-1.113zm-1.788-.025a.63.63 0 1 1 1.258 0 .63.63 0 0 1-1.258 0zm1.388-.174-.828.95-.345-.302.827-.949zm-2.052-1.052a.63.63 0 1 1 1.26 0 .63.63 0 0 1-1.26 0zm1.846.926-1.106.6-.664-1.226 1.108-.6zm-2.084-2.327a.629.629 0 1 1 1.257.001.629.629 0 0 1-1.257 0zm1.488 1.295-1.241.211-.238-1.4 1.24-.212zm-1.274-1.503a.627.627 0 1 1 1.253 0 .627.627 0 0 1-1.253 0zm.856.655-.879-.899.213-.206.877.897zm-.372-.683a.628.628 0 1 1 1.257 0 .628.628 0 0 1-1.257 0zm.178.655-.073-1.252.486-.03.073 1.254zm.356-.562a.63.63 0 1 1 1.26 0 .63.63 0 0 1-1.26 0zm-.015.526.215-1.238.536.091-.216 1.242zm.372-.368a.632.632 0 1 1 1.264 0 .632.632 0 0 1-1.264 0zm.019.419.505-1.155.36.156-.508 1.157zm.409.082a.638.638 0 1 1 1.276 0 .638.638 0 0 1-1.276 0zm-.277-.093.954-.828.439.497-.964.837zm.569.707a.647.647 0 1 1 1.294 0 .647.647 0 0 1-1.294 0zm-.23-.342 1.146-.56.308.61-1.163.568zm.35 1.017a.657.657 0 1 1 1.315.001.657.657 0 0 1-1.315 0zm-.11-.56 1.27-.247.141.673-1.29.25zm.03 1.244a.666.666 0 1 1 1.331.002.666.666 0 0 1-1.331-.002zm.086-.76 1.306.138-.064.685-1.324-.14zm-.253 1.016a.672.672 0 1 1 1.345-.001.672.672 0 0 1-1.345 0zm.277-.622 1.127.708-.154.258-1.139-.715zm-.559.756a.678.678 0 1 1 1.357 0 .678.678 0 0 1-1.357 0zm.671-.745.588 1.21-.274.14-.592-1.22zm-1.43.738a.685.685 0 1 1 1.37 0 .685.685 0 0 1-1.37 0zm1.45-.671-.012 1.356h-.752l.012-1.37zm-2.223.442a.688.688 0 1 1 1.377 0 .688.688 0 0 1-1.377 0zm1.656-.427-.39 1.314-.77-.225.392-1.321zm-1.955.284a.69.69 0 1 1 1.38.001.69.69 0 0 1-1.38-.001zm1.286-.478-.595 1.243-.299-.142.596-1.244zm-1.477.345a.689.689 0 1 1 1.378 0 .689.689 0 0 1-1.378 0zm1.274-.433-.788 1.132-.191-.134.788-1.13zm-1.717-.112a.688.688 0 1 1 1.377 0 .688.688 0 0 1-1.377 0zm1.666.11-1.069.87-.444-.546 1.068-.87zm-1.995-.766a.688.688 0 1 1 1.377 0 .688.688 0 0 1-1.377 0zm1.632.347-1.23.617-.329-.656 1.23-.617zm-1.793-1.05a.687.687 0 1 1 1.375.002.687.687 0 0 1-1.375-.001zm1.52.547-1.342.31-.16-.703 1.339-.31zm-1.462-1.232a.684.684 0 1 1 1.37 0 .684.684 0 0 1-1.37 0zm1.314.739-1.369-.112.058-.684 1.365.11zm-1.187-.97a.684.684 0 1 1 1.368 0 .684.684 0 0 1-1.368 0zm1.161.556-1.203-.655.126-.23 1.202.654zm-.967-.654a.681.681 0 1 1 1.362 0 .681.681 0 0 1-1.362 0zm.809.703-.623-1.217.193-.096.62 1.213zm-.305-.611a.671.671 0 1 1 1.343 0 .671.671 0 0 1-1.343 0zm.067.58.247-1.339.492.1-.243 1.32zm.443-.29a.656.656 0 1 1 1.313 0 .656.656 0 0 1-1.313 0zm-.163.297.679-1.157.487.302-.664 1.132zm.5-.029a.638.638 0 1 1 1.277 0 .638.638 0 0 1-1.277 0zm-.08.252.844-1.004.306.282-.82.976zm.72.514a.556.556 0 1 1 1.112-.002.556.556 0 0 1-1.113.002zm-.483-.347 1.027-.749.489.807-.897.654zm1.039 1.19a.377.377 0 1 1 .753 0 .377.377 0 0 1-.753 0zm-.455-.521.998-.446.2.884-.674.301zm.494.585a.362.362 0 1 1 .724 0 .362.362 0 0 1-.724 0zm.026.148.684-.269.01.066-.656.259zM489.304 287.358a.259.259 0 1 1 .517 0 .259.259 0 0 1-.517 0zm-.154.04a.393.393 0 1 1 .787 0 .393.393 0 0 1-.787 0zm-.053.038a.427.427 0 1 1 .855 0 .427.427 0 0 1-.855 0zm.382-.426.405.191.011.021-.44-.208zm-.488.587a.465.465 0 1 1 .93-.001.465.465 0 0 1-.93.001zm.186-.41.768.33-.032.168-.836-.358zm-.21.546a.453.453 0 1 1 .905 0 .453.453 0 0 1-.906 0zm.032-.219.893.245-.049.131-.87-.238zm.005.222a.472.472 0 1 1 .945 0 .472.472 0 0 1-.945 0zm.236.413.046-.85.054-.015-.05.887zm2.022-2.45a.513.513 0 1 1 1.027 0 .513.513 0 0 1-1.027 0zm-1.476 2.395-.627-.707 2.271-2.068.681.768zm3.658-4.728a.521.521 0 1 1 1.042 0 .521.521 0 0 1-1.042 0zm-1.296 2.685-.747-.703 2.183-2.338.76.715zm3.39-5.133a.519.519 0 1 1 1.038 0 .519.519 0 0 1-1.038 0zm-1.176 2.788-.793-.678 2.095-2.447.788.673zm3.176-5.178a.523.523 0 1 1 1.047.001.523.523 0 0 1-1.047 0zm-1.084 2.724-.795-.667 2.001-2.392.802.672zm3.033-5.055a.525.525 0 1 1 1.05-.001.525.525 0 0 1-1.05 0zm-1.024 2.667-.803-.671 1.949-2.333.806.673zm2.889-5.22a.524.524 0 1 1 1.048 0 .524.524 0 0 1-1.048 0zm-.915 2.862-.85-.62 1.866-2.552.847.618zm1.716-4.215a.523.523 0 1 1 1.047 0 .523.523 0 0 1-1.046 0zm.174 1.62-.902-.535.801-1.352.902.534zm.487-3.018a.523.523 0 1 1 1.046 0 .523.523 0 0 1-1.046 0zm.337 1.623-.947-.448.66-1.398.947.447zm.143-3.064a.524.524 0 1 1 1.049 0 .524.524 0 0 1-1.049 0zm.54 1.607-.993-.332.48-1.441.995.332zm-.28-3.09a.525.525 0 1 1 1.051 0 .525.525 0 0 1-1.05 0zm.78 1.574-1.031-.182.26-1.483 1.035.183zm-.876-2.374a.527.527 0 1 1 1.053-.001.527.527 0 0 1-1.053 0zm1.144.738-1.044.126-.096-.8 1.046-.127zm-1.557-1.242a.53.53 0 1 1 1.058 0 .53.53 0 0 1-1.058 0zm1.349.171-.817.666-.412-.502.82-.668zm-1.992-.423a.531.531 0 1 1 1.062 0 .531.531 0 0 1-1.062 0zm1.366-.24-.386.984-.642-.25.388-.987zm-2.157.196a.533.533 0 1 1 1.065 0 .533.533 0 0 1-1.065 0zm1.353-.485-.06 1.059-.79-.043.061-1.063zm-2.207.6a.534.534 0 1 1 1.068 0 .534.534 0 0 1-1.068 0zm1.315-.643.144 1.055-.852.117-.144-1.058zm-2.149.875a.535.535 0 1 1 1.07 0 .535.535 0 0 1-1.07 0zm1.226-.747.286 1.03-.833.233-.287-1.031zm-1.956 1.049a.535.535 0 1 1 1.07 0 .535.535 0 0 1-1.07 0zm1.06-.796.41.988-.73.303-.41-.99zm-1.602 1.124a.535.535 0 1 1 1.07 0 .535.535 0 0 1-1.07 0zm.8-.786.554.917-.543.327-.553-.916zm-2.086 1.979a.535.535 0 1 1 1.069 0 .535.535 0 0 1-1.07 0zm1.457-1.586.728.785-1.287 1.192-.727-.783zm-2.543 2.984a.533.533 0 1 1 1.067 0 .533.533 0 0 1-1.067 0zm1.198-1.726.844.656-1.088 1.398-.842-.655zm-2.107 3.282a.532.532 0 1 1 1.063 0 .532.532 0 0 1-1.063 0zm.981-1.825.92.539-.91 1.555-.918-.537zm-1.735 3.49a.53.53 0 1 1 1.059 0 .53.53 0 0 1-1.059 0zm.801-1.885.969.44-.758 1.665-.966-.438zm-1.937 5.355a.527.527 0 1 1 1.054.001.527.527 0 0 1-1.054-.001zm1.162-3.634 1.007.33-1.143 3.469-1-.329zm-1.952 6.97a.524.524 0 1 1 1.049 0 .524.524 0 0 1-1.049 0zm.804-3.457 1.024.243-.794 3.336-1.02-.242zm-1.517 7.646a.524.524 0 1 1 1.048 0 .524.524 0 0 1-1.048 0zm.72-4.276 1.034.175-.713 4.189-1.034-.175zm-1.11 8.475a.524.524 0 1 1 1.048 0 .524.524 0 0 1-1.047 0zm.392-4.248 1.045.097-.391 4.2-1.043-.097zm-.555 8.488a.524.524 0 1 1 1.048.002.524.524 0 0 1-1.048-.002zm.164-4.26 1.046.04-.162 4.24-1.048-.04zm-.2 8.574a.526.526 0 1 1 1.053 0 .526.526 0 0 1-1.052 0zm.036-4.317 1.048.007-.031 4.314-1.052-.008zm.13 5.157a.526.526 0 1 1 1.052 0 .526.526 0 0 1-1.052 0zm-.155-.738 1.032-.204.166.84-1.034.203zm.58 1.243a.53.53 0 1 1 1.058 0 .53.53 0 0 1-1.059 0zm-.302-.166.804-.68.429.502-.808.685zm.58.25a.531.531 0 1 1 1.062 0 .531.531 0 0 1-1.063 0zm.095.422.304-1.014.28.082-.305 1.018zm.209-.473a.533.533 0 1 1 1.067 0 .533.533 0 0 1-1.067 0zm.31.575-.173-1.047.306-.054.174 1.053zm.01-.777a.535.535 0 1 1 1.07-.001.535.535 0 0 1-1.07 0zm.496.654-.57-.901.321-.205.571.904zm-.175-1.026a.536.536 0 1 1 1.073 0 .536.536 0 0 1-1.073 0zm.617.723-.808-.701.322-.373.81.703zm.502-2.66a.54.54 0 1 1 1.081 0 .54.54 0 0 1-1.081 0zm-.119 2.206-.928-.537 1.12-1.94.934.542zm.992-4.38a.543.543 0 1 1 1.085 0 .543.543 0 0 1-1.085 0zm.167 2.376-1.002-.405.873-2.173 1.007.406zm.399-4.649a.544.544 0 1 1 1.089 0 .544.544 0 0 1-1.09 0zm.502 2.405-1.053-.263.566-2.273 1.058.264zm-.301-4.644a.546.546 0 1 1 1.092 0 .546.546 0 0 1-1.092 0zm.886 2.289-1.085-.098.201-2.24 1.088.099zm-1.007-2.904a.548.548 0 1 1 1.096-.001.548.548 0 0 1-1.096 0zm1.204.512-1.073.209-.121-.616 1.075-.209zm-1.528-.932a.55.55 0 1 1 1.099 0 .55.55 0 0 1-1.099 0zm1.306.087-.868.666-.323-.419.869-.668zm-1.778-.327a.549.549 0 1 1 1.098 0 .549.549 0 0 1-1.098 0zm1.27-.25-.497.979-.471-.239.496-.98zm-1.836.176a.55.55 0 1 1 1.099 0 .55.55 0 0 1-1.099 0zm1.186-.47-.141 1.089-.567-.074.143-1.09zm-1.793.547a.55.55 0 1 1 1.1 0 .55.55 0 0 1-1.1 0zm1.088-.622.137 1.091-.607.076-.137-1.09zm-1.68.832a.55.55 0 1 1 1.099.001.55.55 0 0 1-1.099 0zm.957-.728.369 1.036-.593.21-.368-1.034zm-1.48 1.058a.548.548 0 1 1 1.096 0 .548.548 0 0 1-1.095 0zm.78-.793.584.928-.525.33-.583-.927zm-1.179 1.228a.545.545 0 1 1 1.09-.001.545.545 0 0 1-1.09 0zm.544-.805.804.744-.404.433-.8-.741zm-.887 1.402a.541.541 0 1 1 1.082 0 .541.541 0 0 1-1.082 0zm.415-.869.944.549-.35.594-.938-.544zm-.736 1.572a.536.536 0 1 1 1.072 0 .536.536 0 0 1-1.072 0zm.37-.927.982.456-.332.7-.972-.452zm-.853 2.41a.502.502 0 1 1 1.004 0 .502.502 0 0 1-1.004 0zm.51-1.649 1.01.353-.549 1.47-.946-.33zm-.712 3.019a.425.425 0 1 1 .85 0 .425.425 0 0 1-.85 0zm.207-1.443.982.199-.353 1.35-.832-.168z" fill="#352641"/><path d="M431.948 228.2a.439.439 0 1 1 .878-.002.439.439 0 0 1-.878.001zm1.113-.579a1.231 1.231 0 1 1 2.462 0 1.231 1.231 0 0 1-2.463 0zm-.723 1.014-.234-.77 1.39-1.182.657 2.16zm2.731-1.442a1.207 1.207 0 1 1 2.414 0 1.207 1.207 0 0 1-2.414 0zm-.505 1.627-.518-2.405 1.989-.404.508 2.358zm2.404-2.197a1.21 1.21 0 1 1 2.422 0 1.21 1.21 0 0 1-2.422 0zm-.349 1.727-.692-2.312 1.902-.574.695 2.32zm2.136-2.57a1.215 1.215 0 1 1 2.43 0 1.215 1.215 0 0 1-2.43 0zm-.063 1.94-1.031-2.191 1.79-.846 1.034 2.197zm.917-2.289a1.215 1.215 0 1 1 2.431 0 1.215 1.215 0 0 1-2.43 0zm.82 1.474-.92-2.249.855-.35.92 2.25zm.102-1.678a1.218 1.218 0 1 1 2.435 0 1.218 1.218 0 0 1-2.435 0zm.553 1.392-.524-2.374.924-.206.525 2.377zm.377-1.593a1.22 1.22 0 1 1 2.439 0 1.22 1.22 0 0 1-2.44 0zm.542 1.391-.513-2.38.93-.202.515 2.383zm.333-1.733a1.22 1.22 0 1 1 2.44.002 1.22 1.22 0 0 1-2.44-.002zm.786 1.478-.886-2.271.875-.343.887 2.273zm2.953-3.41a1.223 1.223 0 1 1 2.446 0 1.223 1.223 0 0 1-2.446 0zm-1.96 3.017-1.12-2.168 3.741-1.935 1.122 2.172zm3.213-3.636a1.223 1.223 0 1 1 2.447 0 1.223 1.223 0 0 1-2.447 0zm.51 1.715-1.083-2.192 1.254-.62 1.083 2.194zm.793-2.414a1.224 1.224 0 1 1 2.448.001 1.224 1.224 0 0 1-2.448 0zm.498 1.777-1.155-2.157 1.304-.698 1.154 2.159zm.716-2.585a1.226 1.226 0 1 1 2.452 0 1.226 1.226 0 0 1-2.452 0zm.688 1.828-1.356-2.037 1.214-.81 1.358 2.039zm.3-2.782a1.228 1.228 0 1 1 2.455 0 1.228 1.228 0 0 1-2.456 0zm1.086 1.837-1.7-1.763.987-.956 1.704 1.766zm-.126-2.896a1.23 1.23 0 1 1 2.46 0 1.23 1.23 0 0 1-2.46 0zm1.173 1.886-1.816-1.652.962-1.06 1.82 1.655zm-.097-2.87a1.234 1.234 0 1 1 2.467 0 1.234 1.234 0 0 1-2.467 0zm.98 1.894-1.657-1.817 1.076-.986 1.662 1.822zm1.262-3.74a1.238 1.238 0 1 1 2.476 0 1.238 1.238 0 0 1-2.476 0zm-.228 2.8-1.565-1.906 2.244-1.85 1.572 1.915zm2.136-4.525a1.24 1.24 0 1 1 2.48 0 1.24 1.24 0 0 1-2.48 0zm.16 2.645-1.66-1.838 1.908-1.727 1.664 1.841zm1.667-4.502a1.245 1.245 0 1 1 2.49 0 1.245 1.245 0 0 1-2.49 0zm.296 2.73-1.767-1.742 1.828-1.862 1.773 1.749zm3.251-6.532a1.251 1.251 0 1 1 2.503 0 1.251 1.251 0 0 1-2.503 0zM461 213.052l-1.82-1.7 3.549-3.806 1.829 1.71zm2.749-6.204a1.252 1.252 0 1 1 2.504 0 1.252 1.252 0 0 1-2.504 0zm.837 2.375-1.884-1.647 1.356-1.552 1.885 1.648zm.415-4.032a1.256 1.256 0 1 1 2.513-.001 1.256 1.256 0 0 1-2.513.001zm.995 2.416-1.994-1.513 1.252-1.66 2.003 1.518zm1.311-5.827a1.27 1.27 0 1 1 2.538-.001 1.27 1.27 0 0 1-2.538.001zm-.013 4.12-2.078-1.413 2.308-3.417 2.1 1.428zm.51-5.065a1.275 1.275 0 1 1 2.55 0 1.275 1.275 0 0 1-2.55 0zm1.89 1.546-2.242-1.191.498-.948 2.251 1.197zm-1.522-2.58a1.283 1.283 0 1 1 2.566 0 1.283 1.283 0 0 1-2.566 0zm2.101 1.48-2.395-.873.368-1.036 2.412.876zm-1.499-3.56a1.3 1.3 0 1 1 2.6.001 1.3 1.3 0 0 1-2.6 0zm1.908 2.455-2.46-.731.603-2.084 2.492.742zm-1.674-3.4a1.303 1.303 0 1 1 2.605-.002 1.303 1.303 0 0 1-2.605.001zm2.326 1.265-2.522-.63.233-.948 2.529.632zm-2.21-2.25a1.308 1.308 0 1 1 2.617-.001 1.308 1.308 0 0 1-2.617 0zm2.479 1.15-2.586-.32.116-.985 2.598.322zm-2.441-3.136a1.323 1.323 0 1 1 2.645 0 1.323 1.323 0 0 1-2.645 0zm2.578 2.029-2.615-.068.037-1.985 2.645.07zm-2.559-2.33a1.322 1.322 0 1 1 2.643 0 1.322 1.322 0 0 1-2.643 0zm2.625.373-2.641-.154.018-.303 2.64.156zm-2.6-.83a1.335 1.335 0 1 1 2.67 0 1.335 1.335 0 0 1-2.67 0zm2.61.607-2.632-.224.025-.459 2.659.228zm-2.566-.869a1.33 1.33 0 1 1 2.66 0 1.33 1.33 0 0 1-2.66 0zm2.615.435-2.64-.393.043-.26 2.632.39zm-2.582-.383a1.312 1.312 0 1 1 2.623 0 1.312 1.312 0 0 1-2.623 0zm.207.71 2.41-.597-.005.049-2.376.589zm-.167-.478a1.276 1.276 0 1 1 2.551 0 1.276 1.276 0 0 1-2.551 0zm-.02-.003 2.59-.055-.03.227-2.52.053zm.129.437a1.167 1.167 0 1 1 2.333 0 1.167 1.167 0 0 1-2.333 0zm-.069-.114h2.47l-.106.407h-2.258z" fill="#f6630d"/><path d="M433.046 228.426a.278.278 0 1 1 .555 0 .278.278 0 0 1-.555 0zm-.112.024a.402.402 0 1 1 .803 0 .402.402 0 0 1-.803 0zm-.055.09a.5.5 0 1 1 1 0 .5.5 0 0 1-1 0zm.219-.414.125-.061.017-.005-.155.077zm-.154.682a.561.561 0 1 1 1.122 0 .561.561 0 0 1-1.122 0zm-.051-.154.886-.415.174.232-.994.465zm.185.466a.556.556 0 1 1 1.112 0 .556.556 0 0 1-1.112 0zm-.088-.088 1.036-.43.124.313-1.026.426zm.132.33a.578.578 0 1 1 1.156 0 .578.578 0 0 1-1.156 0zm-.035-.144 1.066-.295.089.233-1.111.308zm.054.958a.61.61 0 1 1 1.22 0 .61.61 0 0 1-1.22 0zm-.019-.801 1.155-.072.081.812-1.217.075zm-.12 1.4a.652.652 0 1 1 1.303 0 .652.652 0 0 1-1.304 0zm.155-.739 1.202.196-.056.604-1.285-.209zm-.584 1.099a.69.69 0 1 1 1.38.001.69.69 0 0 1-1.38-.001zm.674-.87.88.96-.363.384-.932-1.013zm-1.036.952a.702.702 0 1 1 1.404 0 .702.702 0 0 1-1.404 0zm.92-.758.31 1.343-.348.093-.316-1.368zm-1.403.768a.707.707 0 1 1 1.414.001.707.707 0 0 1-1.414 0zm1.176-.712.033 1.403-.478.016-.033-1.413zm-1.601.563a.709.709 0 1 1 1.417-.001.709.709 0 0 1-1.418.001zm1.37-.516-.471 1.333-.424-.148.473-1.337zm-1.694.154a.71.71 0 1 1 1.42 0 .71.71 0 0 1-1.42 0zm1.563-.109-1.06.944-.322-.361 1.06-.945zm-1.774-.395a.71.71 0 1 1 1.419 0 .71.71 0 0 1-1.42 0zm1.576.23-1.31.549-.21-.505 1.308-.549zm-1.668-.81a.709.709 0 1 1 1.417 0 .709.709 0 0 1-1.417 0zm1.503.466-1.402.226-.093-.58 1.4-.225zm-1.467-1.052a.708.708 0 1 1 1.415 0 .708.708 0 0 1-1.416 0zm1.381.627-1.416-.084.036-.586 1.414.084zm-1.209-1.152a.707.707 0 1 1 1.414.001.707.707 0 0 1-1.414 0zm1.209.744-1.346-.44.172-.524 1.344.439zm-.891-1.138a.705.705 0 1 1 1.41 0 .705.705 0 0 1-1.41 0zm.941.835-1.102-.884.317-.394 1.101.883zm-.47-1.032a.705.705 0 1 1 1.41 0 .705.705 0 0 1-1.41 0zm.508.848-.545-1.303.471-.196.544 1.3zm.154-.857a.704.704 0 1 1 1.409 0 .704.704 0 0 1-1.409 0zm.054.714-.02-1.41.662-.008.019 1.408zm.491-.56a.706.706 0 1 1 1.412 0 .706.706 0 0 1-1.411 0zm-.033.524.382-1.356.546.153-.382 1.358zm.807.175a.713.713 0 1 1 1.425 0 .713.713 0 0 1-1.425 0zm-.543-.177.942-1.05.785.693-.951 1.061zm.952 1.236a.722.722 0 1 1 1.444 0 .722.722 0 0 1-1.444 0zm-.362-.802 1.325-.525.428 1.055-1.343.532zm.48 2.027a.73.73 0 1 1 1.46 0 .73.73 0 0 1-1.46 0zm-.115-1.156 1.437-.147.133 1.224-1.453.148zm-.027 1.78a.737.737 0 1 1 1.475 0 .737.737 0 0 1-1.475 0zm.159-.785 1.428.305-.126.625-1.443-.307zm-.498 1.169a.747.747 0 1 1 1.494 0 .747.747 0 0 1-1.494 0zm.527-.875 1.117.963-.324.389-1.13-.975zm-.957.861a.753.753 0 1 1 1.506.001.753.753 0 0 1-1.506 0zm1.21-.732-.046 1.492-.423-.007.046-1.504zm-1.424.529a.754.754 0 1 1 1.507 0 .754.754 0 0 1-1.507 0zm1.487-.34-1.037 1.09-.214-.203 1.038-1.091zm-1.684-.022a.752.752 0 1 1 1.504 0 .752.752 0 0 1-1.504 0zm1.61-.003-1.322.725-.196-.362 1.318-.724zm-1.871-.846a.752.752 0 1 1 1.503.001.752.752 0 0 1-1.503 0zm1.731.627-1.436.444-.262-.849 1.437-.443zm-1.894-1.635a.75.75 0 1 1 1.5 0 .75.75 0 0 1-1.5 0zm1.656.887-1.484.242-.162-1.01 1.48-.24zm-1.691-1.913a.748.748 0 1 1 1.496 0 .748.748 0 0 1-1.496 0zm1.535.997-1.5.055-.035-1.026 1.495-.055zm-1.414-1.898a.745.745 0 1 1 1.49 0 .745.745 0 0 1-1.49 0zm1.368.996-1.482-.195.121-.9 1.477.194zm-1.225-1.329a.744.744 0 1 1 1.487 0 .744.744 0 0 1-1.487 0zm1.289.621-1.372-.581.143-.333 1.37.58zm-1.091-.815a.743.743 0 1 1 1.486 0 .743.743 0 0 1-1.486 0zm1.068.723-1.042-1.06.197-.194 1.042 1.06zm-.584-.767a.744.744 0 1 1 1.487 0 .744.744 0 0 1-1.488 0zm.325.783-.134-1.479.484-.044.135 1.48zm.145-.49a.745.745 0 1 1 1.49 0 .745.745 0 0 1-1.49 0zm-.121.337.783-1.263.473.291-.785 1.266zm.42.144a.748.748 0 1 1 1.496 0 .748.748 0 0 1-1.496 0zm-.188-.088 1.263-.793.305.48-1.268.796zm.294.544a.751.751 0 1 1 1.503 0 .751.751 0 0 1-1.502 0zm-.087-.286 1.455-.35.113.455-1.461.351zm.167.87a.754.754 0 1 1 1.508 0 .754.754 0 0 1-1.508 0zm-.073-.483 1.488-.21.085.585-1.493.21zm.05 1.77a.76.76 0 1 1 1.52 0 .76.76 0 0 1-1.52 0zm.023-1.3 1.508.02-.012 1.286-1.518-.019zm-.173 1.868a.761.761 0 1 1 1.523 0 .761.761 0 0 1-1.523 0zm.176-.763 1.47.384-.147.568-1.474-.385zm-.453 1.19a.764.764 0 1 1 1.528 0 .764.764 0 0 1-1.528 0zm.4-.842 1.28.823-.272.43-1.285-.827zm-.828 1.062a.766.766 0 1 1 1.533 0 .766.766 0 0 1-1.533 0zm.844-.9.701 1.357-.424.222-.704-1.362zm-1.448.845a.769.769 0 1 1 1.538 0 .769.769 0 0 1-1.538 0zm1.443-.708-.14 1.526-.601-.052.14-1.531zm-1.852.49a.769.769 0 1 1 1.538 0 .769.769 0 0 1-1.538 0zm1.54-.46-.724 1.356-.41-.218.724-1.356zm-1.864.108a.769.769 0 1 1 1.537 0 .769.769 0 0 1-1.537 0zm1.658-.169-1.13 1.042-.325-.352 1.13-1.042zm-2.093-.801a.769.769 0 1 1 1.538 0 .769.769 0 0 1-1.538 0zm1.905.656-1.404.628-.433-.971 1.403-.628zm-2.11-1.756a.767.767 0 1 1 1.534 0 .767.767 0 0 1-1.534 0zm1.73.956-1.511.285-.206-1.1 1.508-.284zm-1.777-1.911a.762.762 0 1 1 1.524 0 .762.762 0 0 1-1.524 0zm1.58.91-1.532.083-.048-.955 1.522-.084zm-1.507-1.198a.754.754 0 1 1 1.508 0 .754.754 0 0 1-1.508 0zm1.436.435-1.486-.337.074-.286 1.47.332zm-1.251-.54a.743.743 0 1 1 1.486 0 .743.743 0 0 1-1.486 0zm.99.73-.777-1.29.179-.096.766 1.273zm-.727-.692a.73.73 0 1 1 1.46.001.73.73 0 0 1-1.46 0zm.405.701.229-1.467.247.052-.225 1.44zm-.093-.558a.711.711 0 1 1 1.422 0 .711.711 0 0 1-1.422 0zm.137.531.636-1.311.284.158-.62 1.279zm.508-.097a.653.653 0 1 1 1.307 0 .653.653 0 0 1-1.307 0zm-.31.17.842-1.142.55.478-.773 1.048zm.779.193a.559.559 0 1 1 1.117 0 .559.559 0 0 1-1.118 0zm-.178.18.898-.92.295.418-.768.786zm.701.294a.381.381 0 1 1 .762 0 .381.381 0 0 1-.762 0zm-.295-.023.86-.629.177.53-.585.43zm.446.159a.323.323 0 1 1 .647-.001.323.323 0 0 1-.647.001zm.011.175.59-.402.036.149-.5.343zM470.13 192.341a.354.354 0 1 1 .709 0 .354.354 0 0 1-.709 0zm-.02 0a.375.375 0 1 1 .75-.001.375.375 0 0 1-.75 0zm-.04-.015a.43.43 0 1 1 .862 0 .43.43 0 0 1-.861 0zm.06-.108a.488.488 0 1 1 .975 0 .488.488 0 0 1-.976 0zm.53.509-.547-.588.064-.133.619.667zm-.042-.879a.52.52 0 1 1 1.039 0 .52.52 0 0 1-1.039 0zm.263.781-.566-.795.501-.394.601.846zm.235-.881a.548.548 0 1 1 1.095 0 .548.548 0 0 1-1.096 0zm.091.615-.195-1.018.52-.13.205 1.077zm.374-.34a.58.58 0 1 1 1.159 0 .58.58 0 0 1-1.16 0zm-.209.19.532-.958.509.247-.561 1.012zm.416.122a.596.596 0 1 1 1.193 0 .596.596 0 0 1-1.193 0zm-.112.006.938-.677.239.3-.967.697zm.297.439a.615.615 0 1 1 1.23 0 .615.615 0 0 1-1.23 0zm-.14-.219 1.084-.494.22.438-1.119.509zm.24.674a.638.638 0 1 1 1.275-.002.638.638 0 0 1-1.276.002zm-.086-.324 1.185-.32.145.447-1.23.332zm.046.605a.66.66 0 1 1 1.322 0 .66.66 0 0 1-1.322 0zm.045-.37 1.27.073.006.28-1.315-.074zm-.19.501a.682.682 0 1 1 1.363 0 .682.682 0 0 1-1.364 0zm.386-.64.948.906-.108.144-.98-.936zm-.61.643a.7.7 0 1 1 1.4 0 .7.7 0 0 1-1.4 0zm.955-.683.021 1.358-.203.022-.021-1.395zm-1.51.394a.722.722 0 1 1 1.444 0 .722.722 0 0 1-1.444 0zm1.61-.314-.666 1.23-.543-.268.688-1.27zm-2.104-.22a.716.716 0 1 1 1.432.001.716.716 0 0 1-1.433 0zm1.739.035-1.055.989-.495-.538 1.045-.98zm-2.11-.88a.716.716 0 1 1 1.433-.001.716.716 0 0 1-1.433.001zm1.743.559-1.312.574-.371-.845 1.313-.575zm-1.688-1.296a.717.717 0 1 1 1.433 0 .717.717 0 0 1-1.433 0zm1.376.79-1.43-.107.056-.737 1.43.107zm-.911-1.31a.717.717 0 1 1 1.434 0 .717.717 0 0 1-1.434 0zm.786.998-1.069-.955.465-.522 1.07.956zm.073-1.196a.72.72 0 1 1 1.439 0 .72.72 0 0 1-1.44 0zm.016.896-.32-1.397.86-.2.322 1.402zm.681-.715a.733.733 0 1 1 1.466 0 .733.733 0 0 1-1.466 0zm-.169.513.355-1.394.715.167-.362 1.421zm.582-.037a.752.752 0 1 1 1.505 0 .752.752 0 0 1-1.505 0zm-.238 0 1.087-.985.446.464-1.115 1.01zm.363.671a.77.77 0 1 1 1.541 0 .77.77 0 0 1-1.54 0zm-.112-.532 1.47-.315.161.666-1.505.323zm-.05 1.297a.78.78 0 1 1 1.56 0 .78.78 0 0 1-1.56 0zm.18-.926 1.51.303-.144.766-1.529-.306zm-.55 1.494a.784.784 0 1 1 1.567 0 .784.784 0 0 1-1.568 0zm.496-.995 1.312.845-.363.57-1.318-.85zm-1.004 1.296a.788.788 0 1 1 1.576.002.788.788 0 0 1-1.576-.002zm.892-.976.806 1.345-.5.305-.81-1.352zm-1.477 1.045a.79.79 0 1 1 1.58 0 .79.79 0 0 1-1.58 0zm1.284-.851.184 1.564-.583.071-.184-1.569zm-1.89.72a.79.79 0 1 1 1.582-.001.79.79 0 0 1-1.582 0zm1.565-.641-.335 1.544-.605-.13.336-1.547zm-2.136.342a.79.79 0 1 1 1.582 0 .79.79 0 0 1-1.582 0zm1.73-.403-.734 1.403-.57-.299.732-1.402zm-2.207-.028a.79.79 0 1 1 1.581-.001.79.79 0 0 1-1.581 0zm1.798-.157-1.06 1.175-.478-.432 1.06-1.174zm-2.125-.375a.789.789 0 1 1 1.578 0 .789.789 0 0 1-1.578 0zm1.788.114-1.344.832-.327-.533 1.341-.83zm-1.908-.713a.786.786 0 1 1 1.572-.001.786.786 0 0 1-1.572.001zm1.681.438-1.546.316-.12-.599 1.541-.316zm-1.506-.542a.783.783 0 1 1 1.565-.001.783.783 0 0 1-1.565 0zm1.032.768-.817-1.343.173-.102.815 1.338zm-.638-.776a.781.781 0 1 1 1.563 0 .781.781 0 0 1-1.563 0zm.406.79-.03-1.566.394-.006.03 1.564zm.023-.738a.782.782 0 1 1 1.564.001.782.782 0 0 1-1.564-.001zm.259.724.188-1.552.429.052-.188 1.552zm.022-.65a.782.782 0 1 1 1.565 0 .782.782 0 0 1-1.565 0zm.3.682.4-1.512.281.074-.399 1.512zm.246-.279a.785.785 0 1 1 1.57.002.785.785 0 0 1-1.57-.002zm-.23.226.928-1.26.55.4-.93 1.265zm.669.344a.787.787 0 1 1 1.574.001.787.787 0 0 1-1.574 0zm-.276-.091 1.242-.96.442.57-1.245.962zm.563.752a.794.794 0 1 1 1.587-.001.794.794 0 0 1-1.587 0zm-.222-.348 1.437-.639.3.656-1.45.645zm.31 1.02a.812.812 0 1 1 1.623 0 .812.812 0 0 1-1.624 0zm-.082-.57 1.568-.248.124.669-1.603.254zm-.048.633a.82.82 0 1 1 1.638-.001.82.82 0 0 1-1.638 0zm.614-.806.738 1.444-.119.069-.745-1.457zm-.894.78a.822.822 0 1 1 1.645 0 .822.822 0 0 1-1.644 0zm1.183-.79-.154 1.632-.277-.024.154-1.636zm-1.478.714a.822.822 0 1 1 1.645 0 .822.822 0 0 1-1.645 0zm1.32-.721-.405 1.593-.296-.075.405-1.593zm-1.5.637a.823.823 0 1 1 1.645 0 .823.823 0 0 1-1.645 0zm1.354-.658-.7 1.487-.18-.084.701-1.488zm-1.65.273a.822.822 0 1 1 1.645 0 .822.822 0 0 1-1.645 0zm1.77-.117-1.303 1.003-.297-.385 1.303-1.004zm-2.047-.413a.823.823 0 1 1 1.645 0 .823.823 0 0 1-1.645 0zm1.828.15-1.458.76-.276-.529 1.458-.761zm-1.992-.713a.821.821 0 1 1 1.643 0 .821.821 0 0 1-1.643 0zm1.775.33-1.578.463-.164-.563 1.575-.463zm-1.735-.818a.816.816 0 1 1 1.631.001.816.816 0 0 1-1.63 0zm1.6.538-1.637-.118.04-.487 1.627.116zm-1.383-.662a.815.815 0 1 1 1.63 0 .815.815 0 0 1-1.63 0zm1.01.829-.817-1.412.217-.124.815 1.41zm-.682-.71a.815.815 0 1 1 1.63 0 .815.815 0 0 1-1.63 0zm.208.646.559-1.53.328.12-.559 1.53zm.105-.424a.815.815 0 1 1 1.63 0 .815.815 0 0 1-1.63 0zm.031.443.94-1.33.313.221-.94 1.33zm.14-.263a.816.816 0 1 1 1.632 0 .816.816 0 0 1-1.632 0zm.052.38 1.178-1.126.174.18-1.181 1.127zm.077.124a.83.83 0 1 1 1.658-.001.83.83 0 0 1-1.659.001zm-.104-.304 1.571-.441.155.5-1.598.448zm-.054.648a.841.841 0 1 1 1.682-.001.841.841 0 0 1-1.682 0zm.233-.692 1.527.651-.136.347-1.547-.659zm-.592.887a.849.849 0 1 1 1.697 0 .849.849 0 0 1-1.697 0zm.805-.938.818 1.469-.347.203-.826-1.484zm-1.284 1a.854.854 0 1 1 1.708-.002.854.854 0 0 1-1.708.001zm1.228-.905.216 1.684-.473.066-.217-1.694zm-2.21.669a.853.853 0 1 1 1.707 0 .853.853 0 0 1-1.707 0zm2.034-.596-.397 1.662-.982-.236.398-1.66zm-2.371.325a.848.848 0 1 1 1.697 0 .848.848 0 0 1-1.697 0zm1.712-.405-1.059 1.339-.339-.275 1.053-1.33zm-1.836.049a.84.84 0 1 1 1.68-.001.84.84 0 0 1-1.68 0zm1.76.042-1.59.591-.124-.36 1.574-.584zm-1.669-.17a.801.801 0 1 1 1.603 0 .801.801 0 0 1-1.603 0zm1.584.214-1.493-.608.082-.104 1.424.58zm-1.204-.238a.68.68 0 1 1 1.362.001.68.68 0 0 1-1.362 0zm.854.697-.128-1.414.214.089.11 1.2zM423.55 170.089a.22.22 0 1 1 .44 0 .22.22 0 0 1-.44 0zm-.06.002a.292.292 0 1 1 .585 0 .292.292 0 0 1-.584 0zm.03.012a.348.348 0 1 1 .697 0 .348.348 0 0 1-.697 0zm.045.183.063-.443.058-.035-.076.528zm.142-.12a.377.377 0 1 1 .754-.001.377.377 0 0 1-.754 0zm.024.257.19-.664.22.033-.207.719zm.123-.161a.399.399 0 1 1 .797 0 .399.399 0 0 1-.797 0zm.008.208.375-.65.176.078-.395.685zm.275.119a.43.43 0 1 1 .861 0 .43.43 0 0 1-.861 0zm-.19-.073.571-.55.338.303-.62.596zm.642 1.067a.461.461 0 1 1 .923 0 .461.461 0 0 1-.923 0zm-.414-.816.775-.377.51.98-.83.403zm.786 1.981a.465.465 0 1 1 .93.001.465.465 0 0 1-.93 0zm-.35-1.025.878-.283.379 1.164-.886.286zm.722 2.027a.468.468 0 1 1 .936 0 .468.468 0 0 1-.936 0zm-.343-.839.871-.327.378 1-.877.33zm2.663 4.79a.47.47 0 1 1 .942 0 .47.47 0 0 1-.942 0zm-2.255-3.714.807-.474 2.325 3.949-.813.478zm4.924 7.457a.473.473 0 1 1 .946-.001.473.473 0 0 1-.946 0zm-2.582-3.469.767-.547 2.673 3.74-.77.55zm5.415 7.11a.473.473 0 1 1 .946 0 .473.473 0 0 1-.946 0zm-2.733-3.351.746-.581 2.834 3.64-.747.582zm5.541 6.997a.473.473 0 1 1 .946 0 .473.473 0 0 1-.946 0zm-2.71-3.358.75-.577 2.808 3.647-.75.577zm5.215 6.48a.473.473 0 1 1 .946.002.473.473 0 0 1-.946-.001zm-2.4-2.825.737-.593 2.505 3.123-.738.592zm5.102 5.849a.473.473 0 1 1 .947 0 .473.473 0 0 1-.947 0zm-2.581-2.708.705-.63 2.702 3.022-.705.631zm5.348 5.67a.473.473 0 1 1 .946 0 .473.473 0 0 1-.946 0zm-2.64-2.64.692-.645 2.767 2.962-.691.647zm5.337 5.584a.475.475 0 1 1 .95 0 .475.475 0 0 1-.95 0zm-2.572-2.623.697-.64 2.7 2.943-.7.641zm6.604 7.332a.475.475 0 1 1 .95 0 .475.475 0 0 1-.95 0zm-3.918-4.4.721-.617 4.032 4.708-.721.618zm5.767 6.844a.475.475 0 1 1 .95 0 .475.475 0 0 1-.95 0zm-1.753-2.158.757-.573 1.849 2.444-.757.573zm3.478 4.78a.474.474 0 1 1 .949 0 .474.474 0 0 1-.949 0zm-1.647-2.361.792-.522 1.726 2.623-.792.521zm3.179 5.066a.474.474 0 1 1 .948 0 .474.474 0 0 1-.948 0zm-1.47-2.471.826-.467 1.53 2.705-.825.466zm2.866 5.284a.476.476 0 1 1 .951 0 .476.476 0 0 1-.951 0zm-1.347-2.602.849-.421 1.4 2.811-.853.423zm3.795 8.457a.483.483 0 1 1 .966 0 .483.483 0 0 1-.966 0zm-2.411-5.672.877-.368 2.462 5.853-.89.373zm4.505 11.68a.49.49 0 1 1 .981 0 .49.49 0 0 1-.981 0zm-2.067-5.849.912-.319 2.108 6.006-.926.324zm3.93 11.826a.491.491 0 1 1 .983 0 .491.491 0 0 1-.983 0zm-1.84-5.831.935-.292 1.865 5.977-.937.292zm2.668 9.126a.491.491 0 1 1 .982 0 .491.491 0 0 1-.982 0zm-.812-3.176.952-.239.828 3.295-.953.24zm1.422 6.528a.496.496 0 1 1 .992 0 .496.496 0 0 1-.992 0zm-.602-3.264.967-.178.619 3.35-.976.18zm1.145 6.624a.504.504 0 1 1 1.008-.001.504.504 0 0 1-1.008 0zm-.536-3.282.978-.16.56 3.358-.995.164zm1.161 6.603a.517.517 0 1 1 1.034 0 .517.517 0 0 1-1.034 0zm-.616-3.229.99-.19.65 3.319-1.015.195zm1.098 6.038a.521.521 0 1 1 1.042 0 .521.521 0 0 1-1.042 0zm-.474-2.722 1.018-.177.49 2.81-1.027.177zm.755 5.599a.527.527 0 1 1 1.054.001.527.527 0 0 1-1.054-.001zm-.28-2.826L467.7 250l.293 2.877-1.048.105zm.586 8.572a.54.54 0 1 1 1.079.001.54.54 0 0 1-1.08 0zm-.305-5.717 1.051-.059.331 5.745-1.076.06zm.502 10.59a.541.541 0 1 1 1.083-.001.541.541 0 0 1-1.083 0zm-.196-4.85 1.077-.045.202 4.872-1.082.044zm.303 9.705a.548.548 0 1 1 1.095 0 .548.548 0 0 1-1.095 0zm-.107-4.844 1.083-.025.118 4.855-1.094.026zm.266 9.738a.558.558 0 1 1 1.116 0 .558.558 0 0 1-1.116 0zm-.159-4.876 1.094-.038.18 4.894-1.115.038zm.266 9.757a.57.57 0 1 1 1.14 0 .57.57 0 0 1-1.14 0zm-.107-4.868 1.115-.027.131 4.88-1.14.028zm.184 6.312a.573.573 0 1 1 1.146 0 .573.573 0 0 1-1.146 0zm-.076-1.413 1.137-.064.084 1.444-1.144.064zm.288 2.9a.574.574 0 1 1 1.147 0 .574.574 0 0 1-1.147 0zm-.206-1.407 1.134-.16.213 1.486-1.136.162zm.843 4.277a.574.574 0 1 1 1.149.001.574.574 0 0 1-1.149-.001zm-.624-2.746 1.12-.249.639 2.87-1.122.25zm1.135 4.27a.575.575 0 1 1 1.15 0 .575.575 0 0 1-1.15 0zm-.481-1.341 1.088-.366.513 1.522-1.09.367zm1.121 2.814a.575.575 0 1 1 1.15 0 .575.575 0 0 1-1.15 0zm-.591-1.245 1.053-.458.64 1.474-1.054.458zm1.22 2.722a.575.575 0 1 1 1.15 0 .575.575 0 0 1-1.15 0zm-.582-1.252 1.057-.45.63 1.477-1.059.45zm1.061 2.788a.578.578 0 1 1 1.156 0 .578.578 0 0 1-1.156 0zm-.453-1.365 1.098-.344.484 1.535-1.103.346zm.713 2.202a.585.585 0 1 1 1.17-.002.585.585 0 0 1-1.17.002zm-.234-.666 1.102-.351.273.834-1.115.356zm.603 1.468a.588.588 0 1 1 1.176 0 .588.588 0 0 1-1.176 0zm-.316-.558 1.063-.493.374.802-1.067.495zm1.162 2.094a.587.587 0 1 1 1.174 0 .587.587 0 0 1-1.174 0zm-.773-1.252 1.03-.567.844 1.536-1.029.566zm.828 1.43a.583.583 0 1 1 1.166 0 .583.583 0 0 1-1.166 0zm-.03-.005 1.129-.327.048.181-1.122.325zm.042.087a.576.576 0 1 1 1.151 0 .576.576 0 0 1-1.151 0zm-.005.012 1.16-.068-.003.079-1.144.067zM384.41 176.637a.27.27 0 1 1 0 0zm-.097-.006a.376.376 0 1 1 .752 0 .376.376 0 0 1-.752 0zm-.01-.003a.39.39 0 1 1 .781 0 .39.39 0 0 1-.78 0zm-.002-.061a.488.488 0 1 1 .976 0 .488.488 0 0 1-.976 0zm.218.41-.215-.33-.002-.056.268.411zm.052-.554a.566.566 0 1 1 1.132.001.566.566 0 0 1-1.132 0zm.305.624-.361-.884.304-.208.42 1.025zm-.166-.487a.607.607 0 1 1 1.213 0 .607.607 0 0 1-1.213 0zm.008.244.675-.886.197.1-.723.95zm.017.15a.623.623 0 1 1 1.246 0 .623.623 0 0 1-1.246 0zm-.024-.355 1.206-.128.057.391-1.238.131zm-.043.983a.627.627 0 1 1 1.253 0 .627.627 0 0 1-1.253 0zm.07-.695 1.24.125-.06.63-1.247-.127zm-.395 2.285a.635.635 0 1 1 1.27 0 .635.635 0 0 1-1.27 0zm.337-1.716 1.23.246-.31 1.591-1.245-.248zm-.795 3.349a.638.638 0 1 1 1.277 0 .638.638 0 0 1-1.277 0zm.481-1.804 1.223.34-.45 1.633-1.23-.342zm-1.49 5.138a.641.641 0 1 1 1.283 0 .641.641 0 0 1-1.282 0zm1.037-3.519 1.222.369-1.002 3.335-1.229-.37zm-3.021 10.416a.643.643 0 1 1 1.285 0 .643.643 0 0 1-1.285 0zm2.01-7.074 1.233.354-1.983 6.898-1.235-.356zm-2.954 10.562a.643.643 0 1 1 1.286 0 .643.643 0 0 1-1.286 0zm.966-3.656 1.241.336-.943 3.488-1.243-.336zm-1.788 7.274a.641.641 0 1 1 1.283 0 .641.641 0 0 1-1.283 0zm.838-3.76 1.254.285-.826 3.618-1.25-.284zm-.754 3.592a.584.584 0 1 1 1.167 0 .584.584 0 0 1-1.167 0zm1.187.048-1.192-.188.077-.14 1.085.17zm-1.094-.37a.542.542 0 1 1 1.084 0 .542.542 0 0 1-1.084 0zm1.074.34-1.143-.183.09-.31 1.063.17zm-.846-1.073a.468.468 0 1 1 .935 0 .468.468 0 0 1-.935 0zm.853.792-1.057-.221.226-.712.91.19zm-.618-1.337a.38.38 0 1 1 .761 0 .38.38 0 0 1-.76 0zm.698.597-.893-.244.229-.509.725.198zm-.556-.916a.322.322 0 1 1 .643 0 .322.322 0 0 1-.643 0zm.619.347-.726-.188.137-.294.613.159z" fill="#352641"/><path d="M383.347 176.836a.37.37 0 1 1 .74-.001.37.37 0 0 1-.74 0zm-.014 0a.384.384 0 1 1 .767 0 .384.384 0 0 1-.768 0zm-.03.136a.562.562 0 1 1 1.124 0 .562.562 0 0 1-1.124 0zm.041-.232.247-.267.091-.032-.36.392zm.179.596a.562.562 0 1 1 1.125.001.562.562 0 0 1-1.125-.001zm-.139-.074.962-.58.22.364-.962.581zm1.096 4.225a.615.615 0 1 1 1.23 0 .615.615 0 0 1-1.23 0zm-.943-4.025 1.092-.265 1.06 4.137-1.193.29zm1.533 8.334a.637.637 0 1 1 1.274 0 .637.637 0 0 1-1.274 0zm-.584-4.226 1.216-.173.635 4.306-1.262.18zm.943 8.56a.645.645 0 1 1 1.29 0 .645.645 0 0 1-1.29 0zm-.357-4.281 1.27-.108.375 4.333-1.285.11zm.625 8.505a.65.65 0 1 1 1.302 0 .65.65 0 0 1-1.302 0zm-.266-4.183 1.286-.084.28 4.224-1.298.084zm.341 4.98a.65.65 0 1 1 1.302 0 .65.65 0 0 1-1.302 0zm-.072-.737 1.296-.12.075.797-1.297.121zm.162 1.573a.652.652 0 1 1 1.304-.001.652.652 0 0 1-1.304.001zm-.086-.766 1.293-.143.094.835-1.297.144zm.15 1.536a.65.65 0 1 1 1.303 0 .65.65 0 0 1-1.302 0zm-.061-.715 1.3-.107.061.77-1.297.107zm.062 1.316a.638.638 0 1 1 1.276 0 .638.638 0 0 1-1.276 0zm0-.602 1.301.028-.025.6-1.276-.026zm.044.326a.61.61 0 1 1 1.22 0 .61.61 0 0 1-1.22 0zm1.232.25-1.268-.075.044-.272 1.213.072zm-1.198-.657a.58.58 0 1 1 1.16-.001.58.58 0 0 1-1.16 0zm1.186.366-1.218-.01.033-.404 1.158.009zm-1.116-1.266a.504.504 0 1 1 1.009 0 .504.504 0 0 1-1.009 0zm1.088.846-1.157.008.07-.893 1.006-.006zm-.96-1.625a.377.377 0 1 1 .753 0 .377.377 0 0 1-.753 0zm.874.697h-.995l.126-.759h.743zm-.86-.773a.362.362 0 1 1 .724 0 .362.362 0 0 1-.724 0zm.733.005h-.74l.014-.073h.712z" fill="#352641"/><path d="M380.182 190.81a.303.303 0 1 1 .606 0 .303.303 0 0 1-.606 0zm-.148.004a.45.45 0 1 1 .9 0 .45.45 0 0 1-.9 0zm-.14.038a.595.595 0 1 1 1.19 0 .595.595 0 0 1-1.19 0zm.154.076a.593.593 0 1 1 1.186 0 .593.593 0 0 1-1.186 0zm.181.46.536-1.064.151.08-.533 1.058zm.833-.328a.617.617 0 1 1 1.233 0 .617.617 0 0 1-1.233 0zm-.509.454.149-1.175 1.04.107-.156 1.224zm1.634-.459a.628.628 0 1 1 1.256 0 .628.628 0 0 1-1.256 0zm-.512.622-.005-1.234 1.136-.016.005 1.257zm2.769-.673a.633.633 0 1 1 1.266 0 .633.633 0 0 1-1.266 0zm-1.617.68-.029-1.256 2.263-.057.029 1.266zm5.153-.59a.598.598 0 1 1 1.196 0 .598.598 0 0 1-1.196 0zm-2.913.543.033-1.266 3.499.126-.03 1.194zm3.368-.543a.526.526 0 1 1 1.052 0 .526.526 0 0 1-1.052 0zm.254.587v-1.174l.37.07v1.034z" fill="#352641"/><path d="M424.006 173.207a.416.416 0 1 1 .833 0 .416.416 0 0 1-.833 0zm-.464.137a.971.971 0 1 1 1.943.001.971.971 0 0 1-1.943-.001zm.101.311a1.077 1.077 0 1 1 2.155-.001 1.077 1.077 0 0 1-2.155.001zm-.057-.023 1.546-1.035.276.228-1.716 1.149zm.351.357a1.011 1.011 0 1 1 2.023 0 1.011 1.011 0 0 1-2.022 0zm.007.411 1.755-1.196.167.362-1.647 1.122zm.11-.206a1.044 1.044 0 1 1 2.087.001 1.044 1.044 0 0 1-2.087 0zm.006.275 1.621-1.175.174.182-1.675 1.215zm1.324 1.453a1.047 1.047 0 1 1 2.093 0 1.047 1.047 0 0 1-2.093 0zm-1.114-1.091 1.654-1.275 1.334 1.725-1.657 1.279zm2.49 2.774a1.086 1.086 0 1 1 2.173.001 1.086 1.086 0 0 1-2.173 0zm-1.142-1.025 1.6-1.347 1.447 1.658-1.662 1.399zm2.073 2.082a1.121 1.121 0 1 1 2.243 0 1.121 1.121 0 0 1-2.243 0zm-.663-.344 1.604-1.464.99 1.032-1.656 1.512zm1.661 1.395a1.146 1.146 0 1 1 2.293-.001 1.146 1.146 0 0 1-2.293 0zm-.693-.282 1.605-1.566 1.042 1.032-1.642 1.602zm1.82 1.539a1.168 1.168 0 1 1 2.336 0 1.168 1.168 0 0 1-2.337 0zm-.836-.495 1.693-1.547 1.163 1.243-1.725 1.575zm1.915 1.784a1.19 1.19 0 1 1 2.38 0 1.19 1.19 0 0 1-2.38 0zm-.809-.542 1.777-1.518 1.117 1.276-1.81 1.545zm1.531 1.382a1.197 1.197 0 1 1 2.394.001 1.197 1.197 0 0 1-2.394-.001zm-.435-.066 1.797-1.56.734.836-1.808 1.57zm1.084.967a1.206 1.206 0 1 1 2.412 0 1.206 1.206 0 0 1-2.412 0zm-.424-.203 1.933-1.411.665.894-1.949 1.423zm1.079 1.11a1.213 1.213 0 1 1 2.426-.001 1.213 1.213 0 0 1-2.426 0zm-.427-.202 1.947-1.424.668.903-1.959 1.432zm1.174 1.06a1.214 1.214 0 1 1 2.428-.001 1.214 1.214 0 0 1-2.428 0zm-.45-.062 1.83-1.595.75.858-1.832 1.596zm1.02.755a1.216 1.216 0 1 1 2.433 0 1.216 1.216 0 0 1-2.432 0zm-.294.078 1.871-1.548.576.692-1.875 1.55zm.79.711a1.226 1.226 0 1 1 2.452 0 1.226 1.226 0 0 1-2.452 0zm-.31-.143 2.05-1.311.512.784-2.065 1.32zm1.276 1.726a1.24 1.24 0 1 1 2.482 0 1.24 1.24 0 0 1-2.482 0zm-.787-.946 2.084-1.291.994 1.575-2.109 1.308zm2.062 2.555a1.251 1.251 0 1 1 2.502 0 1.251 1.251 0 0 1-2.502 0zm-1.007-.839 1.94-1.549 1.292 1.602-1.955 1.562zm2.372 2.322a1.256 1.256 0 1 1 2.512 0 1.256 1.256 0 0 1-2.512 0zm-1.035-.636 1.838-1.699 1.374 1.48-1.844 1.705zm3.914 3.493a1.26 1.26 0 1 1 2.52 0 1.26 1.26 0 0 1-2.52 0zm-2.507-1.966 1.768-1.784 2.885 2.854-1.774 1.79zm3.973 3.443a1.262 1.262 0 1 1 2.524.001 1.262 1.262 0 0 1-2.524 0zm-1.1-.59 1.787-1.776 1.47 1.476-1.79 1.779zm2.482 2.146a1.265 1.265 0 1 1 2.53 0 1.265 1.265 0 0 1-2.53 0zm-1.064-.718 1.885-1.679 1.387 1.554-1.889 1.683zm2.497 2.597a1.269 1.269 0 1 1 2.538.001 1.269 1.269 0 0 1-2.538 0zm-1.174-1.112 2.01-1.537 1.44 1.877-2.016 1.541zm1.913 2.042a1.271 1.271 0 1 1 2.543 0 1.271 1.271 0 0 1-2.542 0zm-.464-.14 1.984-1.583.743.929-1.986 1.584zm1.226.983a1.274 1.274 0 1 1 2.548 0 1.274 1.274 0 0 1-2.548 0zm-.434.008 1.881-1.708.768.84-1.886 1.714zm.954.657a1.286 1.286 0 1 1 2.573 0 1.286 1.286 0 0 1-2.573 0zm-.252.116 1.99-1.59.542.657-2.01 1.606zm.69.643a1.296 1.296 0 1 1 2.593 0 1.296 1.296 0 0 1-2.593 0zm-.266-.117 2.215-1.307.456.752-2.231 1.318zm1.13 1.608a1.314 1.314 0 1 1 2.628 0 1.314 1.314 0 0 1-2.629 0zm-.69-.844 2.23-1.319.899 1.482-2.264 1.338zm1.584 2.201a1.356 1.356 0 1 1 2.711 0 1.356 1.356 0 0 1-2.712 0zm-.68-.639 2.164-1.49.968 1.333-2.233 1.537zm1.49 2.008a1.362 1.362 0 1 1 2.725-.001 1.362 1.362 0 0 1-2.725.001zm-.621-.678 2.327-1.391.823 1.365-2.339 1.398zm1.45 1.927a1.37 1.37 0 1 1 2.74 0 1.37 1.37 0 0 1-2.74 0zm-.603-.498 2.265-1.516.844 1.245-2.28 1.525zm1.419 1.686a1.409 1.409 0 1 1 2.818 0 1.409 1.409 0 0 1-2.818 0zm-.579-.416 2.225-1.601.885 1.165-2.287 1.645zm1.503 1.862a1.42 1.42 0 1 1 2.841 0 1.42 1.42 0 0 1-2.841 0zm-.703-.687 2.367-1.532.944 1.44-2.384 1.543zm1.205 1.432a1.425 1.425 0 1 1 2.85.001 1.425 1.425 0 0 1-2.85-.001zm-.26.048 2.35-1.596.508.742-2.355 1.6zm.488.391a1.425 1.425 0 1 1 2.851 0 1.425 1.425 0 0 1-2.85 0zm-.067.218 2.524-1.318.23.439-2.525 1.319zm.16.19a1.428 1.428 0 1 1 2.857 0 1.428 1.428 0 0 1-2.857 0zm-.057-.092 2.774-.654.1.407-2.781.655zm.076.144a1.429 1.429 0 1 1 2.858 0 1.429 1.429 0 0 1-2.858 0zm.067.435 2.684-.978.02.052-2.685.978zm.027-.402a1.43 1.43 0 1 1 2.86.002 1.43 1.43 0 0 1-2.86-.002zm.857 1.314.944-2.697.094.033-.943 2.698z" fill="#6c0"/><path d="M480.721 203.169a.224.224 0 1 1 .448 0 .224.224 0 0 1-.447 0zm-.185-.013a.419.419 0 1 1 .838 0 .419.419 0 0 1-.838 0zm-.11-.053a.564.564 0 1 1 1.128 0 .564.564 0 0 1-1.129 0zm.026-.165a.638.638 0 1 1 1.276 0 .638.638 0 0 1-1.276 0zm.868.622-.888-.543.027-.176 1.006.614zm-.681-1.052a.632.632 0 1 1 1.263 0 .632.632 0 0 1-1.263 0zm1.042.67-1.176-.496.187-.427 1.165.49zm-.884-1.8a.652.652 0 1 1 1.305 0 .652.652 0 0 1-1.305 0zm1.097 1.24-1.249-.197.158-1.134 1.289.203zm-1.147-2.368a.661.661 0 1 1 1.323 0 .661.661 0 0 1-1.323 0zm1.354 1.108-1.303.048-.05-1.127 1.32-.048zm-1.655-1.387a.665.665 0 1 1 1.33 0 .665.665 0 0 1-1.33 0zm1.417-.2-.902.965-.301-.276.907-.97zm-1.943.209a.665.665 0 1 1 1.33 0 .665.665 0 0 1-1.33 0zm1.179-.673.024 1.328-.525.01-.024-1.33zm-1.726.845a.665.665 0 1 1 1.33 0 .665.665 0 0 1-1.33 0zm1.013-.806.398 1.27-.548.17-.397-1.269zm-1.377 1.012a.665.665 0 1 1 1.33.002.665.665 0 0 1-1.33-.002zm.702-.784.656 1.155-.364.207-.657-1.156zm-1.34 1.513a.665.665 0 1 1 1.33 0 .665.665 0 0 1-1.33 0zm.803-1.167 1 .876-.638.729-1-.875zm-1.272 2.028a.665.665 0 1 1 1.33 0 .665.665 0 0 1-1.33 0zm.55-1.179 1.168.637-.469.86-1.168-.636zm-.875 2.138a.665.665 0 1 1 1.33 0 .665.665 0 0 1-1.33 0zm.36-1.173 1.26.428-.326.959-1.259-.428zm-.568 2.196a.664.664 0 1 1 1.329 0 .664.664 0 0 1-1.329 0zm.221-1.156 1.304.266-.209 1.023-1.303-.265zm-.39 3.26a.665.665 0 1 1 1.33.002.665.665 0 0 1-1.33-.001zm.171-2.157 1.325.106-.168 2.105-1.326-.106zm-.18 4.116a.665.665 0 1 1 1.33 0 .665.665 0 0 1-1.33 0zm.01-1.961 1.329.006-.01 1.959-1.33-.008zm.142 3.696a.664.664 0 1 1 1.33 0 .664.664 0 0 1-1.33 0zm-.15-1.677 1.324-.117.152 1.736-1.323.116zm.56 3.31a.664.664 0 1 1 1.329 0 .664.664 0 0 1-1.329 0zm-.39-1.471 1.29-.324.41 1.633-1.29.323zm.986 3.032a.664.664 0 1 1 1.329 0 .664.664 0 0 1-1.329 0zm-.552-1.324 1.241-.475.597 1.562-1.242.474zm1.263 2.842a.664.664 0 1 1 1.33-.002.664.664 0 0 1-1.33.002zm-.649-1.236 1.204-.564.712 1.518-1.204.564zm2.13 4.262a.665.665 0 1 1 1.33 0 .665.665 0 0 1-1.33 0zm-1.413-2.733 1.194-.586 1.482 3.026-1.196.585zm2.04 4.298a.666.666 0 1 1 1.331.002.666.666 0 0 1-1.331-.001zm-.58-1.318 1.236-.495.628 1.566-1.236.496zm1.037 2.96a.665.665 0 1 1 1.331 0 .665.665 0 0 1-1.33 0zm-.433-1.462 1.283-.358.458 1.641-1.284.358zm.552 2.446a.668.668 0 1 1 1.335 0 .668.668 0 0 1-1.335 0zm-.114-.904 1.323-.161.121.984-1.325.161zm.052 1.786a.668.668 0 1 1 1.337 0 .668.668 0 0 1-1.337 0zm.063-.928 1.332.091-.059.882-1.334-.092zm-.295 1.705a.67.67 0 1 1 1.339 0 .67.67 0 0 1-1.34 0zm.26-.969 1.282.382-.232.778-1.282-.383zm-.654 1.64a.67.67 0 1 1 1.339 0 .67.67 0 0 1-1.339 0zm.486-1.01 1.154.677-.393.672-1.156-.678zm-1.033 1.574a.67.67 0 1 1 1.34 0 .67.67 0 0 1-1.34 0zm.735-1.03.962.931-.545.565-.963-.932zm-1.424 1.485a.67.67 0 1 1 1.34 0 .67.67 0 0 1-1.34 0zm.99-1.014.738 1.118-.69.456-.737-1.12zm-2.76 1.59a.67.67 0 1 1 1.34 0 .67.67 0 0 1-1.34 0zm2.233-1.213.414 1.275-1.77.575-.415-1.274zm-3.843 1.292a.67.67 0 1 1 1.341 0 .67.67 0 0 1-1.341 0zm2.247-.749.066 1.34-1.61.078-.066-1.339zm-2.984.617a.67.67 0 1 1 1.34 0 .67.67 0 0 1-1.34 0zm1.525-.528-.236 1.32-.737-.132.236-1.32zm-2.17.266a.67.67 0 1 1 1.34 0 .67.67 0 0 1-1.34 0zm1.567-.36-.504 1.243-.646-.263.504-1.241zm-2.087-.044a.67.67 0 1 1 1.34 0 .67.67 0 0 1-1.34 0zm1.601-.125-.823 1.057-.52-.404.823-1.057zm-1.958-.434a.669.669 0 1 1 1.338 0 .669.669 0 0 1-1.338 0zm1.59.196-1.127.724-.358-.56 1.126-.721zm-1.752-.92a.668.668 0 1 1 1.337 0 .668.668 0 0 1-1.337 0zm1.483.577-1.305.292-.161-.725 1.303-.291zm-1.413-1.48a.667.667 0 1 1 1.334 0 .667.667 0 0 1-1.334 0zm1.265.952-1.332-.101.07-.903 1.329.1zm-.973-1.708a.667.667 0 1 1 1.334-.001.667.667 0 0 1-1.334 0zm.996.996-1.243-.48.292-.757 1.244.481zm-.476-1.618a.665.665 0 1 1 1.33 0 .665.665 0 0 1-1.33 0zm.66 1.047-1.024-.855.52-.619 1.021.853zm.035-1.538a.661.661 0 1 1 1.322 0 .661.661 0 0 1-1.322 0zm.358 1.032-.77-1.084.692-.489.767 1.079zm.458-1.4a.656.656 0 1 1 1.312 0 .656.656 0 0 1-1.312 0zm.123.969-.548-1.204.814-.364.542 1.195zm1.663-1.362a.64.64 0 1 1 1.28 0 .64.64 0 0 1-1.28 0zm-.982 1.032-.285-1.28 1.773-.379.278 1.251zm1.844-1.07a.632.632 0 1 1 1.263 0 .632.632 0 0 1-1.263 0zm-.187.677-.056-1.28.853-.029.056 1.262zm.958-.617a.622.622 0 1 1 1.244-.001.622.622 0 0 1-1.244 0zm-.181.57.098-1.26.761.07-.097 1.24zm.669-.408a.61.61 0 1 1 1.221 0 .61.61 0 0 1-1.221 0zm-.053.431.402-1.177.472.173-.394 1.156zm.452-.13a.592.592 0 1 1 1.184 0 .592.592 0 0 1-1.184 0zm-.149.192.758-.957.368.314-.734.929zm.745.658a.472.472 0 1 1 .944-.001.472.472 0 0 1-.944.001zm-.482-.5 1.027-.574.364.896-.817.458zm.632.77a.383.383 0 1 1 .766 0 .383.383 0 0 1-.766 0zm-.081-.023.872-.2-.026.262-.708.162zm.217.277a.281.281 0 0 1 .56 0 .281.281 0 0 1-.56 0zm-.08-.055.695-.09-.066.225-.509.065z" fill="#352641"/></g></svg>