<?xml version="1.0"?>
<!-- Created by MetaPost 2.000 on 2023.05.09:1216 -->
<svg version="1.1" xmlns="http://www.w3.org/2000/svg" xmlns:xlink="http://www.w3.org/1999/xlink" width="99.289686" height="133.769210" viewBox="0 0 99.289686 133.769210">
<!-- Original BoundingBox: -41.253807 -81.654308 58.035878 52.114902 -->
  <defs>
    <g transform="scale(0.009963,0.009963)" id="GLYPHcmmi10_80">
      <path style="fill-rule: evenodd;" d="M303.000000 -316.000000L473.000000 -316.000000C615.000000 -316.000000,754.000000 -420.000000,754.000000 -532.000000C754.000000 -609.000000,688.000000 -683.000000,557.000000 -683.000000L233.000000 -683.000000C214.000000 -683.000000,203.000000 -683.000000,203.000000 -664.000000C203.000000 -652.000000,212.000000 -652.000000,232.000000 -652.000000C245.000000 -652.000000,263.000000 -651.000000,275.000000 -650.000000C291.000000 -648.000000,297.000000 -645.000000,297.000000 -634.000000C297.000000 -630.000000,296.000000 -627.000000,293.000000 -615.000000L159.000000 -78.000000C149.000000 -39.000000,147.000000 -31.000000,68.000000 -31.000000C51.000000 -31.000000,40.000000 -31.000000,40.000000 -12.000000C40.000000 -0.000000,52.000000 -0.000000,55.000000 -0.000000C83.000000 -0.000000,154.000000 -3.000000,182.000000 -3.000000C203.000000 -3.000000,225.000000 -2.000000,246.000000 -2.000000C268.000000 -2.000000,290.000000 -0.000000,311.000000 -0.000000C318.000000 -0.000000,331.000000 -0.000000,331.000000 -20.000000C331.000000 -31.000000,322.000000 -31.000000,303.000000 -31.000000C266.000000 -31.000000,238.000000 -31.000000,238.000000 -49.000000C238.000000 -55.000000,240.000000 -60.000000,241.000000 -66.000000M375.000000 -614.000000C384.000000 -649.000000,386.000000 -652.000000,429.000000 -652.000000L525.000000 -652.000000C608.000000 -652.000000,661.000000 -625.000000,661.000000 -556.000000C661.000000 -517.000000,641.000000 -431.000000,602.000000 -395.000000C552.000000 -350.000000,492.000000 -342.000000,448.000000 -342.000000L307.000000 -342.000000"></path>
    </g>
    <g transform="scale(0.009963,0.009963)" id="GLYPHcmmi10_83">
      <path style="fill-rule: evenodd;" d="M645.000000 -695.000000C645.000000 -698.000000,643.000000 -705.000000,634.000000 -705.000000C629.000000 -705.000000,628.000000 -704.000000,616.000000 -690.000000L568.000000 -633.000000C542.000000 -680.000000,490.000000 -705.000000,425.000000 -705.000000C298.000000 -705.000000,178.000000 -590.000000,178.000000 -469.000000C178.000000 -388.000000,231.000000 -342.000000,282.000000 -327.000000L389.000000 -299.000000C426.000000 -290.000000,481.000000 -275.000000,481.000000 -193.000000C481.000000 -103.000000,399.000000 -9.000000,301.000000 -9.000000C237.000000 -9.000000,126.000000 -31.000000,126.000000 -155.000000C126.000000 -179.000000,131.000000 -203.000000,132.000000 -209.000000C133.000000 -213.000000,134.000000 -214.000000,134.000000 -216.000000C134.000000 -226.000000,127.000000 -227.000000,122.000000 -227.000000C117.000000 -227.000000,115.000000 -226.000000,112.000000 -223.000000C108.000000 -219.000000,52.000000 9.000000,52.000000 12.000000C52.000000 18.000000,57.000000 22.000000,63.000000 22.000000C68.000000 22.000000,69.000000 21.000000,81.000000 7.000000L130.000000 -50.000000C173.000000 8.000000,241.000000 22.000000,299.000000 22.000000C435.000000 22.000000,553.000000 -111.000000,553.000000 -235.000000C553.000000 -304.000000,519.000000 -338.000000,504.000000 -352.000000C481.000000 -375.000000,466.000000 -379.000000,377.000000 -402.000000C355.000000 -408.000000,319.000000 -418.000000,310.000000 -420.000000C283.000000 -429.000000,249.000000 -458.000000,249.000000 -511.000000C249.000000 -592.000000,329.000000 -677.000000,424.000000 -677.000000C507.000000 -677.000000,568.000000 -634.000000,568.000000 -522.000000C568.000000 -490.000000,564.000000 -472.000000,564.000000 -466.000000C564.000000 -465.000000,564.000000 -456.000000,576.000000 -456.000000C586.000000 -456.000000,587.000000 -459.000000,591.000000 -476.000000"></path>
    </g>
    <g transform="scale(0.006974,0.006974)" id="GLYPHcmr7_49">
      <path style="fill-rule: evenodd;" d="M335.000000 -636.000000C335.000000 -663.000000,333.000000 -664.000000,305.000000 -664.000000C241.000000 -601.000000,150.000000 -600.000000,109.000000 -600.000000L109.000000 -564.000000C133.000000 -564.000000,199.000000 -564.000000,254.000000 -592.000000L254.000000 -82.000000C254.000000 -49.000000,254.000000 -36.000000,154.000000 -36.000000L116.000000 -36.000000L116.000000 -0.000000C134.000000 -1.000000,257.000000 -4.000000,294.000000 -4.000000C325.000000 -4.000000,451.000000 -1.000000,473.000000 -0.000000L473.000000 -36.000000L435.000000 -36.000000C335.000000 -36.000000,335.000000 -49.000000,335.000000 -82.000000"></path>
    </g>
    <g transform="scale(0.006974,0.006974)" id="GLYPHcmr7_50">
      <path style="fill-rule: evenodd;" d="M505.000000 -182.000000L471.000000 -182.000000C468.000000 -160.000000,458.000000 -101.000000,445.000000 -91.000000C437.000000 -85.000000,360.000000 -85.000000,346.000000 -85.000000L162.000000 -85.000000C267.000000 -178.000000,302.000000 -206.000000,362.000000 -253.000000C436.000000 -312.000000,505.000000 -374.000000,505.000000 -469.000000C505.000000 -590.000000,399.000000 -664.000000,271.000000 -664.000000C147.000000 -664.000000,63.000000 -577.000000,63.000000 -485.000000C63.000000 -434.000000,106.000000 -429.000000,116.000000 -429.000000C140.000000 -429.000000,169.000000 -446.000000,169.000000 -482.000000C169.000000 -500.000000,162.000000 -535.000000,110.000000 -535.000000C141.000000 -606.000000,209.000000 -628.000000,256.000000 -628.000000C356.000000 -628.000000,408.000000 -550.000000,408.000000 -469.000000C408.000000 -382.000000,346.000000 -313.000000,314.000000 -277.000000L73.000000 -39.000000C63.000000 -30.000000,63.000000 -28.000000,63.000000 -0.000000L475.000000 -0.000000"></path>
    </g>
  </defs>
  <path d="M46.000000 52.000000L98.785878 58.956833" style="stroke:rgb(0.000000%,0.000000%,0.000000%); stroke-width: 0.500000;stroke-linecap: round;stroke-linejoin: round;stroke-miterlimit: 10.000000;fill: none;"></path>
  <path d="M71.000000 82.000000L98.785878 58.956833" style="stroke:rgb(48.235000%,78.824000%,60.392000%); stroke-width: 0.500000;stroke-linecap: round;stroke-linejoin: round;stroke-miterlimit: 10.000000;fill: none;"></path>
  <path d="M46.000000 52.000000L66.341677 0.135098" style="stroke:rgb(0.000000%,0.000000%,0.000000%); stroke-width: 0.500000;stroke-linecap: round;stroke-linejoin: round;stroke-miterlimit: 10.000000;fill: none;"></path>
  <path d="M71.000000 82.000000L66.341677 0.135098" style="stroke:rgb(48.235000%,78.824000%,60.392000%); stroke-width: 0.500000;stroke-linecap: round;stroke-linejoin: round;stroke-miterlimit: 10.000000;fill: none;"></path>
  <path d="M46.000000 52.000000L-0.003807 37.098890" style="stroke:rgb(0.000000%,0.000000%,0.000000%); stroke-width: 0.500000;stroke-linecap: round;stroke-linejoin: round;stroke-miterlimit: 10.000000;fill: none;"></path>
  <path d="M71.000000 82.000000L-0.003807 37.098890" style="stroke:rgb(48.235000%,78.824000%,60.392000%); stroke-width: 0.500000;stroke-linecap: round;stroke-linejoin: round;stroke-miterlimit: 10.000000;fill: none;"></path>
  <path d="M46.000000 52.000000L11.492459 100.484520" style="stroke:rgb(0.000000%,0.000000%,0.000000%); stroke-width: 0.500000;stroke-linecap: round;stroke-linejoin: round;stroke-miterlimit: 10.000000;fill: none;"></path>
  <path d="M71.000000 82.000000L11.492459 100.484520" style="stroke:rgb(48.235000%,78.824000%,60.392000%); stroke-width: 0.500000;stroke-linecap: round;stroke-linejoin: round;stroke-miterlimit: 10.000000;fill: none;"></path>
  <path d="M46.000000 52.000000L68.556194 133.404308" style="stroke:rgb(0.000000%,0.000000%,0.000000%); stroke-width: 0.500000;stroke-linecap: round;stroke-linejoin: round;stroke-miterlimit: 10.000000;fill: none;"></path>
  <path d="M71.000000 82.000000L68.556194 133.404308" style="stroke:rgb(48.235000%,78.824000%,60.392000%); stroke-width: 0.500000;stroke-linecap: round;stroke-linejoin: round;stroke-miterlimit: 10.000000;fill: none;"></path>
  <g transform="translate(37.710800 44.505600)" style="fill: rgb(0.000000%,0.000000%,0.000000%);">
    <use xlink:href="#GLYPHcmmi10_83"></use>
  </g>
  <g transform="translate(43.819800 46.000000)" style="fill: rgb(0.000000%,0.000000%,0.000000%);">
    <use xlink:href="#GLYPHcmr7_49"></use>
  </g>
  <g transform="translate(73.100000 90.907800)" style="fill: rgb(0.000000%,0.000000%,0.000000%);">
    <use xlink:href="#GLYPHcmmi10_83"></use>
  </g>
  <g transform="translate(79.209000 92.402200)" style="fill: rgb(0.000000%,0.000000%,0.000000%);">
    <use xlink:href="#GLYPHcmr7_50"></use>
  </g>
  <path d="M43.500000 112.000000C43.500000 111.867392,43.447322 111.740215,43.353553 111.646447C43.259785 111.552678,43.132608 111.500000,43.000000 111.500000C42.867392 111.500000,42.740215 111.552678,42.646447 111.646447C42.552678 111.740215,42.500000 111.867392,42.500000 112.000000C42.500000 112.132608,42.552678 112.259785,42.646447 112.353553C42.740215 112.447322,42.867392 112.500000,43.000000 112.500000C43.132608 112.500000,43.259785 112.447322,43.353553 112.353553C43.447322 112.259785,43.500000 112.132608,43.500000 112.000000Z" style="fill: rgb(0.000000%,0.000000%,0.000000%);stroke: none;"></path>
  <g transform="translate(39.110050 109.000000)" style="fill: rgb(0.000000%,0.000000%,0.000000%);">
    <use xlink:href="#GLYPHcmmi10_80"></use>
  </g>
  <path d="M98.785878 58.956833L66.341677 0.135098L-0.003807 37.098890L11.492459 100.484520L68.556194 133.404308Z" style="stroke:rgb(0.000000%,0.000000%,0.000000%); stroke-width: 0.500000;stroke-linecap: round;stroke-linejoin: round;stroke-miterlimit: 10.000000;fill: none;"></path>
</svg>
