<?xml version="1.0"?>
<!-- Created by MetaPost 2.02 on 2023.05.10:1552 -->
<svg version="1.1" xmlns="http://www.w3.org/2000/svg" xmlns:xlink="http://www.w3.org/1999/xlink" width="200.797028" height="223.120285" viewBox="0 0 200.797028 223.120285">
<!-- Original BoundingBox: -100.398514 -52.721786 100.398514 170.398499 -->
  <defs>
    <g transform="scale(0.009963,0.009963)" id="GLYPHcmmi10_11">
      <path style="fill-rule: evenodd;" d="M477.000000 -236.000000C477.000000 -393.000000,384.000000 -442.000000,310.000000 -442.000000C173.000000 -442.000000,41.000000 -299.000000,41.000000 -158.000000C41.000000 -65.000000,101.000000 11.000000,203.000000 11.000000C266.000000 11.000000,338.000000 -12.000000,414.000000 -73.000000C427.000000 -20.000000,460.000000 11.000000,505.000000 11.000000C558.000000 11.000000,589.000000 -44.000000,589.000000 -60.000000C589.000000 -67.000000,583.000000 -70.000000,577.000000 -70.000000C570.000000 -70.000000,567.000000 -67.000000,564.000000 -60.000000C546.000000 -11.000000,510.000000 -11.000000,508.000000 -11.000000C477.000000 -11.000000,477.000000 -89.000000,477.000000 -113.000000C477.000000 -134.000000,477.000000 -136.000000,487.000000 -148.000000C581.000000 -266.000000,602.000000 -382.000000,602.000000 -383.000000C602.000000 -385.000000,601.000000 -393.000000,590.000000 -393.000000C580.000000 -393.000000,580.000000 -390.000000,575.000000 -372.000000C557.000000 -309.000000,524.000000 -233.000000,477.000000 -174.000000M410.000000 -99.000000C322.000000 -22.000000,245.000000 -11.000000,205.000000 -11.000000C145.000000 -11.000000,115.000000 -56.000000,115.000000 -120.000000C115.000000 -169.000000,141.000000 -277.000000,173.000000 -328.000000C220.000000 -401.000000,274.000000 -420.000000,309.000000 -420.000000C408.000000 -420.000000,408.000000 -289.000000,408.000000 -211.000000C408.000000 -174.000000,408.000000 -116.000000,410.000000 -99.000000"></path>
    </g>
    <g transform="scale(0.009963,0.009963)" id="GLYPHcmmi10_12">
      <path style="fill-rule: evenodd;" d="M575.000000 -569.000000C575.000000 -644.000000,520.000000 -706.000000,439.000000 -706.000000C381.000000 -706.000000,353.000000 -690.000000,318.000000 -664.000000C263.000000 -624.000000,208.000000 -527.000000,189.000000 -451.000000L30.000000 184.000000C29.000000 188.000000,34.000000 194.000000,42.000000 194.000000C50.000000 194.000000,53.000000 192.000000,54.000000 189.000000L124.000000 -87.000000C143.000000 -27.000000,187.000000 10.000000,260.000000 10.000000C333.000000 10.000000,408.000000 -25.000000,453.000000 -69.000000C501.000000 -115.000000,533.000000 -179.000000,533.000000 -253.000000C533.000000 -325.000000,496.000000 -377.000000,460.000000 -402.000000C518.000000 -435.000000,575.000000 -497.000000,575.000000 -569.000000M395.000000 -403.000000C382.000000 -398.000000,371.000000 -396.000000,347.000000 -396.000000C333.000000 -396.000000,313.000000 -395.000000,303.000000 -400.000000C305.000000 -410.000000,341.000000 -408.000000,352.000000 -408.000000C373.000000 -408.000000,382.000000 -408.000000,395.000000 -403.000000M519.000000 -592.000000C519.000000 -522.000000,481.000000 -450.000000,429.000000 -419.000000C402.000000 -429.000000,382.000000 -431.000000,352.000000 -431.000000C331.000000 -431.000000,275.000000 -432.000000,275.000000 -399.000000C274.000000 -371.000000,326.000000 -374.000000,344.000000 -374.000000C381.000000 -374.000000,396.000000 -375.000000,426.000000 -387.000000C464.000000 -351.000000,469.000000 -320.000000,470.000000 -274.000000C472.000000 -216.000000,448.000000 -141.000000,420.000000 -102.000000C381.000000 -48.000000,314.000000 -12.000000,257.000000 -12.000000C181.000000 -12.000000,143.000000 -70.000000,143.000000 -141.000000C143.000000 -151.000000,143.000000 -166.000000,148.000000 -185.000000L212.000000 -438.000000C234.000000 -524.000000,306.000000 -683.000000,426.000000 -683.000000C484.000000 -683.000000,519.000000 -652.000000,519.000000 -592.000000"></path>
    </g>
    <g transform="scale(0.009963,0.009963)" id="GLYPHcmmi10_108">
      <path style="fill-rule: evenodd;" d="M258.000000 -683.000000C258.000000 -684.000000,258.000000 -694.000000,245.000000 -694.000000C222.000000 -694.000000,149.000000 -686.000000,123.000000 -684.000000C115.000000 -683.000000,104.000000 -682.000000,104.000000 -663.000000C104.000000 -652.000000,114.000000 -652.000000,129.000000 -652.000000C177.000000 -652.000000,178.000000 -643.000000,178.000000 -635.000000L175.000000 -615.000000L49.000000 -115.000000C46.000000 -104.000000,44.000000 -97.000000,44.000000 -81.000000C44.000000 -24.000000,88.000000 11.000000,135.000000 11.000000C168.000000 11.000000,193.000000 -9.000000,210.000000 -45.000000C228.000000 -83.000000,240.000000 -141.000000,240.000000 -143.000000C240.000000 -153.000000,231.000000 -153.000000,228.000000 -153.000000C218.000000 -153.000000,217.000000 -149.000000,214.000000 -135.000000C197.000000 -70.000000,178.000000 -11.000000,138.000000 -11.000000C108.000000 -11.000000,108.000000 -43.000000,108.000000 -57.000000C108.000000 -81.000000,109.000000 -86.000000,114.000000 -105.000000"></path>
    </g>
    <g transform="scale(0.006974,0.006974)" id="GLYPHcmmi7_110">
      <path style="fill-rule: evenodd;" d="M122.000000 -63.000000C118.000000 -50.000000,112.000000 -25.000000,112.000000 -22.000000C112.000000 -0.000000,130.000000 10.000000,146.000000 10.000000C164.000000 10.000000,180.000000 -3.000000,185.000000 -12.000000C190.000000 -21.000000,198.000000 -53.000000,203.000000 -74.000000C208.000000 -93.000000,219.000000 -139.000000,225.000000 -164.000000C231.000000 -186.000000,237.000000 -208.000000,242.000000 -231.000000C253.000000 -272.000000,255.000000 -280.000000,284.000000 -321.000000C312.000000 -361.000000,359.000000 -413.000000,434.000000 -413.000000C492.000000 -413.000000,493.000000 -362.000000,493.000000 -343.000000C493.000000 -283.000000,450.000000 -172.000000,434.000000 -130.000000C423.000000 -102.000000,419.000000 -93.000000,419.000000 -76.000000C419.000000 -23.000000,463.000000 10.000000,514.000000 10.000000C614.000000 10.000000,658.000000 -128.000000,658.000000 -143.000000C658.000000 -156.000000,645.000000 -156.000000,642.000000 -156.000000C628.000000 -156.000000,627.000000 -150.000000,623.000000 -139.000000C600.000000 -59.000000,557.000000 -18.000000,517.000000 -18.000000C496.000000 -18.000000,492.000000 -32.000000,492.000000 -53.000000C492.000000 -76.000000,497.000000 -89.000000,515.000000 -134.000000C527.000000 -165.000000,568.000000 -271.000000,568.000000 -327.000000C568.000000 -424.000000,491.000000 -441.000000,438.000000 -441.000000C355.000000 -441.000000,299.000000 -390.000000,269.000000 -350.000000C262.000000 -419.000000,203.000000 -441.000000,162.000000 -441.000000C119.000000 -441.000000,96.000000 -410.000000,83.000000 -387.000000C61.000000 -350.000000,47.000000 -293.000000,47.000000 -288.000000C47.000000 -275.000000,61.000000 -275.000000,64.000000 -275.000000C78.000000 -275.000000,79.000000 -278.000000,86.000000 -305.000000C101.000000 -364.000000,120.000000 -413.000000,159.000000 -413.000000C185.000000 -413.000000,192.000000 -391.000000,192.000000 -364.000000C192.000000 -345.000000,183.000000 -308.000000,176.000000 -281.000000C169.000000 -254.000000,159.000000 -213.000000,154.000000 -191.000000"></path>
    </g>
    <g transform="scale(0.009963,0.009963)" id="GLYPHcmr10_49">
      <path style="fill-rule: evenodd;" d="M294.000000 -640.000000C294.000000 -664.000000,294.000000 -666.000000,271.000000 -666.000000C209.000000 -602.000000,121.000000 -602.000000,89.000000 -602.000000L89.000000 -571.000000C109.000000 -571.000000,168.000000 -571.000000,220.000000 -597.000000L220.000000 -79.000000C220.000000 -43.000000,217.000000 -31.000000,127.000000 -31.000000L95.000000 -31.000000L95.000000 -0.000000C130.000000 -3.000000,217.000000 -3.000000,257.000000 -3.000000C297.000000 -3.000000,384.000000 -3.000000,419.000000 -0.000000L419.000000 -31.000000L387.000000 -31.000000C297.000000 -31.000000,294.000000 -42.000000,294.000000 -79.000000"></path>
    </g>
  </defs>
  <path d="M0.398514 170.398499L20.087006 213.699890" style="stroke:rgb(60.392761%,44.706726%,67.451477%); stroke-width: 0.797012;stroke-linecap: round;stroke-linejoin: round;stroke-miterlimit: 10.000000;fill: none;"></path>
  <path d="M20.087006 213.699890L120.087006 213.699890" style="stroke:rgb(60.392761%,44.706726%,67.451477%); stroke-width: 0.797012;stroke-linecap: round;stroke-linejoin: round;stroke-miterlimit: 10.000000;fill: none;"></path>
  <path d="M120.087006 213.699890L200.398514 170.398499" style="stroke:rgb(60.392761%,44.706726%,67.451477%); stroke-width: 0.797012;stroke-linecap: round;stroke-linejoin: round;stroke-miterlimit: 10.000000;fill: none;"></path>
  <path d="M200.398514 170.398499L180.710022 127.097107" style="stroke:rgb(60.392761%,44.706726%,67.451477%); stroke-width: 0.797012;stroke-linecap: round;stroke-linejoin: round;stroke-miterlimit: 10.000000;fill: none;"></path>
  <path d="M180.710022 127.097107L80.710022 127.097107" style="stroke:rgb(60.392761%,44.706726%,67.451477%); stroke-width: 0.797012;stroke-linecap: round;stroke-dasharray: 3.000000 3.000000 ;stroke-linejoin: round;stroke-miterlimit: 10.000000;fill: none;"></path>
  <path d="M80.710022 127.097107L0.398514 170.398499" style="stroke:rgb(60.392761%,44.706726%,67.451477%); stroke-width: 0.797012;stroke-linecap: round;stroke-dasharray: 3.000000 3.000000 ;stroke-linejoin: round;stroke-miterlimit: 10.000000;fill: none;"></path>
  <path d="M100.398514 0.398514L0.398514 170.398499" style="stroke:rgb(60.392761%,44.706726%,67.451477%); stroke-width: 0.797012;stroke-linecap: round;stroke-linejoin: round;stroke-miterlimit: 10.000000;fill: none;"></path>
  <path d="M100.398514 0.398514L20.087006 213.699890" style="stroke:rgb(60.392761%,44.706726%,67.451477%); stroke-width: 0.797012;stroke-linecap: round;stroke-linejoin: round;stroke-miterlimit: 10.000000;fill: none;"></path>
  <path d="M100.398514 0.398514L120.087006 213.699890" style="stroke:rgb(60.392761%,44.706726%,67.451477%); stroke-width: 0.797012;stroke-linecap: round;stroke-linejoin: round;stroke-miterlimit: 10.000000;fill: none;"></path>
  <path d="M100.398514 0.398514L200.398514 170.398499" style="stroke:rgb(60.392761%,44.706726%,67.451477%); stroke-width: 0.797012;stroke-linecap: round;stroke-linejoin: round;stroke-miterlimit: 10.000000;fill: none;"></path>
  <path d="M100.398514 0.398514L180.710022 127.097107" style="stroke:rgb(60.392761%,44.706726%,67.451477%); stroke-width: 0.797012;stroke-linecap: round;stroke-linejoin: round;stroke-miterlimit: 10.000000;fill: none;"></path>
  <path d="M100.398514 0.398514L80.710022 127.097107" style="stroke:rgb(60.392761%,44.706726%,67.451477%); stroke-width: 0.797012;stroke-linecap: round;stroke-dasharray: 3.000000 3.000000 ;stroke-linejoin: round;stroke-miterlimit: 10.000000;fill: none;"></path>
  <path d="M160.242752 192.049194L130.320633 181.223846" style="stroke:rgb(0.000000%,0.000000%,0.000000%); stroke-width: 0.797012;stroke-linecap: round;stroke-dasharray: 3.000000 3.000000 ;stroke-linejoin: round;stroke-miterlimit: 10.000000;fill: none;"></path>
  <path d="M160.242752 192.049194L145.281693 144.136520" style="stroke:rgb(0.000000%,0.000000%,0.000000%); stroke-width: 0.797012;stroke-linecap: round;stroke-linejoin: round;stroke-miterlimit: 10.000000;fill: none;"></path>
  <path d="M145.281693 186.636520C145.281693 179.720200,147.963089 173.073212,152.762222 168.092865" style="stroke:rgb(0.000000%,0.000000%,0.000000%); stroke-width: 0.797012;stroke-linecap: round;stroke-linejoin: round;stroke-miterlimit: 10.000000;fill: none;"></path>
  <g transform="translate(162.342743 198.438690)" style="fill: rgb(0.000000%,0.000000%,0.000000%);">
    <use xlink:href="#GLYPHcmmi10_11"></use>
  </g>
  <g transform="translate(168.715836 199.933090)" style="fill: rgb(0.000000%,0.000000%,0.000000%);">
    <use xlink:href="#GLYPHcmmi7_110"></use>
  </g>
  <path d="M110.242767 107.049210L80.242447 107.049210" style="stroke:rgb(0.000000%,0.000000%,0.000000%); stroke-width: 0.797012;stroke-linecap: round;stroke-linejoin: round;stroke-miterlimit: 10.000000;fill: none;"></path>
  <path d="M110.242767 107.049210L134.336456 94.058655" style="stroke:rgb(0.000000%,0.000000%,0.000000%); stroke-width: 0.797012;stroke-linecap: round;stroke-linejoin: round;stroke-miterlimit: 10.000000;fill: none;"></path>
  <path d="M95.242615 107.049210C103.441132 102.315811,112.835693 100.059723,122.289612 100.553940" style="stroke:rgb(0.000000%,0.000000%,0.000000%); stroke-width: 0.797012;stroke-linecap: round;stroke-linejoin: round;stroke-miterlimit: 10.000000;fill: none;"></path>
  <g transform="translate(121.178360 90.021469)" style="fill: rgb(0.000000%,0.000000%,0.000000%);">
    <use xlink:href="#GLYPHcmmi10_12"></use>
  </g>
  <g transform="translate(126.813461 91.515869)" style="fill: rgb(0.000000%,0.000000%,0.000000%);">
    <use xlink:href="#GLYPHcmmi7_110"></use>
  </g>
  <g transform="translate(39.902924 81.804123)" style="fill: rgb(0.000000%,0.000000%,0.000000%);">
    <use xlink:href="#GLYPHcmmi10_108"></use>
  </g>
  <g transform="translate(42.875519 83.298523)" style="fill: rgb(0.000000%,0.000000%,0.000000%);">
    <use xlink:href="#GLYPHcmmi7_110"></use>
  </g>
  <g transform="translate(67.596359 223.120285)" style="fill: rgb(0.000000%,0.000000%,0.000000%);">
    <use xlink:href="#GLYPHcmr10_49"></use>
  </g>
</svg>
