<?xml version="1.0"?>
<!-- Created by MetaPost 2.02 on 2023.05.28:1506 -->
<svg version="1.1" xmlns="http://www.w3.org/2000/svg" xmlns:xlink="http://www.w3.org/1999/xlink" width="227.000000" height="42.000000" viewBox="0 0 227.000000 42.000000">
<!-- Original BoundingBox: -63.500000 -1.000000 163.500000 41.000000 -->
  <defs>
    <g transform="scale(0.009963,0.009963)" id="GLYPHcmmi10_97">
      <path style="fill-rule: evenodd;" d="M373.000000 -378.000000C355.000000 -415.000000,326.000000 -442.000000,281.000000 -442.000000C164.000000 -442.000000,40.000000 -295.000000,40.000000 -149.000000C40.000000 -55.000000,95.000000 11.000000,173.000000 11.000000C193.000000 11.000000,243.000000 7.000000,303.000000 -64.000000C311.000000 -22.000000,346.000000 11.000000,394.000000 11.000000C429.000000 11.000000,452.000000 -12.000000,468.000000 -44.000000C485.000000 -80.000000,498.000000 -141.000000,498.000000 -143.000000C498.000000 -153.000000,489.000000 -153.000000,486.000000 -153.000000C476.000000 -153.000000,475.000000 -149.000000,472.000000 -135.000000C455.000000 -70.000000,437.000000 -11.000000,396.000000 -11.000000C369.000000 -11.000000,366.000000 -37.000000,366.000000 -57.000000C366.000000 -79.000000,368.000000 -87.000000,379.000000 -131.000000C390.000000 -173.000000,392.000000 -183.000000,401.000000 -221.000000L437.000000 -361.000000C444.000000 -389.000000,444.000000 -391.000000,444.000000 -395.000000C444.000000 -412.000000,432.000000 -422.000000,415.000000 -422.000000C391.000000 -422.000000,376.000000 -400.000000,373.000000 -378.000000M308.000000 -119.000000C303.000000 -101.000000,303.000000 -99.000000,288.000000 -82.000000C244.000000 -27.000000,203.000000 -11.000000,175.000000 -11.000000C125.000000 -11.000000,111.000000 -66.000000,111.000000 -105.000000C111.000000 -155.000000,143.000000 -278.000000,166.000000 -324.000000C197.000000 -383.000000,242.000000 -420.000000,282.000000 -420.000000C347.000000 -420.000000,361.000000 -338.000000,361.000000 -332.000000C361.000000 -326.000000,359.000000 -320.000000,358.000000 -315.000000"></path>
    </g>
    <g transform="scale(0.009963,0.009963)" id="GLYPHcmmi10_98">
      <path style="fill-rule: evenodd;" d="M239.000000 -683.000000C239.000000 -684.000000,239.000000 -694.000000,226.000000 -694.000000C203.000000 -694.000000,130.000000 -686.000000,104.000000 -684.000000C96.000000 -683.000000,85.000000 -682.000000,85.000000 -664.000000C85.000000 -652.000000,94.000000 -652.000000,109.000000 -652.000000C157.000000 -652.000000,159.000000 -645.000000,159.000000 -635.000000C159.000000 -628.000000,150.000000 -594.000000,145.000000 -573.000000L63.000000 -247.000000C51.000000 -197.000000,47.000000 -181.000000,47.000000 -146.000000C47.000000 -51.000000,100.000000 11.000000,174.000000 11.000000C292.000000 11.000000,415.000000 -138.000000,415.000000 -282.000000C415.000000 -373.000000,362.000000 -442.000000,282.000000 -442.000000C236.000000 -442.000000,195.000000 -413.000000,165.000000 -382.000000M145.000000 -305.000000C151.000000 -327.000000,151.000000 -329.000000,160.000000 -340.000000C209.000000 -405.000000,254.000000 -420.000000,280.000000 -420.000000C316.000000 -420.000000,343.000000 -390.000000,343.000000 -326.000000C343.000000 -267.000000,310.000000 -152.000000,292.000000 -114.000000C259.000000 -47.000000,213.000000 -11.000000,174.000000 -11.000000C140.000000 -11.000000,107.000000 -38.000000,107.000000 -112.000000C107.000000 -131.000000,107.000000 -150.000000,123.000000 -213.000000"></path>
    </g>
    <g transform="scale(0.009963,0.009963)" id="GLYPHcmmi10_116">
      <path style="fill-rule: evenodd;" d="M206.000000 -400.000000L300.000000 -400.000000C320.000000 -400.000000,330.000000 -400.000000,330.000000 -420.000000C330.000000 -431.000000,320.000000 -431.000000,302.000000 -431.000000L214.000000 -431.000000C250.000000 -573.000000,255.000000 -593.000000,255.000000 -599.000000C255.000000 -616.000000,243.000000 -626.000000,226.000000 -626.000000C223.000000 -626.000000,195.000000 -625.000000,186.000000 -590.000000L147.000000 -431.000000L53.000000 -431.000000C33.000000 -431.000000,23.000000 -431.000000,23.000000 -412.000000C23.000000 -400.000000,31.000000 -400.000000,51.000000 -400.000000L139.000000 -400.000000C67.000000 -116.000000,63.000000 -99.000000,63.000000 -81.000000C63.000000 -27.000000,101.000000 11.000000,155.000000 11.000000C257.000000 11.000000,314.000000 -135.000000,314.000000 -143.000000C314.000000 -153.000000,306.000000 -153.000000,302.000000 -153.000000C293.000000 -153.000000,292.000000 -150.000000,287.000000 -139.000000C244.000000 -35.000000,191.000000 -11.000000,157.000000 -11.000000C136.000000 -11.000000,126.000000 -24.000000,126.000000 -57.000000C126.000000 -81.000000,128.000000 -88.000000,132.000000 -105.000000"></path>
    </g>
    <g transform="scale(0.009963,0.009963)" id="GLYPHcmr10_40">
      <path style="fill-rule: evenodd;" d="M331.000000 240.000000C331.000000 237.000000,331.000000 235.000000,314.000000 218.000000C189.000000 92.000000,157.000000 -97.000000,157.000000 -250.000000C157.000000 -424.000000,195.000000 -598.000000,318.000000 -723.000000C331.000000 -735.000000,331.000000 -737.000000,331.000000 -740.000000C331.000000 -747.000000,327.000000 -750.000000,321.000000 -750.000000C311.000000 -750.000000,221.000000 -682.000000,162.000000 -555.000000C111.000000 -445.000000,99.000000 -334.000000,99.000000 -250.000000C99.000000 -172.000000,110.000000 -51.000000,165.000000 62.000000C225.000000 185.000000,311.000000 250.000000,321.000000 250.000000C327.000000 250.000000,331.000000 247.000000,331.000000 240.000000"></path>
    </g>
    <g transform="scale(0.009963,0.009963)" id="GLYPHcmr10_41">
      <path style="fill-rule: evenodd;" d="M289.000000 -250.000000C289.000000 -328.000000,278.000000 -449.000000,223.000000 -562.000000C163.000000 -685.000000,77.000000 -750.000000,67.000000 -750.000000C61.000000 -750.000000,57.000000 -746.000000,57.000000 -740.000000C57.000000 -737.000000,57.000000 -735.000000,76.000000 -717.000000C174.000000 -618.000000,231.000000 -459.000000,231.000000 -250.000000C231.000000 -79.000000,194.000000 97.000000,70.000000 223.000000C57.000000 235.000000,57.000000 237.000000,57.000000 240.000000C57.000000 246.000000,61.000000 250.000000,67.000000 250.000000C77.000000 250.000000,167.000000 182.000000,226.000000 55.000000C277.000000 -55.000000,289.000000 -166.000000,289.000000 -250.000000"></path>
    </g>
    <g transform="scale(0.009963,0.009963)" id="GLYPHcmr10_65">
      <path style="fill-rule: evenodd;" d="M398.000000 -696.000000C393.000000 -709.000000,391.000000 -716.000000,375.000000 -716.000000C359.000000 -716.000000,356.000000 -710.000000,351.000000 -696.000000L144.000000 -98.000000C126.000000 -47.000000,86.000000 -32.000000,32.000000 -31.000000L32.000000 -0.000000C55.000000 -1.000000,98.000000 -3.000000,134.000000 -3.000000C165.000000 -3.000000,217.000000 -1.000000,249.000000 -0.000000L249.000000 -31.000000C199.000000 -31.000000,174.000000 -56.000000,174.000000 -82.000000C174.000000 -85.000000,175.000000 -95.000000,176.000000 -97.000000L222.000000 -228.000000L469.000000 -228.000000L522.000000 -75.000000C523.000000 -71.000000,525.000000 -65.000000,525.000000 -61.000000C525.000000 -31.000000,469.000000 -31.000000,442.000000 -31.000000L442.000000 -0.000000C478.000000 -3.000000,548.000000 -3.000000,586.000000 -3.000000C629.000000 -3.000000,675.000000 -2.000000,717.000000 -0.000000L717.000000 -31.000000L699.000000 -31.000000C639.000000 -31.000000,625.000000 -38.000000,614.000000 -71.000000M345.000000 -584.000000L458.000000 -259.000000L233.000000 -259.000000"></path>
    </g>
    <g transform="scale(0.009963,0.009963)" id="GLYPHcmr10_67">
      <path style="fill-rule: evenodd;" d="M56.000000 -342.000000C56.000000 -135.000000,218.000000 22.000000,404.000000 22.000000C567.000000 22.000000,665.000000 -117.000000,665.000000 -233.000000C665.000000 -243.000000,665.000000 -250.000000,652.000000 -250.000000C641.000000 -250.000000,641.000000 -244.000000,640.000000 -234.000000C632.000000 -91.000000,525.000000 -9.000000,416.000000 -9.000000C355.000000 -9.000000,159.000000 -43.000000,159.000000 -341.000000C159.000000 -640.000000,354.000000 -674.000000,415.000000 -674.000000C524.000000 -674.000000,613.000000 -583.000000,633.000000 -437.000000C635.000000 -423.000000,635.000000 -420.000000,649.000000 -420.000000C665.000000 -420.000000,665.000000 -423.000000,665.000000 -444.000000L665.000000 -681.000000C665.000000 -698.000000,665.000000 -705.000000,654.000000 -705.000000C650.000000 -705.000000,646.000000 -705.000000,638.000000 -693.000000L588.000000 -619.000000C551.000000 -655.000000,500.000000 -705.000000,404.000000 -705.000000C217.000000 -705.000000,56.000000 -546.000000,56.000000 -342.000000"></path>
    </g>
    <g transform="scale(0.009963,0.009963)" id="GLYPHcmr10_71">
      <path style="fill-rule: evenodd;" d="M593.000000 -63.000000C606.000000 -41.000000,646.000000 -1.000000,657.000000 -1.000000C666.000000 -1.000000,666.000000 -9.000000,666.000000 -24.000000L666.000000 -198.000000C666.000000 -237.000000,670.000000 -242.000000,735.000000 -242.000000L735.000000 -273.000000C698.000000 -272.000000,643.000000 -270.000000,613.000000 -270.000000C573.000000 -270.000000,488.000000 -270.000000,452.000000 -273.000000L452.000000 -242.000000L484.000000 -242.000000C574.000000 -242.000000,577.000000 -231.000000,577.000000 -194.000000L577.000000 -130.000000C577.000000 -18.000000,450.000000 -9.000000,422.000000 -9.000000C357.000000 -9.000000,159.000000 -44.000000,159.000000 -342.000000C159.000000 -641.000000,356.000000 -674.000000,416.000000 -674.000000C523.000000 -674.000000,614.000000 -584.000000,634.000000 -437.000000C636.000000 -423.000000,636.000000 -420.000000,650.000000 -420.000000C666.000000 -420.000000,666.000000 -423.000000,666.000000 -444.000000L666.000000 -681.000000C666.000000 -698.000000,666.000000 -705.000000,655.000000 -705.000000C651.000000 -705.000000,647.000000 -705.000000,639.000000 -693.000000L589.000000 -619.000000C557.000000 -651.000000,503.000000 -705.000000,404.000000 -705.000000C218.000000 -705.000000,56.000000 -547.000000,56.000000 -342.000000C56.000000 -137.000000,216.000000 22.000000,406.000000 22.000000C479.000000 22.000000,559.000000 -4.000000,593.000000 -63.000000"></path>
    </g>
    <g transform="scale(0.009963,0.009963)" id="GLYPHcmr10_73">
      <path style="fill-rule: evenodd;" d="M225.000000 -605.000000C225.000000 -641.000000,228.000000 -652.000000,307.000000 -652.000000L333.000000 -652.000000L333.000000 -683.000000C298.000000 -680.000000,219.000000 -680.000000,181.000000 -680.000000C142.000000 -680.000000,63.000000 -680.000000,28.000000 -683.000000L28.000000 -652.000000L54.000000 -652.000000C133.000000 -652.000000,136.000000 -641.000000,136.000000 -605.000000L136.000000 -78.000000C136.000000 -42.000000,133.000000 -31.000000,54.000000 -31.000000L28.000000 -31.000000L28.000000 -0.000000C63.000000 -3.000000,142.000000 -3.000000,180.000000 -3.000000C219.000000 -3.000000,298.000000 -3.000000,333.000000 -0.000000L333.000000 -31.000000L307.000000 -31.000000C228.000000 -31.000000,225.000000 -42.000000,225.000000 -78.000000"></path>
    </g>
    <g transform="scale(0.009963,0.009963)" id="GLYPHcmr10_77">
      <path style="fill-rule: evenodd;" d="M241.000000 -661.000000C232.000000 -683.000000,229.000000 -683.000000,206.000000 -683.000000L37.000000 -683.000000L37.000000 -652.000000L61.000000 -652.000000C138.000000 -652.000000,140.000000 -641.000000,140.000000 -605.000000L140.000000 -105.000000C140.000000 -78.000000,140.000000 -31.000000,37.000000 -31.000000L37.000000 -0.000000C72.000000 -1.000000,121.000000 -3.000000,154.000000 -3.000000C187.000000 -3.000000,236.000000 -1.000000,271.000000 -0.000000L271.000000 -31.000000C168.000000 -31.000000,168.000000 -78.000000,168.000000 -105.000000L168.000000 -644.000000L169.000000 -644.000000L410.000000 -22.000000C415.000000 -9.000000,420.000000 -0.000000,430.000000 -0.000000C441.000000 -0.000000,444.000000 -8.000000,448.000000 -19.000000L694.000000 -652.000000L695.000000 -652.000000L695.000000 -78.000000C695.000000 -42.000000,693.000000 -31.000000,616.000000 -31.000000L592.000000 -31.000000L592.000000 -0.000000C629.000000 -3.000000,697.000000 -3.000000,736.000000 -3.000000C775.000000 -3.000000,842.000000 -3.000000,879.000000 -0.000000L879.000000 -31.000000L855.000000 -31.000000C778.000000 -31.000000,776.000000 -42.000000,776.000000 -78.000000L776.000000 -605.000000C776.000000 -641.000000,778.000000 -652.000000,855.000000 -652.000000L879.000000 -652.000000L879.000000 -683.000000L710.000000 -683.000000C684.000000 -683.000000,684.000000 -682.000000,677.000000 -664.000000L458.000000 -101.000000"></path>
    </g>
  </defs>
  <path d="M26.000000 21.000000C26.000000 17.684647,24.682785 14.505478,22.338654 12.161346C19.994522 9.817215,16.815353 8.500000,13.500000 8.500000C10.184647 8.500000,7.005478 9.817215,4.661346 12.161346C2.317215 14.505478,1.000000 17.684647,1.000000 21.000000C1.000000 24.315353,2.317215 27.494522,4.661346 29.838654C7.005478 32.182785,10.184647 33.500000,13.500000 33.500000C16.815353 33.500000,19.994522 32.182785,22.338654 29.838654C24.682785 27.494522,26.000000 24.315353,26.000000 21.000000Z" style="stroke:rgb(33.332825%,75.686646%,65.490723%); stroke-width: 2.000000;stroke-linecap: round;stroke-linejoin: round;stroke-miterlimit: 10.000000;fill: none;"></path>
  <g transform="translate(5.193741 23.490646)" style="fill: rgb(0.000000%,0.000000%,0.000000%);">
    <use xlink:href="#GLYPHcmmi10_97"></use>
  </g>
  <g transform="translate(10.459839 23.490646)" style="fill: rgb(0.000000%,0.000000%,0.000000%);">
    <use xlink:href="#GLYPHcmr10_40"></use>
  </g>
  <g transform="translate(14.334244 23.490646)" style="fill: rgb(0.000000%,0.000000%,0.000000%);">
    <use xlink:href="#GLYPHcmmi10_116"></use>
  </g>
  <g transform="translate(17.931839 23.490646)" style="fill: rgb(0.000000%,0.000000%,0.000000%);">
    <use xlink:href="#GLYPHcmr10_41"></use>
  </g>
  <path d="M26.000000 21.000000L61.500000 21.000000" style="stroke:rgb(33.332825%,75.686646%,65.490723%); stroke-width: 2.000000;stroke-linecap: round;stroke-linejoin: round;stroke-miterlimit: 10.000000;fill: none;"></path>
  <path d="M57.804688 22.530685L61.500000 21.000000L57.804688 19.469315Z" style="stroke:rgb(33.332825%,75.686646%,65.490723%); stroke-width: 2.000000;fill: rgb(33.332825%,75.686646%,65.490723%);"></path>
  <path d="M63.500000 41.000000L163.500000 41.000000" style="stroke:rgb(33.332825%,75.686646%,65.490723%); stroke-width: 2.000000;stroke-linecap: round;stroke-linejoin: round;stroke-miterlimit: 10.000000;fill: none;"></path>
  <path d="M63.500000 1.000000L163.500000 1.000000" style="stroke:rgb(33.332825%,75.686646%,65.490723%); stroke-width: 2.000000;stroke-linecap: round;stroke-linejoin: round;stroke-miterlimit: 10.000000;fill: none;"></path>
  <path d="M63.500000 41.000000L63.500000 1.000000" style="stroke:rgb(33.332825%,75.686646%,65.490723%); stroke-width: 2.000000;stroke-linecap: round;stroke-linejoin: round;stroke-miterlimit: 10.000000;fill: none;"></path>
  <path d="M163.500000 41.000000L163.500000 1.000000" style="stroke:rgb(33.332825%,75.686646%,65.490723%); stroke-width: 2.000000;stroke-linecap: round;stroke-linejoin: round;stroke-miterlimit: 10.000000;fill: none;"></path>
  <g transform="matrix(2.000000,-0.000000,-0.000000,2.000000,78.284729 27.807800)" style="fill: rgb(0.000000%,0.000000%,0.000000%);">
    <use xlink:href="#GLYPHcmr10_77"></use>
    <use xlink:href="#GLYPHcmr10_65" x="9.166833"></use>
    <use xlink:href="#GLYPHcmr10_71" x="16.666967"></use>
    <use xlink:href="#GLYPHcmr10_73" x="24.514337"></use>
    <use xlink:href="#GLYPHcmr10_67" x="28.125508"></use>
  </g>
  <path d="M163.500000 21.000000L199.000000 21.000000" style="stroke:rgb(33.332825%,75.686646%,65.490723%); stroke-width: 2.000000;stroke-linecap: round;stroke-linejoin: round;stroke-miterlimit: 10.000000;fill: none;"></path>
  <path d="M195.304688 22.530685L199.000000 21.000000L195.304688 19.469315Z" style="stroke:rgb(33.332825%,75.686646%,65.490723%); stroke-width: 2.000000;fill: rgb(33.332825%,75.686646%,65.490723%);"></path>
  <path d="M226.000000 21.000000C226.000000 17.684647,224.682785 14.505478,222.338654 12.161346C219.994522 9.817215,216.815353 8.500000,213.500000 8.500000C210.184647 8.500000,207.005478 9.817215,204.661346 12.161346C202.317215 14.505478,201.000000 17.684647,201.000000 21.000000C201.000000 24.315353,202.317215 27.494522,204.661346 29.838654C207.005478 32.182785,210.184647 33.500000,213.500000 33.500000C216.815353 33.500000,219.994522 32.182785,222.338654 29.838654C224.682785 27.494522,226.000000 24.315353,226.000000 21.000000Z" style="stroke:rgb(33.332825%,75.686646%,65.490723%); stroke-width: 2.000000;stroke-linecap: round;stroke-linejoin: round;stroke-miterlimit: 10.000000;fill: none;"></path>
  <g transform="translate(205.688995 23.490646)" style="fill: rgb(0.000000%,0.000000%,0.000000%);">
    <use xlink:href="#GLYPHcmmi10_98"></use>
  </g>
  <g transform="translate(209.964600 23.490646)" style="fill: rgb(0.000000%,0.000000%,0.000000%);">
    <use xlink:href="#GLYPHcmr10_40"></use>
  </g>
  <g transform="translate(213.838989 23.490646)" style="fill: rgb(0.000000%,0.000000%,0.000000%);">
    <use xlink:href="#GLYPHcmmi10_116"></use>
  </g>
  <g transform="translate(217.436600 23.490646)" style="fill: rgb(0.000000%,0.000000%,0.000000%);">
    <use xlink:href="#GLYPHcmr10_41"></use>
  </g>
</svg>
